  0
SECTION
  2
HEADER
  9
$ACADVER
  1
AC1015
  9
$ACADMAINTVER
 70
     6
  9
$DWGCODEPAGE
  3
ANSI_1252
  9
$INSBASE
 10
0.0
 20
0.0
 30
0.0
  9
$EXTMIN
 10
-19354.8
 20
-15785.4210762442
 30
0.0
  9
$EXTMAX
 10
19354.7999999936
 20
11612.8799999854
 30
0.0
  9
$LIMMIN
 10
0.0
 20
0.0
  9
$LIMMAX
 10
420.0
 20
297.0
  9
$ORTHOMODE
 70
     0
  9
$REGENMODE
 70
     1
  9
$FILLMODE
 70
     1
  9
$QTEXTMODE
 70
     0
  9
$MIRRTEXT
 70
     1
  9
$LTSCALE
 40
1.0
  9
$ATTMODE
 70
     1
  9
$TEXTSIZE
 40
3.5
  9
$TRACEWID
 40
1.0
  9
$TEXTSTYLE
  7
Standard
  9
$CLAYER
  8
0
  9
$CELTYPE
  6
ByLayer
  9
$CECOLOR
 62
   256
  9
$CELTSCALE
 40
1.0
  9
$DISPSILH
 70
     0
  9
$DIMSCALE
 40
1.0
  9
$DIMASZ
 40
3.302
  9
$DIMEXO
 40
1.0
  9
$DIMDLI
 40
3.75
  9
$DIMRND
 40
0.0
  9
$DIMDLE
 40
0.0
  9
$DIMEXE
 40
1.0
  9
$DIMTP
 40
0.0
  9
$DIMTM
 40
0.0
  9
$DIMTXT
 40
3.5
  9
$DIMCEN
 40
2.5
  9
$DIMTSZ
 40
0.0
  9
$DIMTOL
 70
     0
  9
$DIMLIM
 70
     0
  9
$DIMTIH
 70
     1
  9
$DIMTOH
 70
     1
  9
$DIMSE1
 70
     0
  9
$DIMSE2
 70
     0
  9
$DIMTAD
 70
     1
  9
$DIMZIN
 70
     0
  9
$DIMBLK
  1

  9
$DIMASO
 70
     1
  9
$DIMSHO
 70
     1
  9
$DIMPOST
  1

  9
$DIMAPOST
  1

  9
$DIMALT
 70
     0
  9
$DIMALTD
 70
     3
  9
$DIMALTF
 40
0.0393700787
  9
$DIMLFAC
 40
1.0
  9
$DIMTOFL
 70
     1
  9
$DIMTVP
 40
0.0
  9
$DIMTIX
 70
     0
  9
$DIMSOXD
 70
     0
  9
$DIMSAH
 70
     0
  9
$DIMBLK1
  1

  9
$DIMBLK2
  1

  9
$DIMSTYLE
  2
ISO-25
  9
$DIMCLRD
 70
     0
  9
$DIMCLRE
 70
     0
  9
$DIMCLRT
 70
     0
  9
$DIMTFAC
 40
1.0
  9
$DIMGAP
 40
1.524
  9
$DIMJUST
 70
     0
  9
$DIMSD1
 70
     0
  9
$DIMSD2
 70
     0
  9
$DIMTOLJ
 70
     0
  9
$DIMTZIN
 70
     0
  9
$DIMALTZ
 70
     0
  9
$DIMALTTZ
 70
     0
  9
$DIMUPT
 70
     0
  9
$DIMDEC
 70
     2
  9
$DIMTDEC
 70
     2
  9
$DIMALTU
 70
     2
  9
$DIMALTTD
 70
     3
  9
$DIMTXSTY
  7
Standard
  9
$DIMAUNIT
 70
     0
  9
$DIMADEC
 70
     2
  9
$DIMALTRND
 40
0.0
  9
$DIMAZIN
 70
     0
  9
$DIMDSEP
 70
    44
  9
$DIMATFIT
 70
     3
  9
$DIMFRAC
 70
     0
  9
$DIMLDRBLK
  1

  9
$DIMLUNIT
 70
     2
  9
$DIMLWD
 70
    -2
  9
$DIMLWE
 70
    -2
  9
$DIMTMOVE
 70
     0
  9
$LUNITS
 70
     2
  9
$LUPREC
 70
     2
  9
$SKETCHINC
 40
1.0
  9
$FILLETRAD
 40
10.0
  9
$AUNITS
 70
     0
  9
$AUPREC
 70
     2
  9
$MENU
  1
.
  9
$ELEVATION
 40
0.0
  9
$PELEVATION
 40
0.0
  9
$THICKNESS
 40
0.0
  9
$LIMCHECK
 70
     0
  9
$CHAMFERA
 40
0.0
  9
$CHAMFERB
 40
0.0
  9
$CHAMFERC
 40
0.0
  9
$CHAMFERD
 40
0.0
  9
$SKPOLY
 70
     0
  9
$TDCREATE
 40
2458467.921261343
  9
$TDUCREATE
 40
2458468.129594676
  9
$TDUPDATE
 40
2458467.921324769
  9
$TDUUPDATE
 40
2458468.129658102
  9
$TDINDWG
 40
0.0000000116
  9
$TDUSRTIMER
 40
0.0000000116
  9
$USRTIMER
 70
     1
  9
$ANGBASE
 50
0.0
  9
$ANGDIR
 70
     0
  9
$PDMODE
 70
     0
  9
$PDSIZE
 40
-1.0
  9
$PLINEWID
 40
0.0
  9
$SPLFRAME
 70
     0
  9
$SPLINETYPE
 70
     6
  9
$SPLINESEGS
 70
     8
  9
$HANDSEED
  5
C4
  9
$SURFTAB1
 70
     6
  9
$SURFTAB2
 70
     6
  9
$SURFTYPE
 70
     6
  9
$SURFU
 70
     6
  9
$SURFV
 70
     6
  9
$UCSBASE
  2

  9
$UCSNAME
  2

  9
$UCSORG
 10
0.0
 20
0.0
 30
0.0
  9
$UCSXDIR
 10
1.0
 20
0.0
 30
0.0
  9
$UCSYDIR
 10
0.0
 20
1.0
 30
0.0
  9
$UCSORTHOREF
  2

  9
$UCSORTHOVIEW
 70
     0
  9
$UCSORGTOP
 10
0.0
 20
0.0
 30
0.0
  9
$UCSORGBOTTOM
 10
0.0
 20
0.0
 30
0.0
  9
$UCSORGLEFT
 10
0.0
 20
0.0
 30
0.0
  9
$UCSORGRIGHT
 10
0.0
 20
0.0
 30
0.0
  9
$UCSORGFRONT
 10
0.0
 20
0.0
 30
0.0
  9
$UCSORGBACK
 10
0.0
 20
0.0
 30
0.0
  9
$PUCSBASE
  2

  9
$PUCSNAME
  2

  9
$PUCSORG
 10
0.0
 20
0.0
 30
0.0
  9
$PUCSXDIR
 10
1.0
 20
0.0
 30
0.0
  9
$PUCSYDIR
 10
0.0
 20
1.0
 30
0.0
  9
$PUCSORTHOREF
  2

  9
$PUCSORTHOVIEW
 70
     0
  9
$PUCSORGTOP
 10
0.0
 20
0.0
 30
0.0
  9
$PUCSORGBOTTOM
 10
0.0
 20
0.0
 30
0.0
  9
$PUCSORGLEFT
 10
0.0
 20
0.0
 30
0.0
  9
$PUCSORGRIGHT
 10
0.0
 20
0.0
 30
0.0
  9
$PUCSORGFRONT
 10
0.0
 20
0.0
 30
0.0
  9
$PUCSORGBACK
 10
0.0
 20
0.0
 30
0.0
  9
$USERI1
 70
     0
  9
$USERI2
 70
     0
  9
$USERI3
 70
     0
  9
$USERI4
 70
     0
  9
$USERI5
 70
     0
  9
$USERR1
 40
0.0
  9
$USERR2
 40
0.0
  9
$USERR3
 40
0.0
  9
$USERR4
 40
0.0
  9
$USERR5
 40
0.0
  9
$WORLDVIEW
 70
     1
  9
$SHADEDGE
 70
     3
  9
$SHADEDIF
 70
    70
  9
$TILEMODE
 70
     1
  9
$MAXACTVP
 70
    64
  9
$PINSBASE
 10
0.0
 20
0.0
 30
0.0
  9
$PLIMCHECK
 70
     0
  9
$PEXTMIN
 10
1.0000000000E+20
 20
1.0000000000E+20
 30
1.0000000000E+20
  9
$PEXTMAX
 10
-1.0000000000E+20
 20
-1.0000000000E+20
 30
-1.0000000000E+20
  9
$PLIMMIN
 10
0.0
 20
0.0
  9
$PLIMMAX
 10
420.0
 20
297.0
  9
$UNITMODE
 70
     0
  9
$VISRETAIN
 70
     1
  9
$PLINEGEN
 70
     0
  9
$PSLTSCALE
 70
     1
  9
$TREEDEPTH
 70
  3020
  9
$CMLSTYLE
  2
Standard
  9
$CMLJUST
 70
     0
  9
$CMLSCALE
 40
20.0
  9
$PROXYGRAPHICS
 70
     1
  9
$MEASUREMENT
 70
     1
  9
$CELWEIGHT
370
    -1
  9
$ENDCAPS
280
     0
  9
$JOINSTYLE
280
     0
  9
$LWDISPLAY
290
     1
  9
$INSUNITS
 70
     4
  9
$HYPERLINKBASE
  1

  9
$STYLESHEET
  1

  9
$XEDIT
290
     1
  9
$CEPSNTYPE
380
     0
  9
$PSTYLEMODE
290
     1
  9
$FINGERPRINTGUID
  2
{C73BBCB4-9F0E-4659-814A-A24DB5EF365B}
  9
$VERSIONGUID
  2
{FAEB1C32-E019-11D5-929B-00C0DF256EC4}
  9
$EXTNAMES
290
     1
  9
$PSVPSCALE
 40
0.0
  9
$OLESTARTUP
290
     0
  0
ENDSEC
  0
SECTION
  2
CLASSES
  0
CLASS
  1
ACDBDICTIONARYWDFLT
  2
AcDbDictionaryWithDefault
  3
ObjectDBX Classes
 90
        0
280
     0
281
     0
  0
CLASS
  1
VISUALSTYLE
  2
AcDbVisualStyle
  3
ObjectDBX Classes
 90
     4095
280
     0
281
     0
  0
CLASS
  1
MATERIAL
  2
AcDbMaterial
  3
ObjectDBX Classes
 90
     1153
280
     0
281
     0
  0
CLASS
  1
SCALE
  2
AcDbScale
  3
ObjectDBX Classes
 90
     1153
280
     0
281
     0
  0
CLASS
  1
TABLESTYLE
  2
AcDbTableStyle
  3
ObjectDBX Classes
 90
     4095
280
     0
281
     0
  0
CLASS
  1
MLEADERSTYLE
  2
AcDbMLeaderStyle
  3
ACDB_MLEADERSTYLE_CLASS
 90
     4095
280
     0
281
     0
  0
CLASS
  1
SUN
  2
AcDbSun
  3
SCENEOE
 90
     1153
280
     0
281
     0
  0
CLASS
  1
ACDBPLACEHOLDER
  2
AcDbPlaceHolder
  3
ObjectDBX Classes
 90
        0
280
     0
281
     0
  0
CLASS
  1
LAYOUT
  2
AcDbLayout
  3
ObjectDBX Classes
 90
        0
280
     0
281
     0
  0
ENDSEC
  0
SECTION
  2
TABLES
  0
TABLE
  2
VPORT
  5
8
330
0
100
AcDbSymbolTable
 70
     1
  0
VPORT
  5
29
330
8
100
AcDbSymbolTableRecord
100
AcDbViewportTableRecord
  2
*Active
 70
     0
 10
0.0
 20
0.0
 11
1.0
 21
1.0
 12
-0.0000000032
 22
-2086.2705381294
 13
0.0
 23
0.0
 14
10.0
 24
10.0
 15
10.0
 25
10.0
 16
0.0
 26
0.0
 36
1.0
 17
0.0
 27
0.0
 37
0.0
 40
27946.2670977542
 41
1.412846727
 42
50.0
 43
0.0
 44
0.0
 50
0.0
 51
0.0
 71
     0
 72
   100
 73
     1
 74
     3
 75
     0
 76
     0
 77
     0
 78
     0
281
     0
 65
     1
110
0.0
120
0.0
130
0.0
111
1.0
121
0.0
131
0.0
112
0.0
122
1.0
132
0.0
 79
     0
146
0.0
  0
ENDTAB
  0
TABLE
  2
LTYPE
  5
5
330
0
100
AcDbSymbolTable
 70
     6
  0
LTYPE
  5
14
330
5
100
AcDbSymbolTableRecord
100
AcDbLinetypeTableRecord
  2
ByBlock
 70
     0
  3

 72
    65
 73
     0
 40
0.0
  0
LTYPE
  5
15
330
5
100
AcDbSymbolTableRecord
100
AcDbLinetypeTableRecord
  2
ByLayer
 70
     0
  3

 72
    65
 73
     0
 40
0.0
  0
LTYPE
  5
16
330
5
100
AcDbSymbolTableRecord
100
AcDbLinetypeTableRecord
  2
Continuous
 70
     0
  3
Solid line
 72
    65
 73
     0
 40
0.0
  0
LTYPE
  5
6E
330
5
100
AcDbSymbolTableRecord
100
AcDbLinetypeTableRecord
  2
HIDDEN
 70
     0
  3
Hidden __ __ __ __ __ __ __ __ __ __ __ __ __ __
 72
    65
 73
     2
 40
1.905
 49
1.27
 74
     0
 49
-0.635
 74
     0
  0
LTYPE
  5
6F
330
5
100
AcDbSymbolTableRecord
100
AcDbLinetypeTableRecord
  2
PHANTOM
 70
     0
  3
Phantom ______  __  __  ______  __  __  ______
 72
    65
 73
     6
 40
12.7
 49
6.35
 74
     0
 49
-1.27
 74
     0
 49
1.27
 74
     0
 49
-1.27
 74
     0
 49
1.27
 74
     0
 49
-1.27
 74
     0
  0
LTYPE
  5
70
330
5
100
AcDbSymbolTableRecord
100
AcDbLinetypeTableRecord
  2
CENTER
 70
     0
  3
Center ____ _ ____ _ ____ _ ____ _ ____ _ ____
 72
    65
 73
     4
 40
10.16
 49
6.35
 74
     0
 49
-1.27
 74
     0
 49
1.27
 74
     0
 49
-1.27
 74
     0
  0
LTYPE
  5
71
330
5
100
AcDbSymbolTableRecord
100
AcDbLinetypeTableRecord
  2
CENTERX2
 70
     0
  3
Center (2x) ________  __  ________  __  _____
 72
    65
 73
     4
 40
20.32
 49
12.7
 74
     0
 49
-2.54
 74
     0
 49
2.54
 74
     0
 49
-2.54
 74
     0
  0
LTYPE
  5
72
330
5
100
AcDbSymbolTableRecord
100
AcDbLinetypeTableRecord
  2
DOT2
 70
     0
  3
Dot (.5x) ........................................
 72
    65
 73
     2
 40
0.635
 49
0.0
 74
     0
 49
-0.635
 74
     0
  0
ENDTAB
  0
TABLE
  2
LAYER
  5
2
330
0
100
AcDbSymbolTable
 70
     1
  0
LAYER
  5
10
330
2
100
AcDbSymbolTableRecord
100
AcDbLayerTableRecord
  2
0
 70
     0
 62
     7
  6
Continuous
370
    -3
390
F
  0
ENDTAB
  0
TABLE
  2
STYLE
  5
3
330
0
100
AcDbSymbolTable
 70
     2
  0
STYLE
  5
11
330
3
100
AcDbSymbolTableRecord
100
AcDbTextStyleTableRecord
  2
Standard
 70
     0
 40
0.0
 41
1.0
 50
0.0
 71
     0
 42
3.5
  3
txt
  4

  0
STYLE
  5
C1
330
3
100
AcDbSymbolTableRecord
100
AcDbTextStyleTableRecord
  2
SLDTEXTSTYLE0
 70
     0
 40
0.0
 41
0.7
 50
0.0
 71
     0
 42
3.5
  3
TXT
  4

  0
ENDTAB
  0
TABLE
  2
VIEW
  5
6
330
0
100
AcDbSymbolTable
 70
     0
  0
ENDTAB
  0
TABLE
  2
UCS
  5
7
330
0
100
AcDbSymbolTable
 70
     0
  0
ENDTAB
  0
TABLE
  2
APPID
  5
9
330
0
100
AcDbSymbolTable
 70
     1
  0
APPID
  5
12
330
9
100
AcDbSymbolTableRecord
100
AcDbRegAppTableRecord
  2
ACAD
 70
     0
  0
ENDTAB
  0
TABLE
  2
DIMSTYLE
  5
A
330
0
100
AcDbSymbolTable
 70
     1
100
AcDbDimStyleTable
  0
DIMSTYLE
105
27
330
A
100
AcDbSymbolTableRecord
100
AcDbDimStyleTableRecord
  2
ISO-25
 70
     0
 41
2.5
 42
0.625
 43
3.75
 44
1.25
 73
     0
 74
     0
 77
     1
 78
     8
140
2.5
141
2.5
143
0.0393700787
147
0.625
171
     3
172
     1
178
     0
271
     2
272
     2
274
     3
278
    44
283
     0
284
     8
340
11
  0
ENDTAB
  0
TABLE
  2
BLOCK_RECORD
  5
1
330
0
100
AcDbSymbolTable
 70
     1
  0
BLOCK_RECORD
  5
1F
330
1
100
AcDbSymbolTableRecord
100
AcDbBlockTableRecord
  2
*Model_Space
340
22
  0
BLOCK_RECORD
  5
1B
330
1
100
AcDbSymbolTableRecord
100
AcDbBlockTableRecord
  2
*Paper_Space
340
1E
  0
BLOCK_RECORD
  5
23
330
1
100
AcDbSymbolTableRecord
100
AcDbBlockTableRecord
  2
*Paper_Space0
340
26
  0
ENDTAB
  0
ENDSEC
  0
SECTION
  2
BLOCKS
  0
BLOCK
  5
20
330
1F
100
AcDbEntity
  8
0
100
AcDbBlockBegin
  2
*Model_Space
 70
     0
 10
0.0
 20
0.0
 30
0.0
  3
*Model_Space
  1

  0
ENDBLK
  5
21
330
1F
100
AcDbEntity
  8
0
100
AcDbBlockEnd
  0
BLOCK
  5
1C
330
1B
100
AcDbEntity
 67
     1
  8
0
100
AcDbBlockBegin
  2
*Paper_Space
 70
     0
 10
0.0
 20
0.0
 30
0.0
  3
*Paper_Space
  1

  0
ENDBLK
  5
1D
330
1B
100
AcDbEntity
 67
     1
  8
0
100
AcDbBlockEnd
  0
BLOCK
  5
24
330
23
100
AcDbEntity
  8
0
100
AcDbBlockBegin
  2
*Paper_Space0
 70
     0
 10
0.0
 20
0.0
 30
0.0
  3
*Paper_Space0
  1

  0
ENDBLK
  5
25
330
23
100
AcDbEntity
  8
0
100
AcDbBlockEnd
  0
ENDSEC
  0
SECTION
  2
ENTITIES
  0
CIRCLE
  5
73
330
1F
100
AcDbEntity
  8
0
  6
Continuous
 62
     7
100
AcDbCircle
 10
0.0
 20
0.0
 30
0.0
 40
3870.96
  0
ARC
  5
74
330
1F
100
AcDbEntity
  8
0
  6
Continuous
 62
     7
100
AcDbCircle
 10
-15483.8399999936
 20
7741.9199999854
 30
0.0
 40
3870.959999999999
100
AcDbArc
 50
82.8192442186
 51
194.4775121857
  0
ARC
  5
75
330
1F
100
AcDbEntity
  8
0
  6
Continuous
 62
     7
100
AcDbCircle
 10
15483.8399999936
 20
-7741.9199999854
 30
0.0
 40
3870.96
100
AcDbArc
 50
262.8192442186
 51
14.4775121857
  0
LINE
  5
76
330
1F
100
AcDbEntity
  8
0
  6
Continuous
 62
     7
100
AcDbLine
 10
-19231.8809034562
 20
6774.18
 30
0.0
 11
-15483.84
 21
-7741.92
 31
0.0
  0
LINE
  5
77
330
1F
100
AcDbEntity
  8
0
  6
Continuous
 62
     7
100
AcDbLine
 10
15483.84
 20
7741.92
 30
0.0
 11
-14999.97
 21
11582.5190606407
 31
0.0
  0
LINE
  5
78
330
1F
100
AcDbEntity
  8
0
  6
Continuous
 62
     7
100
AcDbLine
 10
19231.8809034562
 20
-6774.18
 30
0.0
 11
15483.84
 21
7741.92
 31
0.0
  0
LINE
  5
79
330
1F
100
AcDbEntity
  8
0
  6
Continuous
 62
     7
100
AcDbLine
 10
-15483.84
 20
-7741.92
 30
0.0
 11
14999.97
 21
-11582.5190606407
 31
0.0
  0
LWPOLYLINE
  5
7A
330
1F
100
AcDbEntity
  8
0
  6
Continuous
 62
     7
100
AcDbPolyline
 90
       85
 70
   128
 43
0.0
 10
-18817.8405761719
 20
-11617.6708128496
 10
-18647.5554953313
 20
-11872.2788345303
 10
-18647.5554953313
 20
-11872.2788345303
 10
-18645.3366890422
 20
-11881.1540596869
 10
-18644.7819874699
 20
-11890.861337202
 10
-18644.7819874699
 20
-11890.861337202
 10
-18645.3366890422
 20
-11897.5177560695
 10
-18647.5554953313
 20
-11905.2835780815
 10
-18647.5554953313
 20
-11905.2835780815
 10
-18650.6063539789
 20
-11916.3776095273
 10
-18655.8760189157
 20
-11924.9754838978
 10
-18663.3644901416
 20
-11931.077201193
 10
-18672.7944168705
 20
-11934.4054106267
 10
-18672.7944168705
 20
-11934.4054106267
 10
-18686.3846053916
 20
-11927.7489917592
 10
-18696.6465844789
 20
-11916.6549603135
 10
-18696.6465844789
 20
-11916.6549603135
 10
-18848.6348152861
 20
-11676.1918287261
 10
-18848.6348152861
 20
-11676.1918287261
 10
-19150.6698213976
 20
-11676.1918287261
 10
-19150.6698213976
 20
-11676.1918287261
 10
-19282.6887956024
 20
-11867.841221952
 10
-19282.6887956024
 20
-11867.841221952
 10
-18648.9422492621
 20
-12783.9308685875
 10
-18648.9422492621
 20
-12783.9308685875
 10
-18645.8913906145
 20
-12791.4193398135
 10
-18644.7819874699
 20
-12801.9586696869
 10
-18644.7819874699
 20
-12801.9586696869
 10
-18644.7819874699
 20
-12806.1189314791
 10
-18644.7819874699
 20
-12810.0018424851
 10
-18644.7819874699
 20
-12810.0018424851
 10
-18640.3443748916
 20
-12812.7753503466
 10
-18638.6802701747
 20
-12814.9941566357
 10
-18640.3443748916
 20
-12816.9356121388
 10
-18644.7819874699
 20
-12818.3223660695
 10
-18644.7819874699
 20
-12818.3223660695
 10
-18651.7157571235
 20
-12830.2484498737
 10
-18651.7157571235
 20
-12830.2484498737
 10
-18822.2864906024
 20
-13076.5359479701
 10
-18822.2864906024
 20
-13076.5359479701
 10
-18836.4313806958
 20
-13078.4774034731
 10
-18836.4313806958
 20
-13078.4774034731
 10
-19173.1352350753
 20
-13078.4774034731
 10
-19173.1352350753
 20
-13078.4774034731
 10
-19181.4557586596
 20
-13070.9889322472
 10
-19181.4557586596
 20
-13070.9889322472
 10
-19352.0264921386
 20
-12841.6198321056
 10
-19352.0264921386
 20
-12841.6198321056
 10
-19353.9679476416
 20
-12831.0805022321
 10
-19354.8
 20
-12822.7599786478
 10
-19354.8
 20
-12822.7599786478
 10
-19354.5226492139
 20
-12814.9941566357
 10
-19353.4132460693
 20
-12809.724491699
 10
-19353.4132460693
 20
-12809.724491699
 10
-19348.975633491
 20
-12799.7398633978
 10
-19343.1512669819
 20
-12791.9740413857
 10
-19335.662795756
 20
-12786.704376449
 10
-19326.5102198133
 20
-12783.6535178014
 10
-19326.5102198133
 20
-12783.6535178014
 10
-19313.4747328645
 20
-12787.5364288074
 10
-19302.6580522048
 20
-12799.1851618255
 10
-19302.6580522048
 20
-12799.1851618255
 10
-19150.1151198253
 20
-13007.4756022201
 10
-19150.1151198253
 20
-13007.4756022201
 10
-18846.416008997
 20
-13007.4756022201
 10
-18846.416008997
 20
-13007.4756022201
 10
-18713.5649824337
 20
-12815.8262089942
 10
-18713.5649824337
 20
-12815.8262089942
 10
-19352.0264921386
 20
-11901.6780178616
 10
-19352.0264921386
 20
-11901.6780178616
 10
-19353.9679476416
 20
-11893.6348450635
 10
-19354.8
 20
-11881.7087612592
 10
-19354.8
 20
-11881.7087612592
 10
-19354.5226492139
 20
-11874.2202900333
 10
-19353.4132460693
 20
-11867.5638711659
 10
-19353.4132460693
 20
-11867.5638711659
 10
-19347.8662303464
 20
-11853.4189810725
 10
-19347.8662303464
 20
-11853.4189810725
 10
-19176.1860937229
 20
-11609.3502892653
 10
-19176.1860937229
 20
-11609.3502892653
 10
-19167.8655701386
 20
-11605.1900274731
 10
-19167.8655701386
 20
-11605.1900274731
 10
-18827.5561555392
 20
-11607.1314829761
 10
-18827.5561555392
 20
-11607.1314829761
 10
-18817.8488780241
 20
-11617.6708128496
  0
LWPOLYLINE
  5
7B
330
1F
100
AcDbEntity
  8
0
  6
Continuous
 62
     7
100
AcDbPolyline
 90
       30
 70
   128
 43
0.0
 10
-17686.7980957031
 20
-11607.1314829761
 10
-17680.4333040452
 20
-11610.1823416237
 10
-17675.1636391084
 20
-11615.1746557743
 10
-17671.2807281024
 20
-11622.3857762141
 10
-17668.507220241
 20
-11631.2610013707
 10
-17668.507220241
 20
-11631.2610013707
 10
-17668.507220241
 20
-11665.3751480665
 10
-17668.507220241
 20
-11665.3751480665
 10
-17668.507220241
 20
-13046.5820630665
 10
-17668.507220241
 20
-13046.5820630665
 10
-17673.7768851777
 20
-13064.0551625936
 10
-17684.0388642651
 20
-13076.5359479701
 10
-17684.0388642651
 20
-13076.5359479701
 10
-17693.7461417801
 20
-13078.4774034731
 10
-17693.7461417801
 20
-13078.4774034731
 10
-18360.2200808855
 20
-13078.4774034731
 10
-18360.2200808855
 20
-13078.4774034731
 10
-18371.8688139036
 20
-13067.9380735996
 10
-18378.5252327711
 20
-13052.4064295755
 10
-18378.5252327711
 20
-13052.4064295755
 10
-18378.5252327711
 20
-13012.4679163707
 10
-18378.5252327711
 20
-13012.4679163707
 10
-18378.5252327711
 20
-11633.2024568737
 10
-18378.5252327711
 20
-11633.2024568737
 10
-18375.4743741235
 20
-11624.0498809309
 10
-18370.4820599729
 20
-11616.2840589189
 10
-18363.5482903193
 20
-11609.9049908376
 10
-18354.6730651626
 20
-11605.1900274731
 10
-18354.6730651626
 20
-11605.1900274731
 10
-17686.8123721265
 20
-11607.1314829761
  0
LWPOLYLINE
  5
7C
330
1F
100
AcDbEntity
  8
0
  6
Continuous
 62
     7
100
AcDbPolyline
 90
        8
 70
   128
 43
0.0
 10
-17721.7559814453
 20
-13007.4756022201
 10
-17721.7585711807
 20
-11676.1918287261
 10
-17721.7585711807
 20
-11676.1918287261
 10
-18325.2738818313
 20
-11676.1918287261
 10
-18325.2738818313
 20
-11676.1918287261
 10
-18325.2738818313
 20
-13007.4756022201
 10
-18325.2738818313
 20
-13007.4756022201
 10
-17721.7585711807
 20
-13007.4756022201
  0
LWPOLYLINE
  5
7D
330
1F
100
AcDbEntity
  8
0
  6
Continuous
 62
     7
100
AcDbPolyline
 90
       41
 70
   128
 43
0.0
 10
-17357.3150634766
 20
-11616.2840589189
 10
-17353.7140779669
 20
-11623.4951793586
 10
-17350.9405701054
 20
-11634.3118600183
 10
-17349.5538161747
 20
-11648.4567501116
 10
-17348.9991146024
 20
-11665.9298496388
 10
-17348.9991146024
 20
-11665.9298496388
 10
-17348.9991146024
 20
-13007.4756022201
 10
-17348.9991146024
 20
-13007.4756022201
 10
-16713.311112759
 20
-13007.4756022201
 10
-16713.311112759
 20
-13007.4756022201
 10
-16706.6546938916
 20
-13009.1397069369
 10
-16701.1076781687
 20
-13013.022617943
 10
-16696.6700655904
 20
-13018.5696336659
 10
-16693.3418561566
 20
-13026.0581048918
 10
-16693.3418561566
 20
-13026.0581048918
 10
-16690.290997509
 20
-13034.6559792622
 10
-16689.1815943645
 20
-13042.9765028466
 10
-16689.1815943645
 20
-13042.9765028466
 10
-16690.8456990813
 20
-13054.9025866508
 10
-16695.5606624458
 20
-13066.828670455
 10
-16699.4435734518
 20
-13071.8209846056
 10
-16705.2679399608
 20
-13075.4265448255
 10
-16712.4790604006
 20
-13077.6453511147
 10
-16721.6316363434
 20
-13078.4774034731
 10
-16721.6316363434
 20
-13078.4774034731
 10
-17383.9453136566
 20
-13078.4774034731
 10
-17383.9453136566
 20
-13078.4774034731
 10
-17395.5940466747
 20
-13067.9380735996
 10
-17402.2504655422
 20
-13052.4064295755
 10
-17402.2504655422
 20
-13052.4064295755
 10
-17402.2504655422
 20
-13012.4679163707
 10
-17402.2504655422
 20
-13012.4679163707
 10
-17402.2504655422
 20
-11633.2024568737
 10
-17402.2504655422
 20
-11633.2024568737
 10
-17398.9222561084
 20
-11622.3857762141
 10
-17394.207292744
 20
-11614.0652526297
 10
-17388.1055754488
 20
-11608.5182369068
 10
-17380.6171042229
 20
-11605.1900274731
 10
-17380.6171042229
 20
-11605.1900274731
 10
-17367.0269157018
 20
-11607.9635353345
 10
-17357.3196381867
 20
-11616.2840589189
  0
LWPOLYLINE
  5
7E
330
1F
100
AcDbEntity
  8
0
  6
Continuous
 62
     7
100
AcDbPolyline
 90
       63
 70
   128
 43
0.0
 10
-16060.1348876953
 20
-11606.85413219
 10
-16052.6615401627
 20
-11609.9049908376
 10
-16046.8371736536
 20
-11615.1746557743
 10
-16042.6769118614
 20
-11623.4951793586
 10
-16040.4581055723
 20
-11634.0345092321
 10
-16040.4581055723
 20
-11634.0345092321
 10
-16041.844859503
 20
-11650.9529071869
 10
-16046.5598228675
 20
-11664.2657449219
 10
-16046.5598228675
 20
-11664.2657449219
 10
-16052.9388909488
 20
-11669.5354098586
 10
-16061.2594145331
 20
-11673.1409700785
 10
-16072.3534459789
 20
-11675.3597763677
 10
-16085.3889329277
 20
-11676.1918287261
 10
-16085.3889329277
 20
-11676.1918287261
 10
-16212.9702945542
 20
-11676.1918287261
 10
-16212.9702945542
 20
-11676.1918287261
 10
-16212.9702945542
 20
-13007.4756022201
 10
-16212.9702945542
 20
-13007.4756022201
 10
-16061.5367653193
 20
-13007.4756022201
 10
-16061.5367653193
 20
-13007.4756022201
 10
-16053.4935925211
 20
-13011.9132147984
 10
-16047.1145244398
 20
-13018.2922828797
 10
-16042.9542626476
 20
-13026.6128064641
 10
-16040.4581055723
 20
-13036.8747855514
 10
-16040.4581055723
 20
-13036.8747855514
 10
-16042.1222102892
 20
-13054.0705342924
 10
-16046.8371736536
 20
-13067.3833720273
 10
-16050.7200846596
 20
-13072.0983353918
 10
-16056.5444511687
 20
-13075.7038956116
 10
-16063.7555716084
 20
-13077.6453511147
 10
-16072.9081475512
 20
-13078.4774034731
 10
-16072.9081475512
 20
-13078.4774034731
 10
-16406.283792497
 20
-13078.4774034731
 10
-16406.283792497
 20
-13078.4774034731
 10
-16413.7722637229
 20
-13074.0397908948
 10
-16419.5966302319
 20
-13067.9380735996
 10
-16423.7568920241
 20
-13059.6175500153
 10
-16425.9756983133
 20
-13049.6329217141
 10
-16425.9756983133
 20
-13049.6329217141
 10
-16424.0342428102
 20
-13031.6051206147
 10
-16418.4872270873
 20
-13018.5696336659
 10
-16413.4949129367
 20
-13013.5773195153
 10
-16406.0064417108
 20
-13010.2491100815
 10
-16396.2991641958
 20
-13008.0303037924
 10
-16384.3730803916
 20
-13007.4756022201
 10
-16384.3730803916
 20
-13007.4756022201
 10
-16266.221645494
 20
-13007.4756022201
 10
-16266.221645494
 20
-13007.4756022201
 10
-16266.221645494
 20
-11676.1918287261
 10
-16266.221645494
 20
-11676.1918287261
 10
-16405.4517401386
 20
-11676.1918287261
 10
-16405.4517401386
 20
-11676.1918287261
 10
-16413.4949129367
 20
-11672.3089177201
 10
-16419.3192794458
 20
-11666.2072004249
 10
-16423.7568920241
 20
-11657.6093260544
 10
-16425.9756983133
 20
-11646.7926453948
 10
-16425.9756983133
 20
-11646.7926453948
 10
-16424.3115935964
 20
-11629.0421950815
 10
-16419.0419286596
 20
-11617.3934620635
 10
-16410.9987558614
 20
-11609.9049908376
 10
-16401.8461799187
 20
-11605.1900274731
 10
-16401.8461799187
 20
-11605.1900274731
 10
-16060.1500113886
 20
-11606.85413219
  0
LWPOLYLINE
  5
7F
330
1F
100
AcDbEntity
  8
0
  6
Continuous
 62
     7
100
AcDbPolyline
 90
       49
 70
   128
 43
0.0
 10
-15232.2540283203
 20
-11617.1161112773
 10
-15061.9645320542
 20
-11861.1848030845
 10
-15061.9645320542
 20
-11861.1848030845
 10
-15059.1910241928
 20
-11878.9352533978
 10
-15059.1910241928
 20
-11878.9352533978
 10
-15064.7380399157
 20
-12832.4672561629
 10
-15064.7380399157
 20
-12832.4672561629
 10
-15237.8049304699
 20
-13076.5359479701
 10
-15237.8049304699
 20
-13076.5359479701
 10
-15251.6724697771
 20
-13078.4774034731
 10
-15251.6724697771
 20
-13078.4774034731
 10
-15750.9038848374
 20
-13078.4774034731
 10
-15750.9038848374
 20
-13078.4774034731
 10
-15758.9470576355
 20
-13073.2077385363
 10
-15764.4940733584
 20
-13065.4419165243
 10
-15768.0996335783
 20
-13055.4572882231
 10
-15769.2090367229
 20
-13042.9765028466
 10
-15769.2090367229
 20
-13042.9765028466
 10
-15766.9902304337
 20
-13027.9995603948
 10
-15760.3338115663
 20
-13016.905528949
 10
-15754.7867958434
 20
-13012.7452671568
 10
-15747.5756754036
 20
-13009.6944085092
 10
-15738.4230994608
 20
-13008.0303037924
 10
-15727.6064188012
 20
-13007.4756022201
 10
-15727.6064188012
 20
-13007.4756022201
 10
-15609.4549839036
 20
-13007.4756022201
 10
-15609.4549839036
 20
-13007.4756022201
 10
-15609.4549839036
 20
-11676.1918287261
 10
-15609.4549839036
 20
-11676.1918287261
 10
-15748.6850785482
 20
-11676.1918287261
 10
-15748.6850785482
 20
-11676.1918287261
 10
-15756.7282513464
 20
-11672.3089177201
 10
-15762.5526178554
 20
-11666.2072004249
 10
-15766.9902304337
 20
-11657.6093260544
 10
-15769.2090367229
 20
-11646.7926453948
 10
-15769.2090367229
 20
-11646.7926453948
 10
-15767.544932006
 20
-11629.5968966538
 10
-15762.8299686416
 20
-11616.561409705
 10
-15758.6697068494
 20
-11611.5690955544
 10
-15753.1226911265
 20
-11607.9635353345
 10
-15745.6342199006
 20
-11606.0220798315
 10
-15736.758994744
 20
-11605.1900274731
 10
-15736.758994744
 20
-11605.1900274731
 10
-15721.504701506
 20
-11605.1900274731
 10
-15721.504701506
 20
-11605.1900274731
 10
-15254.7233284247
 20
-11605.1900274731
 10
-15254.7233284247
 20
-11605.1900274731
 10
-15241.4104906898
 20
-11608.2408861207
 10
-15232.257914747
 20
-11617.1161112773
  0
LWPOLYLINE
  5
80
330
1F
100
AcDbEntity
  8
0
  6
Continuous
 62
     7
100
AcDbPolyline
 90
       12
 70
   128
 43
0.0
 10
-15112.4420166016
 20
-11886.4237246237
 10
-15262.2117996506
 20
-11676.1918287261
 10
-15262.2117996506
 20
-11676.1918287261
 10
-15556.2036329639
 20
-11676.1918287261
 10
-15556.2036329639
 20
-11676.1918287261
 10
-15556.2036329639
 20
-13007.4756022201
 10
-15556.2036329639
 20
-13007.4756022201
 10
-15262.2117996506
 20
-13007.4756022201
 10
-15262.2117996506
 20
-13007.4756022201
 10
-15112.4423751325
 20
-12795.0249000333
 10
-15112.4423751325
 20
-12795.0249000333
 10
-15112.4423751325
 20
-11886.4237246237
  0
LWPOLYLINE
  5
81
330
1F
100
AcDbEntity
  8
0
  6
Continuous
 62
     7
100
AcDbPolyline
 90
       69
 70
   128
 43
0.0
 10
-14737.4572753906
 20
-11623.4951793586
 10
-14434.8744045813
 20
-12925.1024187351
 10
-14434.8744045813
 20
-12925.1024187351
 10
-14295.6443099367
 20
-12336.8414013225
 10
-14295.6443099367
 20
-12336.8414013225
 10
-14290.9293465723
 20
-12327.9661761659
 10
-14284.8276292771
 20
-12321.5871080845
 10
-14278.1712104096
 20
-12317.9815478647
 10
-14270.1280376114
 20
-12316.5947939339
 10
-14270.1280376114
 20
-12316.5947939339
 10
-14261.530163241
 20
-12317.9815478647
 10
-14254.0416920151
 20
-12322.1418096568
 10
-14247.9399747199
 20
-12329.0755793104
 10
-14242.9476605693
 20
-12338.7828568255
 10
-14242.9476605693
 20
-12338.7828568255
 10
-14105.1043198554
 20
-12925.1024187351
 10
-14105.1043198554
 20
-12925.1024187351
 10
-14032.7157646717
 20
-12617.5203969008
 10
-14032.7157646717
 20
-12617.5203969008
 10
-13801.127858241
 20
-11621.5537238556
 10
-13801.127858241
 20
-11621.5537238556
 10
-13792.8073346566
 20
-11611.2917447683
 10
-13782.5453555693
 20
-11605.1900274731
 10
-13782.5453555693
 20
-11605.1900274731
 10
-13767.8457639036
 20
-11607.6861845484
 10
-13757.029083244
 20
-11614.619954202
 10
-13749.5406120181
 20
-11626.5460380062
 10
-13745.657701012
 20
-11643.1870851749
 10
-13745.657701012
 20
-11643.1870851749
 10
-13751.2047167349
 20
-11669.2580590725
 10
-13751.2047167349
 20
-11669.2580590725
 10
-14078.2012935994
 20
-13056.5666913677
 10
-14078.2012935994
 20
-13056.5666913677
 10
-14087.076518756
 20
-13070.9889322472
 10
-14099.5573041325
 20
-13078.4774034731
 10
-14099.5573041325
 20
-13078.4774034731
 10
-14112.3154402952
 20
-13077.0906495424
 10
-14122.3000685964
 20
-13072.6530369641
 10
-14122.3000685964
 20
-13072.6530369641
 10
-14133.6714508283
 20
-13055.1799374369
 10
-14133.6714508283
 20
-13055.1799374369
 10
-14268.4639328946
 20
-12494.3766478526
 10
-14268.4639328946
 20
-12494.3766478526
 10
-14271.5147915422
 20
-12498.2595588586
 10
-14271.5147915422
 20
-12498.2595588586
 10
-14407.9713783253
 20
-13057.12139294
 10
-14407.9713783253
 20
-13057.12139294
 10
-14416.2919019096
 20
-13071.2662830333
 10
-14427.6632841416
 20
-13078.4774034731
 10
-14427.6632841416
 20
-13078.4774034731
 10
-14441.5308234488
 20
-13076.8132987562
 10
-14451.7928025361
 20
-13072.3756861779
 10
-14451.7928025361
 20
-13072.3756861779
 10
-14461.7774308374
 20
-13054.3478850785
 10
-14461.7774308374
 20
-13054.3478850785
 10
-14792.934269494
 20
-11647.3473469671
 10
-14792.934269494
 20
-11647.3473469671
 10
-14792.1022171355
 20
-11635.4212631629
 10
-14789.3287092741
 20
-11625.1592840755
 10
-14784.8910966958
 20
-11617.3934620635
 10
-14778.7893794006
 20
-11611.2917447683
 10
-14778.7893794006
 20
-11611.2917447683
 10
-14770.4688558163
 20
-11606.5767814038
 10
-14762.9803845904
 20
-11605.1900274731
 10
-14762.9803845904
 20
-11605.1900274731
 10
-14754.9372117922
 20
-11606.2994306177
 10
-14748.0034421386
 20
-11609.6276400514
 10
-14742.1790756295
 20
-11615.4520065604
 10
-14737.4641122651
 20
-11623.4951793586
  0
LWPOLYLINE
  5
82
330
1F
100
AcDbEntity
  8
0
  6
Continuous
 62
     7
100
AcDbPolyline
 90
       30
 70
   128
 43
0.0
 10
-12787.6815795898
 20
-11607.1314829761
 10
-12781.3090175874
 20
-11610.1823416237
 10
-12776.0393526506
 20
-11615.1746557743
 10
-12772.1564416446
 20
-11622.3857762141
 10
-12769.3829337831
 20
-11631.2610013707
 10
-12769.3829337831
 20
-11631.2610013707
 10
-12769.3829337831
 20
-11665.3751480665
 10
-12769.3829337831
 20
-11665.3751480665
 10
-12769.3829337831
 20
-13046.5820630665
 10
-12769.3829337831
 20
-13046.5820630665
 10
-12774.6525987199
 20
-13064.0551625936
 10
-12784.9145778072
 20
-13076.5359479701
 10
-12784.9145778072
 20
-13076.5359479701
 10
-12794.6218553223
 20
-13078.4774034731
 10
-12794.6218553223
 20
-13078.4774034731
 10
-13461.0957944277
 20
-13078.4774034731
 10
-13461.0957944277
 20
-13078.4774034731
 10
-13472.7445274458
 20
-13067.9380735996
 10
-13479.4009463133
 20
-13052.4064295755
 10
-13479.4009463133
 20
-13052.4064295755
 10
-13479.4009463133
 20
-13012.4679163707
 10
-13479.4009463133
 20
-13012.4679163707
 10
-13479.4009463133
 20
-11633.2024568737
 10
-13479.4009463133
 20
-11633.2024568737
 10
-13476.3500876657
 20
-11624.0498809309
 10
-13471.3577735151
 20
-11616.2840589189
 10
-13464.4240038614
 20
-11609.9049908376
 10
-13455.5487787048
 20
-11605.1900274731
 10
-13455.5487787048
 20
-11605.1900274731
 10
-12787.6880856687
 20
-11607.1314829761
  0
LWPOLYLINE
  5
83
330
1F
100
AcDbEntity
  8
0
  6
Continuous
 62
     7
100
AcDbPolyline
 90
        8
 70
   128
 43
0.0
 10
-12822.6318359375
 20
-13007.4756022201
 10
-12822.6342847229
 20
-11676.1918287261
 10
-12822.6342847229
 20
-11676.1918287261
 10
-13426.1495953735
 20
-11676.1918287261
 10
-13426.1495953735
 20
-11676.1918287261
 10
-13426.1495953735
 20
-13007.4756022201
 10
-13426.1495953735
 20
-13007.4756022201
 10
-12822.6342847229
 20
-13007.4756022201
  0
LWPOLYLINE
  5
84
330
1F
100
AcDbEntity
  8
0
  6
Continuous
 62
     7
100
AcDbPolyline
 90
       70
 70
   128
 43
0.0
 10
-11966.1712646484
 20
-11617.3934620635
 10
-11795.8816744157
 20
-11867.2865203797
 10
-11795.8816744157
 20
-11867.2865203797
 10
-11793.1081665542
 20
-11885.8690230514
 10
-11793.1081665542
 20
-11885.8690230514
 10
-11793.1081665542
 20
-12133.5432750785
 10
-11793.1081665542
 20
-12133.5432750785
 10
-11795.8816744157
 20
-12147.965515958
 10
-11795.8816744157
 20
-12147.965515958
 10
-11970.3353189006
 20
-12397.8585742743
 10
-11970.3353189006
 20
-12397.8585742743
 10
-11983.0934550633
 20
-12403.9602915695
 10
-11983.0934550633
 20
-12403.9602915695
 10
-12237.701476744
 20
-12403.9602915695
 10
-12237.701476744
 20
-12403.9602915695
 10
-11797.2684283464
 20
-13021.3431415273
 10
-11797.2684283464
 20
-13021.3431415273
 10
-11794.2175696988
 20
-13035.4880316207
 10
-11793.1081665542
 20
-13042.9765028466
 10
-11793.1081665542
 20
-13042.9765028466
 10
-11793.1081665542
 20
-13045.1953091357
 10
-11793.1081665542
 20
-13048.2461677833
 10
-11793.1081665542
 20
-13048.2461677833
 10
-11788.6705539759
 20
-13049.9102725002
 10
-11787.006449259
 20
-13051.2970264309
 10
-11788.6705539759
 20
-13052.6837803616
 10
-11793.1081665542
 20
-13053.5158327201
 10
-11793.1081665542
 20
-13053.5158327201
 10
-11796.436375988
 20
-13062.3910578767
 10
-11800.5966377801
 20
-13069.6021783165
 10
-11805.8663027169
 20
-13074.8718432532
 10
-11811.6906692259
 20
-13078.4774034731
 10
-11811.6906692259
 20
-13078.4774034731
 10
-11821.397946741
 20
-13078.2000526869
 10
-11829.163768753
 20
-13077.0906495424
 10
-11834.7107844759
 20
-13075.1491940394
 10
-11838.5936954819
 20
-13072.6530369641
 10
-11838.5936954819
 20
-13072.6530369641
 10
-12327.5631314548
 20
-12403.9602915695
 10
-12327.5631314548
 20
-12403.9602915695
 10
-12449.8748281446
 20
-12403.9602915695
 10
-12449.8748281446
 20
-12403.9602915695
 10
-12449.8748281446
 20
-13047.4141154249
 10
-12449.8748281446
 20
-13047.4141154249
 10
-12454.0350899367
 20
-13061.8363563044
 10
-12463.7423674518
 20
-13074.5944924671
 10
-12463.7423674518
 20
-13074.5944924671
 10
-12468.7346816024
 20
-13077.3680003285
 10
-12476.5005036145
 20
-13078.4774034731
 10
-12476.5005036145
 20
-13078.4774034731
 10
-12487.8718858464
 20
-13076.2585971839
 10
-12496.1924094307
 20
-13069.6021783165
 10
-12499.2432680783
 20
-13064.0551625936
 10
-12501.4620743675
 20
-13056.2893405815
 10
-12502.571477512
 20
-13046.3047122803
 10
-12503.1261790843
 20
-13034.3786284761
 10
-12503.1261790843
 20
-13034.3786284761
 10
-12503.1261790843
 20
-11635.1439123767
 10
-12503.1261790843
 20
-11635.1439123767
 10
-12500.3526712229
 20
-11625.9913364339
 10
-12496.4697602169
 20
-11618.502865208
 10
-12491.2000952801
 20
-11612.9558494851
 10
-12484.8210271988
 20
-11609.0729384791
 10
-12484.8210271988
 20
-11609.0729384791
 10
-12455.4218438675
 20
-11607.1314829761
 10
-12455.4218438675
 20
-11607.1314829761
 10
-11988.6404707861
 20
-11605.1900274731
 10
-11988.6404707861
 20
-11605.1900274731
 10
-11975.3276330512
 20
-11608.2408861207
 10
-11966.1750571084
 20
-11617.3934620635
  0
LWPOLYLINE
  5
85
330
1F
100
AcDbEntity
  8
0
  6
Continuous
 62
     7
100
AcDbPolyline
 90
       12
 70
   128
 43
0.0
 10
-11846.3592529297
 20
-11898.0724576418
 10
-11993.9101357229
 20
-11676.1918287261
 10
-11993.9101357229
 20
-11676.1918287261
 10
-12449.8748281446
 20
-11676.1918287261
 10
-12449.8748281446
 20
-11676.1918287261
 10
-12449.8748281446
 20
-12332.9584903165
 10
-12449.8748281446
 20
-12332.9584903165
 10
-11995.5742404398
 20
-12332.9584903165
 10
-11995.5742404398
 20
-12332.9584903165
 10
-11846.359517494
 20
-12109.1364058978
 10
-11846.359517494
 20
-12109.1364058978
 10
-11846.359517494
 20
-11898.0724576418
  0
LWPOLYLINE
  5
86
330
1F
100
AcDbEntity
  8
0
  6
Continuous
 62
     7
100
AcDbPolyline
 90
       72
 70
   128
 43
0.0
 10
-10823.7609863281
 20
-11617.3934620635
 10
-10819.3295564006
 20
-11624.3272317171
 10
-10816.278697753
 20
-11632.9251060876
 10
-10814.33724225
 20
-11643.1870851749
 10
-10813.7825406777
 20
-11655.3905197653
 10
-10813.7825406777
 20
-11655.3905197653
 10
-10817.9428024699
 20
-11671.4768653616
 10
-10817.9428024699
 20
-11671.4768653616
 10
-11291.1032436325
 20
-12345.1619249068
 10
-11291.1032436325
 20
-12345.1619249068
 10
-10817.9428024699
 20
-13020.788439955
 10
-10817.9428024699
 20
-13020.788439955
 10
-10814.8919438223
 20
-13035.4880316207
 10
-10813.7825406777
 20
-13042.9765028466
 10
-10813.7825406777
 20
-13042.9765028466
 10
-10814.0598914639
 20
-13049.0782201418
 10
-10815.1692946084
 20
-13053.5158327201
 10
-10815.1692946084
 20
-13053.5158327201
 10
-10818.4975040422
 20
-13062.3910578767
 10
-10822.6577658343
 20
-13069.6021783165
 10
-10827.9274307711
 20
-13074.8718432532
 10
-10833.7517972801
 20
-13078.4774034731
 10
-10833.7517972801
 20
-13078.4774034731
 10
-10843.4590747952
 20
-13078.2000526869
 10
-10851.2248968072
 20
-13077.0906495424
 10
-10857.0492633163
 20
-13075.1491940394
 10
-10860.9321743223
 20
-13072.6530369641
 10
-10860.9321743223
 20
-13072.6530369641
 10
-11351.0110134398
 20
-12403.9602915695
 10
-11351.0110134398
 20
-12403.9602915695
 10
-11473.6000609157
 20
-12403.9602915695
 10
-11473.6000609157
 20
-12403.9602915695
 10
-11473.6000609157
 20
-13047.4141154249
 10
-11473.6000609157
 20
-13047.4141154249
 10
-11477.7603227078
 20
-13061.8363563044
 10
-11487.4676002229
 20
-13074.5944924671
 10
-11487.4676002229
 20
-13074.5944924671
 10
-11492.4599143735
 20
-13077.3680003285
 10
-11500.2257363855
 20
-13078.4774034731
 10
-11500.2257363855
 20
-13078.4774034731
 10
-11511.5971186175
 20
-13076.2585971839
 10
-11519.9176422018
 20
-13069.6021783165
 10
-11522.9685008494
 20
-13064.0551625936
 10
-11525.1873071386
 20
-13056.2893405815
 10
-11526.2967102831
 20
-13046.3047122803
 10
-11526.8514118554
 20
-13034.3786284761
 10
-11526.8514118554
 20
-13034.3786284761
 10
-11526.8514118554
 20
-11633.2024568737
 10
-11526.8514118554
 20
-11633.2024568737
 10
-11524.077903994
 20
-11622.3857762141
 10
-11519.0855898434
 20
-11614.0652526297
 10
-11512.706521762
 20
-11608.5182369068
 10
-11504.1086473916
 20
-11605.1900274731
 10
-11504.1086473916
 20
-11605.1900274731
 10
-11491.3505112289
 20
-11607.9635353345
 10
-11481.9205845
 20
-11616.8387604912
 10
-11478.3150242801
 20
-11624.3272317171
 10
-11475.5415164187
 20
-11635.4212631629
 10
-11474.154762488
 20
-11649.8435040424
 10
-11473.6000609157
 20
-11668.1486559279
 10
-11473.6000609157
 20
-11668.1486559279
 10
-11473.6000609157
 20
-12332.9584903165
 10
-11473.6000609157
 20
-12332.9584903165
 10
-11351.0110134398
 20
-12332.9584903165
 10
-11351.0110134398
 20
-12332.9584903165
 10
-10857.8813156747
 20
-11611.5690955544
 10
-10857.8813156747
 20
-11611.5690955544
 10
-10851.7795983795
 20
-11606.85413219
 10
-10845.123179512
 20
-11605.1900274731
 10
-10845.123179512
 20
-11605.1900274731
 10
-10834.0291480663
 20
-11608.2408861207
 10
-10823.7671689789
 20
-11617.3934620635
  0
LWPOLYLINE
  5
87
330
1F
100
AcDbEntity
  8
0
  6
Continuous
 62
     7
100
AcDbPolyline
 90
       85
 70
   128
 43
0.0
 10
-10013.6184692383
 20
-11617.6708128496
 10
-9843.3321399578
 20
-11872.2788345303
 10
-9843.3321399578
 20
-11872.2788345303
 10
-9841.1133336687
 20
-11881.1540596869
 10
-9840.5586320964
 20
-11890.861337202
 10
-9840.5586320964
 20
-11890.861337202
 10
-9841.1133336687
 20
-11897.5177560695
 10
-9843.3321399578
 20
-11905.2835780815
 10
-9843.3321399578
 20
-11905.2835780815
 10
-9846.3829986054
 20
-11916.3776095273
 10
-9851.6526635422
 20
-11924.9754838978
 10
-9859.1411347681
 20
-11931.077201193
 10
-9868.571061497
 20
-11934.4054106267
 10
-9868.571061497
 20
-11934.4054106267
 10
-9882.1612500181
 20
-11927.7489917592
 10
-9892.4232291054
 20
-11916.6549603135
 10
-9892.4232291054
 20
-11916.6549603135
 10
-10044.4114599127
 20
-11676.1918287261
 10
-10044.4114599127
 20
-11676.1918287261
 10
-10346.4464660241
 20
-11676.1918287261
 10
-10346.4464660241
 20
-11676.1918287261
 10
-10478.4654402289
 20
-11867.841221952
 10
-10478.4654402289
 20
-11867.841221952
 10
-9844.7188938886
 20
-12783.9308685875
 10
-9844.7188938886
 20
-12783.9308685875
 10
-9841.668035241
 20
-12791.4193398135
 10
-9840.5586320964
 20
-12801.9586696869
 10
-9840.5586320964
 20
-12801.9586696869
 10
-9840.5586320964
 20
-12806.1189314791
 10
-9840.5586320964
 20
-12810.0018424851
 10
-9840.5586320964
 20
-12810.0018424851
 10
-9836.1210195181
 20
-12812.7753503466
 10
-9834.4569148012
 20
-12814.9941566357
 10
-9836.1210195181
 20
-12816.9356121388
 10
-9840.5586320964
 20
-12818.3223660695
 10
-9840.5586320964
 20
-12818.3223660695
 10
-9847.49240175
 20
-12830.2484498737
 10
-9847.49240175
 20
-12830.2484498737
 10
-10018.0631352289
 20
-13076.5359479701
 10
-10018.0631352289
 20
-13076.5359479701
 10
-10032.2080253223
 20
-13078.4774034731
 10
-10032.2080253223
 20
-13078.4774034731
 10
-10368.9118797018
 20
-13078.4774034731
 10
-10368.9118797018
 20
-13078.4774034731
 10
-10377.2324032861
 20
-13070.9889322472
 10
-10377.2324032861
 20
-13070.9889322472
 10
-10547.8031367651
 20
-12841.6198321056
 10
-10547.8031367651
 20
-12841.6198321056
 10
-10549.7445922681
 20
-12831.0805022321
 10
-10550.5766446265
 20
-12822.7599786478
 10
-10550.5766446265
 20
-12822.7599786478
 10
-10550.2992938404
 20
-12814.9941566357
 10
-10549.1898906958
 20
-12809.724491699
 10
-10549.1898906958
 20
-12809.724491699
 10
-10544.7522781175
 20
-12799.7398633978
 10
-10538.9279116084
 20
-12791.9740413857
 10
-10531.4394403825
 20
-12786.704376449
 10
-10522.2868644398
 20
-12783.6535178014
 10
-10522.2868644398
 20
-12783.6535178014
 10
-10509.251377491
 20
-12787.5364288074
 10
-10498.4346968313
 20
-12799.1851618255
 10
-10498.4346968313
 20
-12799.1851618255
 10
-10345.8917644518
 20
-13007.4756022201
 10
-10345.8917644518
 20
-13007.4756022201
 10
-10042.1926536235
 20
-13007.4756022201
 10
-10042.1926536235
 20
-13007.4756022201
 10
-9909.3416270602
 20
-12815.8262089942
 10
-9909.3416270602
 20
-12815.8262089942
 10
-10547.8031367651
 20
-11901.6780178616
 10
-10547.8031367651
 20
-11901.6780178616
 10
-10549.7445922681
 20
-11893.6348450635
 10
-10550.5766446265
 20
-11881.7087612592
 10
-10550.5766446265
 20
-11881.7087612592
 10
-10550.2992938404
 20
-11874.2202900333
 10
-10549.1898906958
 20
-11867.5638711659
 10
-10549.1898906958
 20
-11867.5638711659
 10
-10543.6428749729
 20
-11853.4189810725
 10
-10543.6428749729
 20
-11853.4189810725
 10
-10371.9627383494
 20
-11609.3502892653
 10
-10371.9627383494
 20
-11609.3502892653
 10
-10363.6422147651
 20
-11605.1900274731
 10
-10363.6422147651
 20
-11605.1900274731
 10
-10023.3328001657
 20
-11607.1314829761
 10
-10023.3328001657
 20
-11607.1314829761
 10
-10013.6255226506
 20
-11617.6708128496
  0
LWPOLYLINE
  5
88
330
1F
100
AcDbEntity
  8
0
  6
Continuous
 62
     7
100
AcDbPolyline
 90
       64
 70
   128
 43
0.0
 10
-7904.6478271484
 20
-11606.85413219
 10
-7897.1616735813
 20
-11609.9049908376
 10
-7891.3373070723
 20
-11615.1746557743
 10
-7887.1770452801
 20
-11623.4951793586
 10
-7884.958238991
 20
-11634.0345092321
 10
-7884.958238991
 20
-11634.0345092321
 10
-7886.899694494
 20
-11652.0623103315
 10
-7893.0014117892
 20
-11665.3751480665
 10
-7897.9937259398
 20
-11670.0901114309
 10
-7905.4821971657
 20
-11673.4183208647
 10
-7915.4668254669
 20
-11675.6371271538
 10
-7927.6702600572
 20
-11676.1918287261
 10
-7927.6702600572
 20
-11676.1918287261
 10
-8544.7757592289
 20
-11676.1918287261
 10
-8544.7757592289
 20
-11676.1918287261
 10
-8544.7757592289
 20
-12332.9584903165
 10
-8544.7757592289
 20
-12332.9584903165
 10
-8235.5296326777
 20
-12332.9584903165
 10
-8235.5296326777
 20
-12332.9584903165
 10
-8225.5450043765
 20
-12338.2281552532
 10
-8218.3338839367
 20
-12345.439275693
 10
-8213.8962713584
 20
-12355.146553208
 10
-8212.5095174277
 20
-12366.7952862261
 10
-8212.5095174277
 20
-12366.7952862261
 10
-8213.6189205723
 20
-12379.5534223888
 10
-8217.5018315783
 20
-12390.6474538345
 10
-8221.1073917982
 20
-12395.0850664129
 10
-8226.6544075211
 20
-12398.9679774189
 10
-8234.4202295331
 20
-12401.7414852803
 10
-8244.1275070482
 20
-12403.9602915695
 10
-8244.1275070482
 20
-12403.9602915695
 10
-8544.7757592289
 20
-12403.9602915695
 10
-8544.7757592289
 20
-12403.9602915695
 10
-8544.7757592289
 20
-13007.4756022201
 10
-8544.7757592289
 20
-13007.4756022201
 10
-7909.0877573855
 20
-13007.4756022201
 10
-7909.0877573855
 20
-13007.4756022201
 10
-7898.548427512
 20
-13011.6358640123
 10
-7891.0599562861
 20
-13018.846984452
 10
-7886.3449929217
 20
-13029.3863143255
 10
-7884.958238991
 20
-13042.9765028466
 10
-7884.958238991
 20
-13042.9765028466
 10
-7886.6223437078
 20
-13054.9025866508
 10
-7891.3373070723
 20
-13066.828670455
 10
-7895.2202180783
 20
-13071.8209846056
 10
-7901.0445845874
 20
-13075.4265448255
 10
-7908.2557050271
 20
-13077.6453511147
 10
-7917.4082809699
 20
-13078.4774034731
 10
-7917.4082809699
 20
-13078.4774034731
 10
-8579.7219582831
 20
-13078.4774034731
 10
-8579.7219582831
 20
-13078.4774034731
 10
-8591.3706913012
 20
-13067.9380735996
 10
-8598.0271101687
 20
-13052.4064295755
 10
-8598.0271101687
 20
-13052.4064295755
 10
-8598.0271101687
 20
-13012.4679163707
 10
-8598.0271101687
 20
-13012.4679163707
 10
-8598.0271101687
 20
-11633.2024568737
 10
-8598.0271101687
 20
-11633.2024568737
 10
-8594.9762515211
 20
-11624.0498809309
 10
-8589.9839373705
 20
-11616.2840589189
 10
-8582.7728169307
 20
-11609.9049908376
 10
-8573.8975917741
 20
-11605.1900274731
 10
-8573.8975917741
 20
-11605.1900274731
 10
-7904.6501448072
 20
-11606.85413219
  0
LWPOLYLINE
  5
89
330
1F
100
AcDbEntity
  8
0
  6
Continuous
 62
     7
100
AcDbPolyline
 90
       55
 70
   128
 43
0.0
 10
-6919.4984436035
 20
-11616.2840589189
 10
-6916.171942988
 20
-11623.4951793586
 10
-6913.6757859127
 20
-11634.0345092321
 10
-6912.2890319819
 20
-11647.9020485394
 10
-6911.7343304096
 20
-11665.3751480665
 10
-6911.7343304096
 20
-11665.3751480665
 10
-6911.7343304096
 20
-13046.5820630665
 10
-6911.7343304096
 20
-13046.5820630665
 10
-6914.7851890572
 20
-13060.4496023737
 10
-6920.3322047801
 20
-13070.4342306749
 10
-6928.0980267922
 20
-13076.5359479701
 10
-6938.3600058795
 20
-13078.4774034731
 10
-6938.3600058795
 20
-13078.4774034731
 10
-6948.899335753
 20
-13075.9812463978
 10
-6957.4972101235
 20
-13069.0474767442
 10
-6963.0442258464
 20
-13056.2893405815
 10
-6964.9856813494
 20
-13036.5974347653
 10
-6964.9856813494
 20
-13036.5974347653
 10
-6964.9856813494
 20
-12696.8427217382
 10
-6964.9856813494
 20
-12696.8427217382
 10
-7250.102289506
 20
-13076.5359479701
 10
-7250.102289506
 20
-13076.5359479701
 10
-7260.0869178072
 20
-13078.4774034731
 10
-7260.0869178072
 20
-13078.4774034731
 10
-7438.7008240843
 20
-13078.4774034731
 10
-7438.7008240843
 20
-13078.4774034731
 10
-7447.2986984548
 20
-13070.4342306749
 10
-7447.2986984548
 20
-13070.4342306749
 10
-7620.365589009
 20
-12824.1467325785
 10
-7620.365589009
 20
-12824.1467325785
 10
-7621.7523429398
 20
-12803.90012519
 10
-7621.7523429398
 20
-12803.90012519
 10
-7621.7523429398
 20
-12327.1341238074
 10
-7621.7523429398
 20
-12327.1341238074
 10
-7616.2053272169
 20
-12313.2665845002
 10
-7616.2053272169
 20
-12313.2665845002
 10
-7441.4743319458
 20
-12070.5846466237
 10
-7441.4743319458
 20
-12070.5846466237
 10
-7427.3294418524
 20
-12066.7017356177
 10
-7427.3294418524
 20
-12066.7017356177
 10
-7257.3134099458
 20
-12068.9205419068
 10
-7257.3134099458
 20
-12068.9205419068
 10
-7245.9420277139
 20
-12075.022259202
 10
-7245.9420277139
 20
-12075.022259202
 10
-6964.9856813494
 20
-12488.5522813436
 10
-6964.9856813494
 20
-12488.5522813436
 10
-6964.9856813494
 20
-11631.815702943
 10
-6964.9856813494
 20
-11631.815702943
 10
-6961.3801211295
 20
-11621.8310746418
 10
-6956.9425085512
 20
-11613.7879018436
 10
-6951.6728436145
 20
-11608.5182369068
 10
-6945.5711263193
 20
-11605.1900274731
 10
-6945.5711263193
 20
-11605.1900274731
 10
-6929.762131509
 20
-11607.9635353345
 10
-6919.5001524217
 20
-11616.2840589189
  0
LWPOLYLINE
  5
8A
330
1F
100
AcDbEntity
  8
0
  6
Continuous
 62
     7
100
AcDbPolyline
 90
       14
 70
   128
 43
0.0
 10
-6981.9030761719
 20
-12572.5895695454
 10
-7280.3335251958
 20
-12137.7035368707
 10
-7280.3335251958
 20
-12137.7035368707
 10
-7421.5050753434
 20
-12137.7035368707
 10
-7421.5050753434
 20
-12137.7035368707
 10
-7568.500992
 20
-12349.0448359129
 10
-7568.500992
 20
-12349.0448359129
 10
-7568.500992
 20
-12794.1928476749
 10
-7568.500992
 20
-12794.1928476749
 10
-7421.5050753434
 20
-13007.4756022201
 10
-7421.5050753434
 20
-13007.4756022201
 10
-7281.7202791265
 20
-13007.4756022201
 10
-7281.7202791265
 20
-13007.4756022201
 10
-6981.9040793042
 20
-12572.5895695454
  0
LWPOLYLINE
  5
8B
330
1F
100
AcDbEntity
  8
0
  6
Continuous
 62
     7
100
AcDbPolyline
 90
       64
 70
   128
 43
0.0
 10
-6600.8224487305
 20
-12078.0731178496
 10
-6596.9411881355
 20
-12085.2842382894
 10
-6594.4450310602
 20
-12096.100918949
 10
-6592.7809263434
 20
-12110.2458090424
 10
-6592.2262247711
 20
-12127.7189085695
 10
-6592.2262247711
 20
-12127.7189085695
 10
-6592.2262247711
 20
-12798.0757586809
 10
-6592.2262247711
 20
-12798.0757586809
 10
-6444.6756065422
 20
-13007.4756022201
 10
-6444.6756065422
 20
-13007.4756022201
 10
-6302.6720040361
 20
-13007.4756022201
 10
-6302.6720040361
 20
-13007.4756022201
 10
-5988.7109141205
 20
-12560.386134955
 10
-5988.7109141205
 20
-12560.386134955
 10
-5988.7109141205
 20
-12097.2103220936
 10
-5988.7109141205
 20
-12097.2103220936
 10
-5985.937406259
 20
-12086.9483430062
 10
-5981.2224428946
 20
-12078.3504686357
 10
-5975.1207255994
 20
-12071.6940497683
 10
-5967.0775528012
 20
-12066.7017356177
 10
-5967.0775528012
 20
-12066.7017356177
 10
-5955.4288197831
 20
-12069.197892693
 10
-5942.9480344066
 20
-12076.6863639189
 10
-5942.9480344066
 20
-12076.6863639189
 10
-5939.6198249729
 20
-12084.1748351448
 10
-5937.4010186837
 20
-12095.2688665906
 10
-5936.014264753
 20
-12109.4137566839
 10
-5935.4595631807
 20
-12126.886856211
 10
-5935.4595631807
 20
-12126.886856211
 10
-5935.4595631807
 20
-13046.3047122803
 10
-5935.4595631807
 20
-13046.3047122803
 10
-5938.5104218283
 20
-13060.4496023737
 10
-5944.0574375512
 20
-13070.4342306749
 10
-5951.8232595633
 20
-13076.5359479701
 10
-5962.0852386506
 20
-13078.4774034731
 10
-5962.0852386506
 20
-13078.4774034731
 10
-5972.6245685241
 20
-13075.9812463978
 10
-5981.2224428946
 20
-13069.0474767442
 10
-5986.7694586175
 20
-13056.2893405815
 10
-5988.7109141205
 20
-13036.5974347653
 10
-5988.7109141205
 20
-13036.5974347653
 10
-5988.7109141205
 20
-12696.8427217382
 10
-5988.7109141205
 20
-12696.8427217382
 10
-6273.8275222771
 20
-13076.5359479701
 10
-6273.8275222771
 20
-13076.5359479701
 10
-6283.8121505783
 20
-13078.4774034731
 10
-6283.8121505783
 20
-13078.4774034731
 10
-6462.4260568554
 20
-13078.4774034731
 10
-6462.4260568554
 20
-13078.4774034731
 10
-6471.0239312259
 20
-13070.4342306749
 10
-6471.0239312259
 20
-13070.4342306749
 10
-6642.7040678494
 20
-12824.1467325785
 10
-6642.7040678494
 20
-12824.1467325785
 10
-6645.4775757108
 20
-12803.90012519
 10
-6645.4775757108
 20
-12803.90012519
 10
-6645.4775757108
 20
-12092.7727095153
 10
-6645.4775757108
 20
-12092.7727095153
 10
-6642.7040678494
 20
-12084.4521859309
 10
-6638.2664552711
 20
-12077.2410654912
 10
-6632.442088762
 20
-12071.4166989821
 10
-6624.67626675
 20
-12066.7017356177
 10
-6624.67626675
 20
-12066.7017356177
 10
-6610.8087274428
 20
-12069.4752434791
 10
-6600.8240991416
 20
-12078.0731178496
  0
LWPOLYLINE
  5
8C
330
1F
100
AcDbEntity
  8
0
  6
Continuous
 62
     7
100
AcDbPolyline
 90
       54
 70
   128
 43
0.0
 10
-4974.437713623
 20
-12068.3658403345
 10
-4963.8997593163
 20
-12075.8543115604
 10
-4957.5206912349
 20
-12088.6124477231
 10
-4957.5206912349
 20
-12088.6124477231
 10
-4958.6300943795
 20
-12109.4137566839
 10
-4961.6809530271
 20
-12124.1133483496
 10
-4961.6809530271
 20
-12124.1133483496
 10
-4967.22796875
 20
-12129.9377148586
 10
-4974.1617384036
 20
-12134.3753274369
 10
-4982.2049112018
 20
-12136.8714845123
 10
-4991.6348379307
 20
-12137.7035368707
 10
-4991.6348379307
 20
-12137.7035368707
 10
-5469.2328916717
 20
-12137.7035368707
 10
-5469.2328916717
 20
-12137.7035368707
 10
-5615.9514575422
 20
-12350.4315898436
 10
-5615.9514575422
 20
-12350.4315898436
 10
-5615.9514575422
 20
-12794.7475492472
 10
-5615.9514575422
 20
-12794.7475492472
 10
-5469.2328916717
 20
-13007.4756022201
 10
-5469.2328916717
 20
-13007.4756022201
 10
-4980.2634556988
 20
-13007.4756022201
 10
-4980.2634556988
 20
-13007.4756022201
 10
-4973.6070368313
 20
-13009.1397069369
 10
-4968.0600211084
 20
-13013.022617943
 10
-4963.6224085301
 20
-13018.5696336659
 10
-4960.2941990964
 20
-13026.0581048918
 10
-4960.2941990964
 20
-13026.0581048918
 10
-4957.2433404488
 20
-13034.6559792622
 10
-4956.1339373042
 20
-13042.9765028466
 10
-4956.1339373042
 20
-13042.9765028466
 10
-4957.7980420211
 20
-13054.9025866508
 10
-4962.5130053855
 20
-13066.828670455
 10
-4966.3959163916
 20
-13071.8209846056
 10
-4972.2202829006
 20
-13075.4265448255
 10
-4979.4314033404
 20
-13077.6453511147
 10
-4988.5839792831
 20
-13078.4774034731
 10
-4988.5839792831
 20
-13078.4774034731
 10
-5488.0927451295
 20
-13078.4774034731
 10
-5488.0927451295
 20
-13078.4774034731
 10
-5496.6906195
 20
-13070.4342306749
 10
-5496.6906195
 20
-13070.4342306749
 10
-5669.2028084819
 20
-12824.1467325785
 10
-5669.2028084819
 20
-12824.1467325785
 10
-5669.2028084819
 20
-12803.90012519
 10
-5669.2028084819
 20
-12803.90012519
 10
-5667.8160545512
 20
-12327.1341238074
 10
-5667.8160545512
 20
-12327.1341238074
 10
-5662.2690388283
 20
-12313.2665845002
 10
-5662.2690388283
 20
-12313.2665845002
 10
-5489.7568498464
 20
-12070.5846466237
 10
-5489.7568498464
 20
-12070.5846466237
 10
-5481.436326262
 20
-12066.7017356177
 10
-5481.436326262
 20
-12066.7017356177
 10
-4974.4390891898
 20
-12068.3658403345
  0
LWPOLYLINE
  5
8D
330
1F
100
AcDbEntity
  8
0
  6
Continuous
 62
     7
100
AcDbPolyline
 90
       48
 70
   128
 43
0.0
 10
-4317.9473876953
 20
-12074.7449084159
 10
-4145.4375894036
 20
-12321.0324065122
 10
-4145.4375894036
 20
-12321.0324065122
 10
-4142.6640815422
 20
-12333.2358411026
 10
-4142.6640815422
 20
-12333.2358411026
 10
-4142.6640815422
 20
-12785.8723240906
 10
-4142.6640815422
 20
-12785.8723240906
 10
-3984.0194318675
 20
-13016.3508273767
 10
-3984.0194318675
 20
-13016.3508273767
 10
-3980.9685732199
 20
-13030.7730682562
 10
-3979.8591700753
 20
-13038.5388902683
 10
-3979.8591700753
 20
-13038.5388902683
 10
-3980.1365208614
 20
-13045.4726599219
 10
-3981.245924006
 20
-13050.4649740725
 10
-3981.245924006
 20
-13050.4649740725
 10
-3984.5741334398
 20
-13060.4496023737
 10
-3988.4570444458
 20
-13068.4927751719
 10
-3993.7267093825
 20
-13074.3171416809
 10
-3999.5510758916
 20
-13078.4774034731
 10
-3999.5510758916
 20
-13078.4774034731
 10
-4017.0241754187
 20
-13077.6453511147
 10
-4026.4541021476
 20
-13074.8718432532
 10
-4026.4541021476
 20
-13074.8718432532
 10
-4173.1726680181
 20
-12888.7694657502
 10
-4173.1726680181
 20
-12888.7694657502
 10
-4322.9420925361
 20
-13076.8132987562
 10
-4322.9420925361
 20
-13076.8132987562
 10
-4332.9267208374
 20
-13078.4774034731
 10
-4332.9267208374
 20
-13078.4774034731
 10
-4510.708574756
 20
-13078.4774034731
 10
-4510.708574756
 20
-13078.4774034731
 10
-4519.3064491265
 20
-13070.4342306749
 10
-4519.3064491265
 20
-13070.4342306749
 10
-4691.5412873223
 20
-12824.1467325785
 10
-4691.5412873223
 20
-12824.1467325785
 10
-4692.928041253
 20
-12803.90012519
 10
-4692.928041253
 20
-12803.90012519
 10
-4692.928041253
 20
-12327.1341238074
 10
-4692.928041253
 20
-12327.1341238074
 10
-4687.3810255301
 20
-12313.2665845002
 10
-4687.3810255301
 20
-12313.2665845002
 10
-4513.2047318313
 20
-12070.5846466237
 10
-4513.2047318313
 20
-12070.5846466237
 10
-4504.884208247
 20
-12066.7017356177
 10
-4504.884208247
 20
-12066.7017356177
 10
-4329.3211606175
 20
-12068.6431911207
 10
-4329.3211606175
 20
-12068.6431911207
 10
-4317.9497783855
 20
-12074.7449084159
  0
LWPOLYLINE
  5
8E
330
1F
100
AcDbEntity
  8
0
  6
Continuous
 62
     7
100
AcDbPolyline
 90
       16
 70
   128
 43
0.0
 10
-4195.915222168
 20
-12350.9862914159
 10
-4345.684857
 20
-12137.7035368707
 10
-4345.684857
 20
-12137.7035368707
 10
-4489.9072657952
 20
-12137.7035368707
 10
-4489.9072657952
 20
-12137.7035368707
 10
-4639.6766903133
 20
-12349.0448359129
 10
-4639.6766903133
 20
-12349.0448359129
 10
-4639.6766903133
 20
-12794.1928476749
 10
-4639.6766903133
 20
-12794.1928476749
 10
-4489.9072657952
 20
-13007.4756022201
 10
-4489.9072657952
 20
-13007.4756022201
 10
-4345.684857
 20
-13007.4756022201
 10
-4345.684857
 20
-13007.4756022201
 10
-4195.9154324819
 20
-12791.9740413857
 10
-4195.9154324819
 20
-12791.9740413857
 10
-4195.9154324819
 20
-12350.9862914159
  0
LWPOLYLINE
  5
8F
330
1F
100
AcDbEntity
  8
0
  6
Continuous
 62
     7
100
AcDbPolyline
 90
       83
 70
   128
 43
0.0
 10
-3351.6578674316
 20
-11617.1161112773
 10
-3348.3314300241
 20
-11624.8819332894
 10
-3345.8352729488
 20
-11635.9759647351
 10
-3344.4485190181
 20
-11651.2302579731
 10
-3343.8938174458
 20
-11669.8127606448
 10
-3343.8938174458
 20
-11669.8127606448
 10
-3343.8938174458
 20
-12102.2026362442
 10
-3343.8938174458
 20
-12102.2026362442
 10
-3024.1083610211
 20
-12102.2026362442
 10
-3024.1083610211
 20
-12102.2026362442
 10
-3016.342539009
 20
-12106.6402488225
 10
-3010.2408217139
 20
-12113.0193169038
 10
-3006.0805599217
 20
-12121.3398404882
 10
-3003.5844028464
 20
-12131.6018195755
 10
-3003.5844028464
 20
-12131.6018195755
 10
-3005.8032091355
 20
-12146.5787620273
 10
-3012.459628003
 20
-12160.1689505484
 10
-3018.0066437259
 20
-12165.9933170574
 10
-3026.0498165241
 20
-12169.8762280635
 10
-3036.5891463976
 20
-12172.3723851388
 10
-3049.3472825602
 20
-12173.2044374972
 10
-3049.3472825602
 20
-12173.2044374972
 10
-3343.8938174458
 20
-12173.2044374972
 10
-3343.8938174458
 20
-12173.2044374972
 10
-3343.8938174458
 20
-12811.3885964159
 10
-3343.8938174458
 20
-12811.3885964159
 10
-3204.6637228012
 20
-13002.2059372833
 10
-3204.6637228012
 20
-13002.2059372833
 10
-3049.0699317741
 20
-12789.7552350966
 10
-3049.0699317741
 20
-12789.7552350966
 10
-3042.4135129066
 20
-12785.0402717321
 10
-3034.3703401084
 20
-12783.6535178014
 10
-3034.3703401084
 20
-12783.6535178014
 10
-3024.1083610211
 20
-12786.4270256629
 10
-3013.8463819337
 20
-12795.0249000333
 10
-3006.0805599217
 20
-12808.0603869821
 10
-3003.5844028464
 20
-12824.7014341508
 10
-3003.5844028464
 20
-12824.7014341508
 10
-3006.3579107078
 20
-12843.2839368225
 10
-3006.3579107078
 20
-12843.2839368225
 10
-3185.2491677711
 20
-13074.8718432532
 10
-3185.2491677711
 20
-13074.8718432532
 10
-3191.3508850663
 20
-13077.6453511147
 10
-3201.0581625813
 20
-13078.4774034731
 10
-3201.0581625813
 20
-13078.4774034731
 10
-3212.7068955994
 20
-13078.4774034731
 10
-3212.7068955994
 20
-13078.4774034731
 10
-3222.6915239006
 20
-13066.828670455
 10
-3222.6915239006
 20
-13066.828670455
 10
-3395.7584144548
 20
-12830.2484498737
 10
-3395.7584144548
 20
-12830.2484498737
 10
-3397.1451683855
 20
-12810.5565440574
 10
-3397.1451683855
 20
-12810.5565440574
 10
-3397.1451683855
 20
-12173.2044374972
 10
-3397.1451683855
 20
-12173.2044374972
 10
-3693.355807988
 20
-12173.2044374972
 10
-3693.355807988
 20
-12173.2044374972
 10
-3699.180174497
 20
-12171.5403327803
 10
-3704.1724886476
 20
-12166.8253694159
 10
-3708.6101012259
 20
-12159.0595474038
 10
-3712.4930122319
 20
-12147.965515958
 10
-3712.4930122319
 20
-12147.965515958
 10
-3715.5438708795
 20
-12133.2659242924
 10
-3716.6532740241
 20
-12119.9530865574
 10
-3716.6532740241
 20
-12119.9530865574
 10
-3714.7118185211
 20
-12100.5385315273
 10
-3709.1648027982
 20
-12083.3427827863
 10
-3703.8951378614
 20
-12076.1316623466
 10
-3695.297263491
 20
-12070.8619974098
 10
-3684.2032320452
 20
-12067.8111387622
 10
-3669.7809911657
 20
-12066.7017356177
 10
-3669.7809911657
 20
-12066.7017356177
 10
-3397.1451683855
 20
-12066.7017356177
 10
-3397.1451683855
 20
-12066.7017356177
 10
-3397.1451683855
 20
-11633.2024568737
 10
-3397.1451683855
 20
-11633.2024568737
 10
-3394.3716605241
 20
-11622.3857762141
 10
-3389.9340479458
 20
-11614.0652526297
 10
-3384.1096814367
 20
-11608.5182369068
 10
-3376.3438594247
 20
-11605.1900274731
 10
-3376.3438594247
 20
-11605.1900274731
 10
-3361.644267759
 20
-11608.2408861207
 10
-3351.6596394578
 20
-11617.1161112773
  0
LWPOLYLINE
  5
90
330
1F
100
AcDbEntity
  8
0
  6
Continuous
 62
     7
100
AcDbPolyline
 90
       27
 70
   128
 43
0.0
 10
-2694.8928833008
 20
-11616.8387604912
 10
-2691.5647684337
 20
-11624.3272317171
 10
-2689.0686113584
 20
-11635.1439123767
 10
-2687.6818574277
 20
-11649.5661532562
 10
-2687.1271558554
 20
-11667.5939543556
 10
-2687.1271558554
 20
-11667.5939543556
 10
-2687.1271558554
 20
-11899.1818607863
 10
-2687.1271558554
 20
-11899.1818607863
 10
-2692.119470006
 20
-11916.3776095273
 10
-2699.8852920181
 20
-11926.3622378285
 10
-2707.6511140301
 20
-11930.7998504068
 10
-2713.7528313253
 20
-11932.4639551237
 10
-2713.7528313253
 20
-11932.4639551237
 10
-2725.4015643434
 20
-11930.2451488345
 10
-2733.7220879277
 20
-11923.5887299671
 10
-2738.7144020783
 20
-11912.4946985213
 10
-2740.3785067952
 20
-11896.9630544972
 10
-2740.3785067952
 20
-11896.9630544972
 10
-2740.3785067952
 20
-11634.3118600183
 10
-2740.3785067952
 20
-11634.3118600183
 10
-2737.0502973614
 20
-11623.2178285725
 10
-2732.335333997
 20
-11614.619954202
 10
-2726.2336167018
 20
-11608.5182369068
 10
-2718.7451454759
 20
-11605.1900274731
 10
-2718.7451454759
 20
-11605.1900274731
 10
-2704.6002553825
 20
-11607.9635353345
 10
-2694.8929778675
 20
-11616.8387604912
  0
LWPOLYLINE
  5
91
330
1F
100
AcDbEntity
  8
0
  6
Continuous
 62
     7
100
AcDbPolyline
 90
       30
 70
   128
 43
0.0
 10
-2695.4460144043
 20
-12077.7957670635
 10
-2691.8421192199
 20
-12085.0068875032
 10
-2689.0686113584
 20
-12095.5462173767
 10
-2687.6818574277
 20
-12109.4137566839
 10
-2687.1271558554
 20
-12126.886856211
 10
-2687.1271558554
 20
-12126.886856211
 10
-2687.1271558554
 20
-13046.3047122803
 10
-2687.1271558554
 20
-13046.3047122803
 10
-2691.2874176476
 20
-13061.2816547321
 10
-2700.9946951627
 20
-13074.5944924671
 10
-2700.9946951627
 20
-13074.5944924671
 10
-2705.9870093133
 20
-13077.3680003285
 10
-2713.7528313253
 20
-13078.4774034731
 10
-2713.7528313253
 20
-13078.4774034731
 10
-2725.1242135572
 20
-13076.2585971839
 10
-2733.4447371416
 20
-13069.6021783165
 10
-2736.4955957892
 20
-13064.0551625936
 10
-2738.7144020783
 20
-13056.2893405815
 10
-2739.8238052229
 20
-13046.3047122803
 10
-2740.3785067952
 20
-13034.3786284761
 10
-2740.3785067952
 20
-13034.3786284761
 10
-2740.3785067952
 20
-12096.6556205213
 10
-2740.3785067952
 20
-12096.6556205213
 10
-2737.6049989337
 20
-12086.6709922201
 10
-2732.8900355693
 20
-12078.0731178496
 10
-2726.7883182741
 20
-12071.6940497683
 10
-2718.7451454759
 20
-12066.7017356177
 10
-2718.7451454759
 20
-12066.7017356177
 10
-2705.1549569548
 20
-12069.4752434791
 10
-2695.4476794398
 20
-12077.7957670635
  0
LWPOLYLINE
  5
92
330
1F
100
AcDbEntity
  8
0
  6
Continuous
 62
     7
100
AcDbPolyline
 90
       32
 70
   128
 43
0.0
 10
-1883.918762207
 20
-12076.6863639189
 10
-1713.625896488
 20
-12323.2512128014
 10
-1713.625896488
 20
-12323.2512128014
 10
-1710.8523886265
 20
-12341.2790139008
 10
-1710.8523886265
 20
-12341.2790139008
 10
-1710.8523886265
 20
-12816.1035597803
 10
-1710.8523886265
 20
-12816.1035597803
 10
-1716.3994043494
 20
-12831.9125545906
 10
-1716.3994043494
 20
-12831.9125545906
 10
-1889.4662949036
 20
-13076.5359479701
 10
-1889.4662949036
 20
-13076.5359479701
 10
-1903.3338342108
 20
-13078.4774034731
 10
-1903.3338342108
 20
-13078.4774034731
 10
-2239.4829870181
 20
-13078.4774034731
 10
-2239.4829870181
 20
-13078.4774034731
 10
-2247.8035106024
 20
-13070.4342306749
 10
-2247.8035106024
 20
-13070.4342306749
 10
-2419.4836472259
 20
-12824.1467325785
 10
-2419.4836472259
 20
-12824.1467325785
 10
-2420.8704011566
 20
-12803.90012519
 10
-2420.8704011566
 20
-12803.90012519
 10
-2420.8704011566
 20
-12327.1341238074
 10
-2420.8704011566
 20
-12327.1341238074
 10
-2415.3233854337
 20
-12313.2665845002
 10
-2415.3233854337
 20
-12313.2665845002
 10
-2242.2564948795
 20
-12070.5846466237
 10
-2242.2564948795
 20
-12070.5846466237
 10
-2233.9359712952
 20
-12066.7017356177
 10
-2233.9359712952
 20
-12066.7017356177
 10
-1893.6265566958
 20
-12068.6431911207
 10
-1893.6265566958
 20
-12068.6431911207
 10
-1883.9192791807
 20
-12076.6863639189
  0
LWPOLYLINE
  5
93
330
1F
100
AcDbEntity
  8
0
  6
Continuous
 62
     7
100
AcDbPolyline
 90
       16
 70
   128
 43
0.0
 10
-1764.102935791
 20
-12350.9862914159
 10
-1911.6543577952
 20
-12137.7035368707
 10
-1911.6543577952
 20
-12137.7035368707
 10
-2220.068431988
 20
-12137.7035368707
 10
-2220.068431988
 20
-12137.7035368707
 10
-2367.6190502169
 20
-12349.0448359129
 10
-2367.6190502169
 20
-12349.0448359129
 10
-2367.6190502169
 20
-12794.1928476749
 10
-2367.6190502169
 20
-12794.1928476749
 10
-2220.068431988
 20
-13007.4756022201
 10
-2220.068431988
 20
-13007.4756022201
 10
-1911.6543577952
 20
-13007.4756022201
 10
-1911.6543577952
 20
-13007.4756022201
 10
-1764.1037395663
 20
-12791.9740413857
 10
-1764.1037395663
 20
-12791.9740413857
 10
-1764.1037395663
 20
-12350.9862914159
  0
LWPOLYLINE
  5
94
330
1F
100
AcDbEntity
  8
0
  6
Continuous
 62
     7
100
AcDbPolyline
 90
       63
 70
   128
 43
0.0
 10
-909.0309143066
 20
-12076.6863639189
 10
-737.351129259
 20
-12323.2512128014
 10
-737.351129259
 20
-12323.2512128014
 10
-734.5776213976
 20
-12341.2790139008
 10
-734.5776213976
 20
-12341.2790139008
 10
-734.5776213976
 20
-13046.3047122803
 10
-734.5776213976
 20
-13046.3047122803
 10
-737.6284800452
 20
-13060.4496023737
 10
-743.1754957681
 20
-13070.4342306749
 10
-750.9413177801
 20
-13076.5359479701
 10
-761.2032968675
 20
-13078.4774034731
 10
-761.2032968675
 20
-13078.4774034731
 10
-771.742626741
 20
-13075.9812463978
 10
-780.3405011114
 20
-13068.4927751719
 10
-783.6687105452
 20
-13062.3910578767
 10
-785.8875168343
 20
-13054.6252358647
 10
-787.2742707651
 20
-13045.1953091357
 10
-787.8289723374
 20
-13033.8239269038
 10
-787.8289723374
 20
-13033.8239269038
 10
-787.8289723374
 20
-12349.0448359129
 10
-787.8289723374
 20
-12349.0448359129
 10
-935.3795905663
 20
-12137.7035368707
 10
-935.3795905663
 20
-12137.7035368707
 10
-1077.3831930723
 20
-12137.7035368707
 10
-1077.3831930723
 20
-12137.7035368707
 10
-1391.344282988
 20
-12582.5741978466
 10
-1391.344282988
 20
-12582.5741978466
 10
-1391.344282988
 20
-13046.0273614942
 10
-1391.344282988
 20
-13046.0273614942
 10
-1395.5045447801
 20
-13061.004303946
 10
-1405.2118222952
 20
-13074.3171416809
 10
-1405.2118222952
 20
-13074.3171416809
 10
-1410.2041364458
 20
-13077.3680003285
 10
-1417.9699584578
 20
-13078.4774034731
 10
-1417.9699584578
 20
-13078.4774034731
 10
-1429.3413406898
 20
-13076.2585971839
 10
-1437.6618642741
 20
-13069.6021783165
 10
-1440.7127229217
 20
-13064.0551625936
 10
-1442.9315292108
 20
-13056.2893405815
 10
-1444.0409323554
 20
-13046.3047122803
 10
-1444.5956339277
 20
-13034.3786284761
 10
-1444.5956339277
 20
-13034.3786284761
 10
-1444.5956339277
 20
-12094.7141650183
 10
-1444.5956339277
 20
-12094.7141650183
 10
-1441.8221260663
 20
-12083.8974843586
 10
-1436.8298119157
 20
-12075.5769607743
 10
-1430.4507438343
 20
-12070.0299450514
 10
-1421.8528694639
 20
-12066.7017356177
 10
-1421.8528694639
 20
-12066.7017356177
 10
-1409.9267856596
 20
-12069.197892693
 10
-1400.2195081446
 20
-12077.2410654912
 10
-1396.3365971386
 20
-12084.4521859309
 10
-1393.5630892771
 20
-12094.9915158044
 10
-1391.8989845602
 20
-12109.6911074701
 10
-1391.344282988
 20
-12127.7189085695
 10
-1391.344282988
 20
-12127.7189085695
 10
-1391.344282988
 20
-12486.3334750544
 10
-1391.344282988
 20
-12486.3334750544
 10
-1097.6298004608
 20
-12066.7017356177
 10
-1097.6298004608
 20
-12066.7017356177
 10
-919.0158941837
 20
-12068.6431911207
 10
-919.0158941837
 20
-12068.6431911207
 10
-909.0312658825
 20
-12076.6863639189
  0
LWPOLYLINE
  5
95
330
1F
100
AcDbEntity
  8
0
  6
Continuous
 62
     7
100
AcDbPolyline
 90
       48
 70
   128
 43
0.0
 10
-93.342602253
 20
-12074.7449084159
 10
79.1695851506
 20
-12321.0324065122
 10
79.1695851506
 20
-12321.0324065122
 10
81.943093012
 20
-12333.2358411026
 10
81.943093012
 20
-12333.2358411026
 10
81.943093012
 20
-12785.8723240906
 10
81.943093012
 20
-12785.8723240906
 10
240.5877426867
 20
-13016.3508273767
 10
240.5877426867
 20
-13016.3508273767
 10
243.6386013343
 20
-13030.7730682562
 10
244.7480044789
 20
-13038.5388902683
 10
244.7480044789
 20
-13038.5388902683
 10
244.4706536928
 20
-13045.4726599219
 10
243.3612505482
 20
-13050.4649740725
 10
243.3612505482
 20
-13050.4649740725
 10
240.0330411145
 20
-13060.4496023737
 10
236.1501301084
 20
-13068.4927751719
 10
230.8804651717
 20
-13074.3171416809
 10
225.0560986626
 20
-13078.4774034731
 10
225.0560986626
 20
-13078.4774034731
 10
207.5829991355
 20
-13077.6453511147
 10
198.1530724066
 20
-13074.8718432532
 10
198.1530724066
 20
-13074.8718432532
 10
51.4345065361
 20
-12888.7694657502
 10
51.4345065361
 20
-12888.7694657502
 10
-98.3349179819
 20
-13076.8132987562
 10
-98.3349179819
 20
-13076.8132987562
 10
-108.3195462831
 20
-13078.4774034731
 10
-108.3195462831
 20
-13078.4774034731
 10
-286.1014002018
 20
-13078.4774034731
 10
-286.1014002018
 20
-13078.4774034731
 10
-294.6992745723
 20
-13070.4342306749
 10
-294.6992745723
 20
-13070.4342306749
 10
-466.9341127681
 20
-12824.1467325785
 10
-466.9341127681
 20
-12824.1467325785
 10
-468.3208666988
 20
-12803.90012519
 10
-468.3208666988
 20
-12803.90012519
 10
-468.3208666988
 20
-12327.1341238074
 10
-468.3208666988
 20
-12327.1341238074
 10
-462.7738509759
 20
-12313.2665845002
 10
-462.7738509759
 20
-12313.2665845002
 10
-288.5975572771
 20
-12070.5846466237
 10
-288.5975572771
 20
-12070.5846466237
 10
-280.2770336928
 20
-12066.7017356177
 10
-280.2770336928
 20
-12066.7017356177
 10
-104.7139860633
 20
-12068.6431911207
 10
-104.7139860633
 20
-12068.6431911207
 10
-93.3426038313
 20
-12074.7449084159
  0
LWPOLYLINE
  5
96
330
1F
100
AcDbEntity
  8
0
  6
Continuous
 62
     7
100
AcDbPolyline
 90
       16
 70
   128
 43
0.0
 10
28.6917388439
 20
-12350.9862914159
 10
-121.0776824458
 20
-12137.7035368707
 10
-121.0776824458
 20
-12137.7035368707
 10
-265.300091241
 20
-12137.7035368707
 10
-265.300091241
 20
-12137.7035368707
 10
-415.069515759
 20
-12349.0448359129
 10
-415.069515759
 20
-12349.0448359129
 10
-415.069515759
 20
-12794.1928476749
 10
-415.069515759
 20
-12794.1928476749
 10
-265.300091241
 20
-13007.4756022201
 10
-265.300091241
 20
-13007.4756022201
 10
-121.0776824458
 20
-13007.4756022201
 10
-121.0776824458
 20
-13007.4756022201
 10
28.6917420723
 20
-12791.9740413857
 10
28.6917420723
 20
-12791.9740413857
 10
28.6917420723
 20
-12350.9862914159
  0
LWPOLYLINE
  5
97
330
1F
100
AcDbEntity
  8
0
  6
Continuous
 62
     7
100
AcDbPolyline
 90
       33
 70
   128
 43
0.0
 10
553.4391403198
 20
-11616.2840589189
 10
556.7676388916
 20
-11623.4951793586
 10
559.2637959669
 20
-11634.0345092321
 10
560.6505498976
 20
-11647.9020485394
 10
561.2052514699
 20
-11665.3751480665
 10
561.2052514699
 20
-11665.3751480665
 10
561.2052514699
 20
-12788.0911303797
 10
561.2052514699
 20
-12788.0911303797
 10
726.7836707982
 20
-13016.3508273767
 10
726.7836707982
 20
-13016.3508273767
 10
730.1118802319
 20
-13026.3354556779
 10
731.2212833765
 20
-13036.3200839791
 10
731.2212833765
 20
-13036.3200839791
 10
729.2798278735
 20
-13051.5743772171
 10
723.4554613645
 20
-13065.4419165243
 10
713.7481838494
 20
-13075.1491940394
 10
700.1579953283
 20
-13078.4774034731
 10
700.1579953283
 20
-13078.4774034731
 10
687.3998591657
 20
-13076.5359479701
 10
687.3998591657
 20
-13076.5359479701
 10
512.1141623223
 20
-12828.3069943707
 10
512.1141623223
 20
-12828.3069943707
 10
507.9539005301
 20
-12812.2206487743
 10
507.9539005301
 20
-12812.2206487743
 10
507.9539005301
 20
-11633.2024568737
 10
507.9539005301
 20
-11633.2024568737
 10
511.2821099639
 20
-11622.3857762141
 10
515.9970733283
 20
-11614.0652526297
 10
522.0987906235
 20
-11608.5182369068
 10
529.5872618494
 20
-11605.1900274731
 10
529.5872618494
 20
-11605.1900274731
 10
543.7321519428
 20
-11607.9635353345
 10
553.4394294578
 20
-11616.2840589189
  0
LWPOLYLINE
  5
98
330
1F
100
AcDbEntity
  8
0
  6
Continuous
 62
     7
100
AcDbPolyline
 90
       43
 70
   128
 43
0.0
 10
2518.1922912598
 20
-11617.3934620635
 10
2688.4857811988
 20
-11867.2865203797
 10
2688.4857811988
 20
-11867.2865203797
 10
2691.2592890602
 20
-11885.8690230514
 10
2691.2592890602
 20
-11885.8690230514
 10
2691.2592890602
 20
-12133.5432750785
 10
2691.2592890602
 20
-12133.5432750785
 10
2688.4857811988
 20
-12147.965515958
 10
2688.4857811988
 20
-12147.965515958
 10
2512.0906812108
 20
-12397.8585742743
 10
2512.0906812108
 20
-12397.8585742743
 10
2499.3325450482
 20
-12403.9602915695
 10
2499.3325450482
 20
-12403.9602915695
 10
2034.4926274699
 20
-12403.9602915695
 10
2034.4926274699
 20
-12403.9602915695
 10
2034.4926274699
 20
-13045.4726599219
 10
2034.4926274699
 20
-13045.4726599219
 10
2029.7776641054
 20
-13061.5590055183
 10
2020.6250881626
 20
-13074.5944924671
 10
2020.6250881626
 20
-13074.5944924671
 10
2015.632774012
 20
-13077.3680003285
 10
2007.866952
 20
-13078.4774034731
 10
2007.866952
 20
-13078.4774034731
 10
1996.4955697681
 20
-13076.2585971839
 10
1988.1750461837
 20
-13069.6021783165
 10
1985.1241875361
 20
-13064.0551625936
 10
1982.905381247
 20
-13056.2893405815
 10
1981.7959781024
 20
-13046.3047122803
 10
1981.2412765301
 20
-13034.3786284761
 10
1981.2412765301
 20
-13034.3786284761
 10
1981.2412765301
 20
-11635.1439123767
 10
1981.2412765301
 20
-11635.1439123767
 10
1984.0147843916
 20
-11625.9913364339
 10
1987.8976953976
 20
-11618.502865208
 10
1993.1673603343
 20
-11612.9558494851
 10
1999.5464284157
 20
-11609.0729384791
 10
1999.5464284157
 20
-11609.0729384791
 10
2028.945611747
 20
-11607.1314829761
 10
2028.945611747
 20
-11607.1314829761
 10
2495.7269848283
 20
-11605.1900274731
 10
2495.7269848283
 20
-11605.1900274731
 10
2509.0398225633
 20
-11608.2408861207
 10
2518.192398506
 20
-11617.3934620635
  0
LWPOLYLINE
  5
99
330
1F
100
AcDbEntity
  8
0
  6
Continuous
 62
     7
100
AcDbPolyline
 90
       12
 70
   128
 43
0.0
 10
2638.0062103271
 20
-11898.6271592141
 10
2490.4573198916
 20
-11676.1918287261
 10
2490.4573198916
 20
-11676.1918287261
 10
2034.4926274699
 20
-11676.1918287261
 10
2034.4926274699
 20
-11676.1918287261
 10
2034.4926274699
 20
-12332.9584903165
 10
2034.4926274699
 20
-12332.9584903165
 10
2488.7932151747
 20
-12332.9584903165
 10
2488.7932151747
 20
-12332.9584903165
 10
2638.0079381205
 20
-12110.5231598285
 10
2638.0079381205
 20
-12110.5231598285
 10
2638.0079381205
 20
-11898.6271592141
  0
LWPOLYLINE
  5
9A
330
1F
100
AcDbEntity
  8
0
  6
Continuous
 62
     7
100
AcDbPolyline
 90
       61
 70
   128
 43
0.0
 10
3495.2983856201
 20
-12077.2410654912
 10
3667.8114070753
 20
-12337.9508044671
 10
3667.8114070753
 20
-12337.9508044671
 10
3670.0302133645
 20
-12349.0448359129
 10
3670.5849149367
 20
-12357.088008711
 10
3670.5849149367
 20
-12357.088008711
 10
3670.3075641506
 20
-12365.9632338677
 10
3669.198161006
 20
-12371.7876003767
 10
3669.198161006
 20
-12371.7876003767
 10
3664.7605484277
 20
-12383.1589826086
 10
3658.9361819187
 20
-12392.0342077653
 10
3651.1703599066
 20
-12398.1359250604
 10
3642.0177839639
 20
-12401.4641344942
 10
3642.0177839639
 20
-12401.4641344942
 10
3635.0840143102
 20
-12400.3547313496
 10
3628.9822970151
 20
-12397.5812234882
 10
3623.157930506
 20
-12392.5889093376
 10
3617.8882655693
 20
-12385.6551396839
 10
3617.8882655693
 20
-12385.6551396839
 10
3463.958579259
 20
-12137.7035368707
 10
3463.958579259
 20
-12137.7035368707
 10
3322.7870291114
 20
-12137.7035368707
 10
3322.7870291114
 20
-12137.7035368707
 10
3010.7673946988
 20
-12582.5741978466
 10
3010.7673946988
 20
-12582.5741978466
 10
3010.7673946988
 20
-13046.0273614942
 10
3010.7673946988
 20
-13046.0273614942
 10
3006.6071329066
 20
-13061.004303946
 10
2996.8998553916
 20
-13074.3171416809
 10
2996.8998553916
 20
-13074.3171416809
 10
2991.907541241
 20
-13077.3680003285
 10
2984.1417192289
 20
-13078.4774034731
 10
2984.1417192289
 20
-13078.4774034731
 10
2972.770336997
 20
-13076.2585971839
 10
2964.4498134126
 20
-13069.6021783165
 10
2961.3989547651
 20
-13064.0551625936
 10
2959.1801484759
 20
-13056.2893405815
 10
2958.0707453313
 20
-13046.3047122803
 10
2957.516043759
 20
-13034.3786284761
 10
2957.516043759
 20
-13034.3786284761
 10
2957.516043759
 20
-12094.7141650183
 10
2957.516043759
 20
-12094.7141650183
 10
2960.2895516205
 20
-12083.8974843586
 10
2965.2818657711
 20
-12075.5769607743
 10
2971.6609338524
 20
-12070.0299450514
 10
2980.2588082229
 20
-12066.7017356177
 10
2980.2588082229
 20
-12066.7017356177
 10
2992.1848920271
 20
-12069.197892693
 10
3001.8921695422
 20
-12077.2410654912
 10
3005.7750805482
 20
-12084.4521859309
 10
3008.5485884096
 20
-12094.9915158044
 10
3010.2126931265
 20
-12109.6911074701
 10
3010.7673946988
 20
-12127.7189085695
 10
3010.7673946988
 20
-12127.7189085695
 10
3010.7673946988
 20
-12486.3334750544
 10
3010.7673946988
 20
-12486.3334750544
 10
3305.8686311566
 20
-12066.7017356177
 10
3305.8686311566
 20
-12066.7017356177
 10
3485.3145897922
 20
-12068.9205419068
 10
3485.3145897922
 20
-12068.9205419068
 10
3495.2992180934
 20
-12077.2410654912
  0
LWPOLYLINE
  5
9B
330
1F
100
AcDbEntity
  8
0
  6
Continuous
 62
     7
100
AcDbPolyline
 90
       32
 70
   128
 43
0.0
 10
4470.7412719727
 20
-12076.6863639189
 10
4641.0353156566
 20
-12323.2512128014
 10
4641.0353156566
 20
-12323.2512128014
 10
4643.8088235181
 20
-12341.2790139008
 10
4643.8088235181
 20
-12341.2790139008
 10
4643.8088235181
 20
-12816.1035597803
 10
4643.8088235181
 20
-12816.1035597803
 10
4638.2618077952
 20
-12831.9125545906
 10
4638.2618077952
 20
-12831.9125545906
 10
4465.194917241
 20
-13076.5359479701
 10
4465.194917241
 20
-13076.5359479701
 10
4451.3273779337
 20
-13078.4774034731
 10
4451.3273779337
 20
-13078.4774034731
 10
4115.1782251265
 20
-13078.4774034731
 10
4115.1782251265
 20
-13078.4774034731
 10
4106.8577015422
 20
-13070.4342306749
 10
4106.8577015422
 20
-13070.4342306749
 10
3935.1775649187
 20
-12824.1467325785
 10
3935.1775649187
 20
-12824.1467325785
 10
3933.790810988
 20
-12803.90012519
 10
3933.790810988
 20
-12803.90012519
 10
3933.790810988
 20
-12327.1341238074
 10
3933.790810988
 20
-12327.1341238074
 10
3939.3378267108
 20
-12313.2665845002
 10
3939.3378267108
 20
-12313.2665845002
 10
4112.4047172651
 20
-12070.5846466237
 10
4112.4047172651
 20
-12070.5846466237
 10
4120.7252408494
 20
-12066.7017356177
 10
4120.7252408494
 20
-12066.7017356177
 10
4461.0346554488
 20
-12068.6431911207
 10
4461.0346554488
 20
-12068.6431911207
 10
4470.7419329639
 20
-12076.6863639189
  0
LWPOLYLINE
  5
9C
330
1F
100
AcDbEntity
  8
0
  6
Continuous
 62
     7
100
AcDbPolyline
 90
       16
 70
   128
 43
0.0
 10
4590.5570983887
 20
-12350.9862914159
 10
4443.0068543494
 20
-12137.7035368707
 10
4443.0068543494
 20
-12137.7035368707
 10
4134.5927801566
 20
-12137.7035368707
 10
4134.5927801566
 20
-12137.7035368707
 10
3987.0421619277
 20
-12349.0448359129
 10
3987.0421619277
 20
-12349.0448359129
 10
3987.0421619277
 20
-12794.1928476749
 10
3987.0421619277
 20
-12794.1928476749
 10
4134.5927801566
 20
-13007.4756022201
 10
4134.5927801566
 20
-13007.4756022201
 10
4443.0068543494
 20
-13007.4756022201
 10
4443.0068543494
 20
-13007.4756022201
 10
4590.5574725783
 20
-12791.9740413857
 10
4590.5574725783
 20
-12791.9740413857
 10
4590.5574725783
 20
-12350.9862914159
  0
LWPOLYLINE
  5
9D
330
1F
100
AcDbEntity
  8
0
  6
Continuous
 62
     7
100
AcDbPolyline
 90
       55
 70
   128
 43
0.0
 10
5612.3161315918
 20
-11616.2840589189
 10
5615.6459781687
 20
-11623.4951793586
 10
5618.142135244
 20
-11634.0345092321
 10
5619.5288891747
 20
-11647.9020485394
 10
5620.083590747
 20
-11665.3751480665
 10
5620.083590747
 20
-11665.3751480665
 10
5620.083590747
 20
-13046.5820630665
 10
5620.083590747
 20
-13046.5820630665
 10
5617.0327320994
 20
-13060.4496023737
 10
5611.4857163765
 20
-13070.4342306749
 10
5603.7198943645
 20
-13076.5359479701
 10
5593.4579152771
 20
-13078.4774034731
 10
5593.4579152771
 20
-13078.4774034731
 10
5582.9185854036
 20
-13075.9812463978
 10
5574.3207110331
 20
-13069.0474767442
 10
5568.7736953102
 20
-13056.2893405815
 10
5566.8322398072
 20
-13036.5974347653
 10
5566.8322398072
 20
-13036.5974347653
 10
5566.8322398072
 20
-12696.8427217382
 10
5566.8322398072
 20
-12696.8427217382
 10
5281.7156316506
 20
-13076.5359479701
 10
5281.7156316506
 20
-13076.5359479701
 10
5271.7310033494
 20
-13078.4774034731
 10
5271.7310033494
 20
-13078.4774034731
 10
5093.1170970723
 20
-13078.4774034731
 10
5093.1170970723
 20
-13078.4774034731
 10
5084.5192227018
 20
-13070.4342306749
 10
5084.5192227018
 20
-13070.4342306749
 10
4911.4523321476
 20
-12824.1467325785
 10
4911.4523321476
 20
-12824.1467325785
 10
4910.0655782169
 20
-12803.90012519
 10
4910.0655782169
 20
-12803.90012519
 10
4910.0655782169
 20
-12327.1341238074
 10
4910.0655782169
 20
-12327.1341238074
 10
4915.6125939398
 20
-12313.2665845002
 10
4915.6125939398
 20
-12313.2665845002
 10
5090.3435892108
 20
-12070.5846466237
 10
5090.3435892108
 20
-12070.5846466237
 10
5104.4884793042
 20
-12066.7017356177
 10
5104.4884793042
 20
-12066.7017356177
 10
5274.5045112108
 20
-12068.9205419068
 10
5274.5045112108
 20
-12068.9205419068
 10
5285.8758934428
 20
-12075.022259202
 10
5285.8758934428
 20
-12075.022259202
 10
5566.8322398072
 20
-12488.5522813436
 10
5566.8322398072
 20
-12488.5522813436
 10
5566.8322398072
 20
-11631.815702943
 10
5566.8322398072
 20
-11631.815702943
 10
5570.4378000271
 20
-11621.8310746418
 10
5574.8754126054
 20
-11613.7879018436
 10
5580.1450775422
 20
-11608.5182369068
 10
5586.2467948373
 20
-11605.1900274731
 10
5586.2467948373
 20
-11605.1900274731
 10
5602.0557896476
 20
-11607.9635353345
 10
5612.3177687349
 20
-11616.2840589189
  0
LWPOLYLINE
  5
9E
330
1F
100
AcDbEntity
  8
0
  6
Continuous
 62
     7
100
AcDbPolyline
 90
       14
 70
   128
 43
0.0
 10
5549.9114990234
 20
-12572.5895695454
 10
5251.4843959608
 20
-12137.7035368707
 10
5251.4843959608
 20
-12137.7035368707
 10
5110.3128458133
 20
-12137.7035368707
 10
5110.3128458133
 20
-12137.7035368707
 10
4963.3169291566
 20
-12349.0448359129
 10
4963.3169291566
 20
-12349.0448359129
 10
4963.3169291566
 20
-12794.1928476749
 10
4963.3169291566
 20
-12794.1928476749
 10
5110.3128458133
 20
-13007.4756022201
 10
5110.3128458133
 20
-13007.4756022201
 10
5250.0976420301
 20
-13007.4756022201
 10
5250.0976420301
 20
-13007.4756022201
 10
5549.9138418524
 20
-12572.5895695454
  0
LWPOLYLINE
  5
9F
330
1F
100
AcDbEntity
  8
0
  6
Continuous
 62
     7
100
AcDbPolyline
 90
       64
 70
   128
 43
0.0
 10
5930.9921264648
 20
-12078.0731178496
 10
5934.8767330211
 20
-12085.2842382894
 10
5937.3728900964
 20
-12096.100918949
 10
5939.0369948133
 20
-12110.2458090424
 10
5939.5916963855
 20
-12127.7189085695
 10
5939.5916963855
 20
-12127.7189085695
 10
5939.5916963855
 20
-12798.0757586809
 10
5939.5916963855
 20
-12798.0757586809
 10
6087.1423146145
 20
-13007.4756022201
 10
6087.1423146145
 20
-13007.4756022201
 10
6229.1459171205
 20
-13007.4756022201
 10
6229.1459171205
 20
-13007.4756022201
 10
6543.1070070361
 20
-12560.386134955
 10
6543.1070070361
 20
-12560.386134955
 10
6543.1070070361
 20
-12097.2103220936
 10
6543.1070070361
 20
-12097.2103220936
 10
6545.8805148976
 20
-12086.9483430062
 10
6550.595478262
 20
-12078.3504686357
 10
6556.6971955572
 20
-12071.6940497683
 10
6564.7403683554
 20
-12066.7017356177
 10
6564.7403683554
 20
-12066.7017356177
 10
6576.3891013735
 20
-12069.197892693
 10
6588.86988675
 20
-12076.6863639189
 10
6588.86988675
 20
-12076.6863639189
 10
6592.1980961837
 20
-12084.1748351448
 10
6594.4169024729
 20
-12095.2688665906
 10
6595.8036564036
 20
-12109.4137566839
 10
6596.3583579759
 20
-12126.886856211
 10
6596.3583579759
 20
-12126.886856211
 10
6596.3583579759
 20
-13046.3047122803
 10
6596.3583579759
 20
-13046.3047122803
 10
6593.3074993283
 20
-13060.4496023737
 10
6587.7604836054
 20
-13070.4342306749
 10
6579.9946615934
 20
-13076.5359479701
 10
6569.732682506
 20
-13078.4774034731
 10
6569.732682506
 20
-13078.4774034731
 10
6559.1933526325
 20
-13075.9812463978
 10
6550.595478262
 20
-13069.0474767442
 10
6545.0484625392
 20
-13056.2893405815
 10
6543.1070070361
 20
-13036.5974347653
 10
6543.1070070361
 20
-13036.5974347653
 10
6543.1070070361
 20
-12696.8427217382
 10
6543.1070070361
 20
-12696.8427217382
 10
6257.9903988795
 20
-13076.5359479701
 10
6257.9903988795
 20
-13076.5359479701
 10
6248.0057705783
 20
-13078.4774034731
 10
6248.0057705783
 20
-13078.4774034731
 10
6069.3918643012
 20
-13078.4774034731
 10
6069.3918643012
 20
-13078.4774034731
 10
6060.7939899307
 20
-13070.4342306749
 10
6060.7939899307
 20
-13070.4342306749
 10
5889.1138533072
 20
-12824.1467325785
 10
5889.1138533072
 20
-12824.1467325785
 10
5886.3403454458
 20
-12803.90012519
 10
5886.3403454458
 20
-12803.90012519
 10
5886.3403454458
 20
-12092.7727095153
 10
5886.3403454458
 20
-12092.7727095153
 10
5889.1138533072
 20
-12084.4521859309
 10
5893.5514658855
 20
-12077.2410654912
 10
5899.3758323946
 20
-12071.4166989821
 10
5907.1416544066
 20
-12066.7017356177
 10
5907.1416544066
 20
-12066.7017356177
 10
5921.0091937139
 20
-12069.4752434791
 10
5930.9938220151
 20
-12078.0731178496
  0
LWPOLYLINE
  5
A0
330
1F
100
AcDbEntity
  8
0
  6
Continuous
 62
     7
100
AcDbPolyline
 90
       54
 70
   128
 43
0.0
 10
7557.3768615723
 20
-12068.3658403345
 10
7567.9181618404
 20
-12075.8543115604
 10
7574.2972299217
 20
-12088.6124477231
 10
7574.2972299217
 20
-12088.6124477231
 10
7573.1878267771
 20
-12109.4137566839
 10
7570.1369681295
 20
-12124.1133483496
 10
7570.1369681295
 20
-12124.1133483496
 10
7564.5899524066
 20
-12129.9377148586
 10
7557.656182753
 20
-12134.3753274369
 10
7549.6130099548
 20
-12136.8714845123
 10
7540.1830832259
 20
-12137.7035368707
 10
7540.1830832259
 20
-12137.7035368707
 10
7062.5850294849
 20
-12137.7035368707
 10
7062.5850294849
 20
-12137.7035368707
 10
6915.8664636145
 20
-12350.4315898436
 10
6915.8664636145
 20
-12350.4315898436
 10
6915.8664636145
 20
-12794.7475492472
 10
6915.8664636145
 20
-12794.7475492472
 10
7062.5850294849
 20
-13007.4756022201
 10
7062.5850294849
 20
-13007.4756022201
 10
7551.5544654578
 20
-13007.4756022201
 10
7551.5544654578
 20
-13007.4756022201
 10
7558.2108843253
 20
-13009.1397069369
 10
7563.7579000482
 20
-13013.022617943
 10
7568.1955126265
 20
-13018.5696336659
 10
7571.5237220602
 20
-13026.0581048918
 10
7571.5237220602
 20
-13026.0581048918
 10
7574.5745807078
 20
-13034.6559792622
 10
7575.6839838524
 20
-13042.9765028466
 10
7575.6839838524
 20
-13042.9765028466
 10
7574.0198791355
 20
-13054.9025866508
 10
7569.3049157711
 20
-13066.828670455
 10
7565.4220047651
 20
-13071.8209846056
 10
7559.597638256
 20
-13075.4265448255
 10
7552.3865178163
 20
-13077.6453511147
 10
7543.2339418735
 20
-13078.4774034731
 10
7543.2339418735
 20
-13078.4774034731
 10
7043.7251760271
 20
-13078.4774034731
 10
7043.7251760271
 20
-13078.4774034731
 10
7035.1273016566
 20
-13070.4342306749
 10
7035.1273016566
 20
-13070.4342306749
 10
6862.6151126747
 20
-12824.1467325785
 10
6862.6151126747
 20
-12824.1467325785
 10
6862.6151126747
 20
-12803.90012519
 10
6862.6151126747
 20
-12803.90012519
 10
6864.0018666054
 20
-12327.1341238074
 10
6864.0018666054
 20
-12327.1341238074
 10
6869.5488823283
 20
-12313.2665845002
 10
6869.5488823283
 20
-12313.2665845002
 10
7042.0610713102
 20
-12070.5846466237
 10
7042.0610713102
 20
-12070.5846466237
 10
7050.3815948946
 20
-12066.7017356177
 10
7050.3815948946
 20
-12066.7017356177
 10
7557.3788319669
 20
-12068.3658403345
  0
LWPOLYLINE
  5
A1
330
1F
100
AcDbEntity
  8
0
  6
Continuous
 62
     7
100
AcDbPolyline
 90
       83
 70
   128
 43
0.0
 10
8203.8803100586
 20
-11617.1161112773
 10
8207.2117239036
 20
-11624.8819332894
 10
8209.7078809789
 20
-11635.9759647351
 10
8211.0946349096
 20
-11651.2302579731
 10
8211.6493364819
 20
-11669.8127606448
 10
8211.6493364819
 20
-11669.8127606448
 10
8211.6493364819
 20
-12102.2026362442
 10
8211.6493364819
 20
-12102.2026362442
 10
8531.4347929066
 20
-12102.2026362442
 10
8531.4347929066
 20
-12102.2026362442
 10
8539.2006149187
 20
-12106.6402488225
 10
8545.3023322139
 20
-12113.0193169038
 10
8549.462594006
 20
-12121.3398404882
 10
8551.9587510813
 20
-12131.6018195755
 10
8551.9587510813
 20
-12131.6018195755
 10
8549.7399447922
 20
-12146.5787620273
 10
8543.0835259247
 20
-12160.1689505484
 10
8537.5365102018
 20
-12165.9933170574
 10
8529.4933374036
 20
-12169.8762280635
 10
8518.9540075301
 20
-12172.3723851388
 10
8506.1958713675
 20
-12173.2044374972
 10
8506.1958713675
 20
-12173.2044374972
 10
8211.6493364819
 20
-12173.2044374972
 10
8211.6493364819
 20
-12173.2044374972
 10
8211.6493364819
 20
-12811.3885964159
 10
8211.6493364819
 20
-12811.3885964159
 10
8350.8794311265
 20
-13002.2059372833
 10
8350.8794311265
 20
-13002.2059372833
 10
8506.4732221536
 20
-12789.7552350966
 10
8506.4732221536
 20
-12789.7552350966
 10
8513.1296410211
 20
-12785.0402717321
 10
8521.1728138193
 20
-12783.6535178014
 10
8521.1728138193
 20
-12783.6535178014
 10
8531.4347929066
 20
-12786.4270256629
 10
8541.696771994
 20
-12795.0249000333
 10
8549.462594006
 20
-12808.0603869821
 10
8551.9587510813
 20
-12824.7014341508
 10
8551.9587510813
 20
-12824.7014341508
 10
8549.1852432199
 20
-12843.2839368225
 10
8549.1852432199
 20
-12843.2839368225
 10
8370.2939861566
 20
-13074.8718432532
 10
8370.2939861566
 20
-13074.8718432532
 10
8364.1922688614
 20
-13077.6453511147
 10
8354.4849913464
 20
-13078.4774034731
 10
8354.4849913464
 20
-13078.4774034731
 10
8342.8362583283
 20
-13078.4774034731
 10
8342.8362583283
 20
-13078.4774034731
 10
8332.8516300271
 20
-13066.828670455
 10
8332.8516300271
 20
-13066.828670455
 10
8159.7847394729
 20
-12830.2484498737
 10
8159.7847394729
 20
-12830.2484498737
 10
8158.3979855422
 20
-12810.5565440574
 10
8158.3979855422
 20
-12810.5565440574
 10
8158.3979855422
 20
-12173.2044374972
 10
8158.3979855422
 20
-12173.2044374972
 10
7862.1873459398
 20
-12173.2044374972
 10
7862.1873459398
 20
-12173.2044374972
 10
7856.3629794307
 20
-12171.5403327803
 10
7851.3706652801
 20
-12166.8253694159
 10
7846.9330527018
 20
-12159.0595474038
 10
7843.0501416958
 20
-12147.965515958
 10
7843.0501416958
 20
-12147.965515958
 10
7839.9992830482
 20
-12133.2659242924
 10
7838.8898799036
 20
-12119.9530865574
 10
7838.8898799036
 20
-12119.9530865574
 10
7840.8313354066
 20
-12100.5385315273
 10
7846.3783511295
 20
-12083.3427827863
 10
7851.6480160663
 20
-12076.1316623466
 10
7860.2458904367
 20
-12070.8619974098
 10
7871.3399218825
 20
-12067.8111387622
 10
7885.762162762
 20
-12066.7017356177
 10
7885.762162762
 20
-12066.7017356177
 10
8158.3979855422
 20
-12066.7017356177
 10
8158.3979855422
 20
-12066.7017356177
 10
8158.3979855422
 20
-11633.2024568737
 10
8158.3979855422
 20
-11633.2024568737
 10
8161.1714934036
 20
-11622.3857762141
 10
8165.6091059819
 20
-11614.0652526297
 10
8171.433472491
 20
-11608.5182369068
 10
8179.199294503
 20
-11605.1900274731
 10
8179.199294503
 20
-11605.1900274731
 10
8193.8988861687
 20
-11608.2408861207
 10
8203.8835144699
 20
-11617.1161112773
  0
LWPOLYLINE
  5
A2
330
1F
100
AcDbEntity
  8
0
  6
Continuous
 62
     7
100
AcDbPolyline
 90
       30
 70
   128
 43
0.0
 10
8860.6491088867
 20
-12787.2590780213
 10
8863.978385494
 20
-12794.1928476749
 10
8866.4745425693
 20
-12804.1774759761
 10
8867.8612965
 20
-12817.7676644972
 10
8868.4159980723
 20
-12834.4087116659
 10
8868.4159980723
 20
-12834.4087116659
 10
8868.4159980723
 20
-13047.691466211
 10
8868.4159980723
 20
-13047.691466211
 10
8864.2557362801
 20
-13062.1137070906
 10
8854.5484587651
 20
-13074.5944924671
 10
8854.5484587651
 20
-13074.5944924671
 10
8849.5561446145
 20
-13077.3680003285
 10
8841.7903226024
 20
-13078.4774034731
 10
8841.7903226024
 20
-13078.4774034731
 10
8830.4189403705
 20
-13076.2585971839
 10
8822.0984167861
 20
-13069.8795291026
 10
8819.0475581386
 20
-13064.6098641659
 10
8816.8287518494
 20
-13057.12139294
 10
8815.7193487048
 20
-13047.691466211
 10
8815.1646471325
 20
-13036.3200839791
 10
8815.1646471325
 20
-13036.3200839791
 10
8815.1646471325
 20
-12803.6227744038
 10
8815.1646471325
 20
-12803.6227744038
 10
8818.4928565663
 20
-12791.9740413857
 10
8823.4851707169
 20
-12783.3761670153
 10
8829.8642387982
 20
-12778.3838528647
 10
8837.9074115964
 20
-12776.7197481478
 10
8837.9074115964
 20
-12776.7197481478
 10
8851.2202493313
 20
-12779.2159052231
 10
8860.6501760602
 20
-12787.2590780213
  0
LWPOLYLINE
  5
A3
330
1F
100
AcDbEntity
  8
0
  6
Continuous
 62
     7
100
AcDbPolyline
 90
       56
 70
   128
 43
0.0
 10
-18688.5986328125
 20
-13816.78519619
 10
-18681.392291241
 20
-13819.8360548376
 10
-18675.5679247319
 20
-13825.1057197743
 10
-18671.6850137259
 20
-13833.4262433586
 10
-18669.4662074367
 20
-13843.9655732321
 10
-18669.4662074367
 20
-13843.9655732321
 10
-18671.4076629398
 20
-13861.9933743315
 10
-18676.9546786626
 20
-13875.3062120665
 10
-18681.9469928133
 20
-13880.0211754309
 10
-18689.158113253
 20
-13883.3493848647
 10
-18698.5880399819
 20
-13885.5681911538
 10
-18710.5141237861
 20
-13886.1228927261
 10
-18710.5141237861
 20
-13886.1228927261
 10
-19301.5486490602
 20
-13886.1228927261
 10
-19301.5486490602
 20
-13886.1228927261
 10
-19301.5486490602
 20
-14542.8895543165
 10
-19301.5486490602
 20
-14542.8895543165
 10
-19006.1700618163
 20
-14542.8895543165
 10
-19006.1700618163
 20
-14542.8895543165
 10
-18996.4627843012
 20
-14548.1592192532
 10
-18989.8063654337
 20
-14555.370339693
 10
-18985.6461036416
 20
-14565.077617208
 10
-18984.2593497108
 20
-14576.7263502261
 10
-18984.2593497108
 20
-14576.7263502261
 10
-18985.3687528554
 20
-14589.4844863888
 10
-18989.2516638614
 20
-14600.5785178345
 10
-18992.5798732952
 20
-14605.0161304129
 10
-18997.8495382319
 20
-14608.8990414189
 10
-19005.3380094578
 20
-14611.6725492803
 10
-19014.4905854006
 20
-14613.8913555695
 10
-19014.4905854006
 20
-14613.8913555695
 10
-19301.5486490602
 20
-14613.8913555695
 10
-19301.5486490602
 20
-14613.8913555695
 10
-19301.5486490602
 20
-15257.3451794249
 10
-19301.5486490602
 20
-15257.3451794249
 10
-19305.7089108524
 20
-15271.7674203044
 10
-19315.4161883675
 20
-15284.5255564671
 10
-19315.4161883675
 20
-15284.5255564671
 10
-19320.4085025181
 20
-15287.2990643285
 10
-19328.1743245301
 20
-15288.4084674731
 10
-19328.1743245301
 20
-15288.4084674731
 10
-19339.545706762
 20
-15286.1896611839
 10
-19347.8662303464
 20
-15279.5332423165
 10
-19350.917088994
 20
-15273.9862265936
 10
-19353.1358952831
 20
-15266.2204045815
 10
-19354.2452984277
 20
-15256.2357762803
 10
-19354.8
 20
-15244.3096924761
 10
-19354.8
 20
-15244.3096924761
 10
-19354.8
 20
-13843.1335208737
 10
-19354.8
 20
-13843.1335208737
 10
-19351.7491413524
 20
-13833.9809449309
 10
-19347.034177988
 20
-13826.2151229189
 10
-19340.3777591205
 20
-13819.8360548376
 10
-19331.77988475
 20
-13815.1210914731
 10
-19331.77988475
 20
-13815.1210914731
 10
-18688.6034116807
 20
-13816.78519619
  0
LWPOLYLINE
  5
A4
330
1F
100
AcDbEntity
  8
0
  6
Continuous
 62
     7
100
AcDbPolyline
 90
       32
 70
   128
 43
0.0
 10
-17903.6865234375
 20
-14304.090527446
 10
-17742.2825293554
 20
-14546.2177637502
 10
-17742.2825293554
 20
-14546.2177637502
 10
-17739.509021494
 20
-14563.9682140635
 10
-17739.509021494
 20
-14563.9682140635
 10
-17739.509021494
 20
-15030.4722363586
 10
-17739.509021494
 20
-15030.4722363586
 10
-17744.7786864307
 20
-15046.2812311689
 10
-17744.7786864307
 20
-15046.2812311689
 10
-17909.2477026145
 20
-15286.4670119701
 10
-17909.2477026145
 20
-15286.4670119701
 10
-17922.5605403494
 20
-15288.4084674731
 10
-17922.5605403494
 20
-15288.4084674731
 10
-18241.7912952018
 20
-15288.4084674731
 10
-18241.7912952018
 20
-15288.4084674731
 10
-18249.834468
 20
-15280.642645461
 10
-18249.834468
 20
-15280.642645461
 10
-18412.6393794669
 20
-15038.5154091568
 10
-18412.6393794669
 20
-15038.5154091568
 10
-18414.0261333976
 20
-15018.8235033406
 10
-18414.0261333976
 20
-15018.8235033406
 10
-18414.0261333976
 20
-14550.3780255424
 10
-18414.0261333976
 20
-14550.3780255424
 10
-18408.7564684608
 20
-14536.5104862351
 10
-18408.7564684608
 20
-14536.5104862351
 10
-18244.2874522771
 20
-14298.2661609369
 10
-18244.2874522771
 20
-14298.2661609369
 10
-18236.2442794789
 20
-14294.3832499309
 10
-18236.2442794789
 20
-14294.3832499309
 10
-17913.1306136205
 20
-14296.3247054339
 10
-17913.1306136205
 20
-14296.3247054339
 10
-17903.7006868916
 20
-14304.090527446
  0
LWPOLYLINE
  5
A5
330
1F
100
AcDbEntity
  8
0
  6
Continuous
 62
     7
100
AcDbPolyline
 90
       16
 70
   128
 43
0.0
 10
-17792.7551269531
 20
-14574.2301931508
 10
-17931.7131162922
 20
-14365.3850511839
 10
-17931.7131162922
 20
-14365.3850511839
 10
-18221.8220385994
 20
-14365.3850511839
 10
-18221.8220385994
 20
-14365.3850511839
 10
-18360.7747824578
 20
-14572.2887376478
 10
-18360.7747824578
 20
-14572.2887376478
 10
-18360.7747824578
 20
-15008.5615242532
 10
-18360.7747824578
 20
-15008.5615242532
 10
-18221.8220385994
 20
-15217.4066662201
 10
-18221.8220385994
 20
-15217.4066662201
 10
-17931.7131162922
 20
-15217.4066662201
 10
-17931.7131162922
 20
-15217.4066662201
 10
-17792.7603724337
 20
-15006.3427179641
 10
-17792.7603724337
 20
-15006.3427179641
 10
-17792.7603724337
 20
-14574.2301931508
  0
LWPOLYLINE
  5
A6
330
1F
100
AcDbEntity
  8
0
  6
Continuous
 62
     7
100
AcDbPolyline
 90
       59
 70
   128
 43
0.0
 10
-16955.7037353516
 20
-14304.3678782321
 10
-16790.6919820934
 20
-14551.2100779008
 10
-16790.6919820934
 20
-14551.2100779008
 10
-16788.4731758042
 20
-14561.7494077743
 10
-16787.9184742319
 20
-14569.2378790002
 10
-16787.9184742319
 20
-14569.2378790002
 10
-16788.1958250181
 20
-14577.8357533707
 10
-16789.3052281627
 20
-14583.3827690936
 10
-16789.3052281627
 20
-14583.3827690936
 10
-16793.4654899548
 20
-14594.1994497532
 10
-16799.2898564639
 20
-14602.5199733376
 10
-16806.5009769036
 20
-14608.0669890604
 10
-16815.0988512741
 20
-14611.3951984942
 10
-16815.0988512741
 20
-14611.3951984942
 10
-16827.8569874367
 20
-14607.5122874882
 10
-16838.3963173102
 20
-14596.4182560424
 10
-16838.3963173102
 20
-14596.4182560424
 10
-16985.9469355392
 20
-14365.3850511839
 10
-16985.9469355392
 20
-14365.3850511839
 10
-17121.0167683916
 20
-14365.3850511839
 10
-17121.0167683916
 20
-14365.3850511839
 10
-17420.0009158554
 20
-14801.9351885755
 10
-17420.0009158554
 20
-14801.9351885755
 10
-17420.0009158554
 20
-15256.5131270665
 10
-17420.0009158554
 20
-15256.5131270665
 10
-17424.1611776476
 20
-15271.4900695183
 10
-17433.8684551627
 20
-15284.5255564671
 10
-17433.8684551627
 20
-15284.5255564671
 10
-17438.8607693133
 20
-15287.2990643285
 10
-17446.6265913253
 20
-15288.4084674731
 10
-17446.6265913253
 20
-15288.4084674731
 10
-17457.9979735572
 20
-15286.1896611839
 10
-17466.3184971416
 20
-15279.5332423165
 10
-17469.3693557892
 20
-15273.9862265936
 10
-17471.5881620783
 20
-15266.4977553677
 10
-17472.6975652229
 20
-15256.7904778526
 10
-17473.2522667952
 20
-15245.1417448345
 10
-17473.2522667952
 20
-15245.1417448345
 10
-17473.2522667952
 20
-14322.1183285454
 10
-17473.2522667952
 20
-14322.1183285454
 10
-17470.4787589337
 20
-14311.3016478857
 10
-17465.4864447831
 20
-14303.2584750876
 10
-17459.1073767018
 20
-14297.4341085785
 10
-17450.5095023313
 20
-14294.3832499309
 10
-17450.5095023313
 20
-14294.3832499309
 10
-17438.5834185271
 20
-14296.8794070062
 10
-17428.876141012
 20
-14304.6452290183
 10
-17424.993230006
 20
-14311.3016478857
 10
-17422.2197221446
 20
-14321.5636269731
 10
-17420.5556174277
 20
-14335.4311662803
 10
-17420.0009158554
 20
-14352.9042658074
 10
-17420.0009158554
 20
-14352.9042658074
 10
-17420.0009158554
 20
-14696.2645390544
 10
-17420.0009158554
 20
-14696.2645390544
 10
-17137.3804647741
 20
-14294.3832499309
 10
-17137.3804647741
 20
-14294.3832499309
 10
-16965.4229773645
 20
-14296.3247054339
 10
-16965.4229773645
 20
-14296.3247054339
 10
-16955.7156998494
 20
-14304.3678782321
  0
LWPOLYLINE
  5
A7
330
1F
100
AcDbEntity
  8
0
  6
Continuous
 62
     7
100
AcDbPolyline
 90
       63
 70
   128
 43
0.0
 10
-15240.2954101562
 20
-13816.78519619
 10
-15233.0899671054
 20
-13819.8360548376
 10
-15227.2656005964
 20
-13825.1057197743
 10
-15223.3826895904
 20
-13833.4262433586
 10
-15221.1638833012
 20
-13843.9655732321
 10
-15221.1638833012
 20
-13843.9655732321
 10
-15222.5506372319
 20
-13860.8839711869
 10
-15226.7108990241
 20
-13874.1968089219
 10
-15226.7108990241
 20
-13874.1968089219
 10
-15232.5352655331
 20
-13879.4664738586
 10
-15240.3010875452
 20
-13883.0720340785
 10
-15250.2857158464
 20
-13885.2908403677
 10
-15262.2117996506
 20
-13886.1228927261
 10
-15262.2117996506
 20
-13886.1228927261
 10
-15378.6991298313
 20
-13886.1228927261
 10
-15378.6991298313
 20
-13886.1228927261
 10
-15378.6991298313
 20
-15217.4066662201
 10
-15378.6991298313
 20
-15217.4066662201
 10
-15240.3010875452
 20
-15217.4066662201
 10
-15240.3010875452
 20
-15217.4066662201
 10
-15233.0899671054
 20
-15221.8442787984
 10
-15227.2656005964
 20
-15228.2233468797
 10
-15223.3826895904
 20
-15236.5438704641
 10
-15221.1638833012
 20
-15246.8058495514
 10
-15221.1638833012
 20
-15246.8058495514
 10
-15222.5506372319
 20
-15264.0015982924
 10
-15227.2656005964
 20
-15277.3144360273
 10
-15231.1485116024
 20
-15282.0293993918
 10
-15236.6955273253
 20
-15285.6349596116
 10
-15243.6292969789
 20
-15287.5764151147
 10
-15252.5045221355
 20
-15288.4084674731
 10
-15252.5045221355
 20
-15288.4084674731
 10
-15572.5673293464
 20
-15288.4084674731
 10
-15572.5673293464
 20
-15288.4084674731
 10
-15579.7784497861
 20
-15283.9708548948
 10
-15585.6028162952
 20
-15277.8691375996
 10
-15589.4857273012
 20
-15269.5486140153
 10
-15591.7045335904
 20
-15259.5639857141
 10
-15591.7045335904
 20
-15259.5639857141
 10
-15589.7630780874
 20
-15241.5361846147
 10
-15584.2160623645
 20
-15228.5006976659
 10
-15579.2237482139
 20
-15223.5083835153
 10
-15571.735276988
 20
-15220.1801740815
 10
-15562.0279994729
 20
-15217.9613677924
 10
-15550.1019156687
 20
-15217.4066662201
 10
-15550.1019156687
 20
-15217.4066662201
 10
-15431.9504807711
 20
-15217.4066662201
 10
-15431.9504807711
 20
-15217.4066662201
 10
-15431.9504807711
 20
-13886.1228927261
 10
-15431.9504807711
 20
-13886.1228927261
 10
-15571.1805754157
 20
-13886.1228927261
 10
-15571.1805754157
 20
-13886.1228927261
 10
-15579.2237482139
 20
-13882.2399817201
 10
-15585.0481147229
 20
-13876.1382644249
 10
-15589.4857273012
 20
-13867.5403900544
 10
-15591.7045335904
 20
-13856.7237093948
 10
-15591.7045335904
 20
-13856.7237093948
 10
-15590.0404288735
 20
-13838.9732590815
 10
-15585.0481147229
 20
-13827.3245260635
 10
-15577.559643497
 20
-13819.8360548376
 10
-15568.6844183404
 20
-13815.1210914731
 10
-15568.6844183404
 20
-13815.1210914731
 10
-15240.3010875452
 20
-13816.78519619
  0
LWPOLYLINE
  5
A8
330
1F
100
AcDbEntity
  8
0
  6
Continuous
 62
     7
100
AcDbPolyline
 90
       61
 70
   128
 43
0.0
 10
-14460.9451293945
 20
-14304.090527446
 10
-14298.6951685843
 20
-14546.2177637502
 10
-14298.6951685843
 20
-14546.2177637502
 10
-14295.9216607229
 20
-14563.9682140635
 10
-14295.9216607229
 20
-14563.9682140635
 10
-14295.9216607229
 20
-15256.7904778526
 10
-14295.9216607229
 20
-15256.7904778526
 10
-14298.9725193705
 20
-15270.6580171598
 10
-14304.5195350934
 20
-15280.3652946749
 10
-14312.2853571054
 20
-15286.4670119701
 10
-14322.5473361928
 20
-15288.4084674731
 10
-14322.5473361928
 20
-15288.4084674731
 10
-14333.0866660663
 20
-15285.9123103978
 10
-14341.6845404367
 20
-15278.4238391719
 10
-14347.2315561596
 20
-15264.8336506508
 10
-14349.1730116627
 20
-15244.5870432623
 10
-14349.1730116627
 20
-15244.5870432623
 10
-14349.1730116627
 20
-14572.8434392201
 10
-14349.1730116627
 20
-14572.8434392201
 10
-14488.1257555211
 20
-14365.3850511839
 10
-14488.1257555211
 20
-14365.3850511839
 10
-14621.8088344428
 20
-14365.3850511839
 10
-14621.8088344428
 20
-14365.3850511839
 10
-14917.1874216867
 20
-14801.9351885755
 10
-14917.1874216867
 20
-14801.9351885755
 10
-14917.1874216867
 20
-15256.5131270665
 10
-14917.1874216867
 20
-15256.5131270665
 10
-14921.3476834789
 20
-15271.4900695183
 10
-14931.054960994
 20
-15284.5255564671
 10
-14931.054960994
 20
-15284.5255564671
 10
-14936.0472751446
 20
-15287.2990643285
 10
-14943.8130971566
 20
-15288.4084674731
 10
-14943.8130971566
 20
-15288.4084674731
 10
-14955.1844793886
 20
-15286.1896611839
 10
-14963.5050029729
 20
-15279.5332423165
 10
-14966.5558616205
 20
-15273.9862265936
 10
-14968.7746679096
 20
-15266.4977553677
 10
-14969.8840710542
 20
-15256.7904778526
 10
-14970.4387726265
 20
-15245.1417448345
 10
-14970.4387726265
 20
-15245.1417448345
 10
-14970.4387726265
 20
-14322.1183285454
 10
-14970.4387726265
 20
-14322.1183285454
 10
-14967.6652647651
 20
-14311.3016478857
 10
-14962.6729506145
 20
-14303.2584750876
 10
-14956.2938825331
 20
-14297.4341085785
 10
-14947.6960081627
 20
-14294.3832499309
 10
-14947.6960081627
 20
-14294.3832499309
 10
-14935.7699243584
 20
-14296.8794070062
 10
-14926.0626468434
 20
-14304.6452290183
 10
-14922.1797358373
 20
-14311.3016478857
 10
-14919.4062279759
 20
-14321.5636269731
 10
-14917.742123259
 20
-14335.4311662803
 10
-14917.1874216867
 20
-14352.9042658074
 10
-14917.1874216867
 20
-14352.9042658074
 10
-14917.1874216867
 20
-14696.2645390544
 10
-14917.1874216867
 20
-14696.2645390544
 10
-14639.559284756
 20
-14294.3832499309
 10
-14639.559284756
 20
-14294.3832499309
 10
-14470.3753052078
 20
-14296.3247054339
 10
-14470.3753052078
 20
-14296.3247054339
 10
-14460.9453784789
 20
-14304.090527446
  0
LWPOLYLINE
  5
A9
330
1F
100
AcDbEntity
  8
0
  6
Continuous
 62
     7
100
AcDbPolyline
 90
       78
 70
   128
 43
0.0
 10
-13369.8425292969
 20
-14296.0473546478
 10
-13361.5268622018
 20
-14303.5358258737
 10
-13355.1477941205
 20
-14316.2939620363
 10
-13355.1477941205
 20
-14316.2939620363
 10
-13355.4251449066
 20
-14328.7747474129
 10
-13355.9798464789
 20
-14338.7593757141
 10
-13357.3666004096
 20
-14346.5251977261
 10
-13359.0307051265
 20
-14351.7948626629
 10
-13359.0307051265
 20
-14351.7948626629
 10
-13363.1909669187
 20
-14357.6192291719
 10
-13369.2926842139
 20
-14362.0568417502
 10
-13376.7811554398
 20
-14364.5529988255
 10
-13385.9337313825
 20
-14365.3850511839
 10
-13385.9337313825
 20
-14365.3850511839
 10
-13834.4099525783
 20
-14365.3850511839
 10
-13834.4099525783
 20
-14365.3850511839
 10
-13960.327209488
 20
-14569.5152297863
 10
-13960.327209488
 20
-14569.5152297863
 10
-13833.5779002199
 20
-14773.6454083888
 10
-13833.5779002199
 20
-14773.6454083888
 10
-13528.4920354608
 20
-14773.6454083888
 10
-13528.4920354608
 20
-14773.6454083888
 10
-13519.0621087319
 20
-14781.1338796147
 10
-13519.0621087319
 20
-14781.1338796147
 10
-13357.9213019819
 20
-15012.9991368315
 10
-13357.9213019819
 20
-15012.9991368315
 10
-13355.7024956928
 20
-15023.2611159189
 10
-13355.1477941205
 20
-15031.8589902894
 10
-13355.1477941205
 20
-15031.8589902894
 10
-13355.7024956928
 20
-15037.6833567984
 10
-13357.9213019819
 20
-15047.1132835273
 10
-13357.9213019819
 20
-15047.1132835273
 10
-13364.5777208494
 20
-15060.1487704761
 10
-13364.5777208494
 20
-15060.1487704761
 10
-13525.1638260271
 20
-15286.4670119701
 10
-13525.1638260271
 20
-15286.4670119701
 10
-13538.476663762
 20
-15288.4084674731
 10
-13538.476663762
 20
-15288.4084674731
 10
-14013.5785604277
 20
-15288.4084674731
 10
-14013.5785604277
 20
-15288.4084674731
 10
-14023.0084871566
 20
-15280.3652946749
 10
-14029.6649060241
 20
-15266.4977553677
 10
-14029.6649060241
 20
-15266.4977553677
 10
-14025.5046442319
 20
-15259.5639857141
 10
-14029.6649060241
 20
-15252.9075668466
 10
-14029.6649060241
 20
-15252.9075668466
 10
-14027.7234505211
 20
-15236.8212212502
 10
-14021.6217332259
 20
-15226.0045405906
 10
-14016.3520682892
 20
-15222.1216295845
 10
-14009.1409478494
 20
-15219.6254725092
 10
-13999.9883719066
 20
-15217.9613677924
 10
-13988.8943404608
 20
-15217.4066662201
 10
-13988.8943404608
 20
-15217.4066662201
 10
-13541.5275224096
 20
-15217.4066662201
 10
-13541.5275224096
 20
-15217.4066662201
 10
-13413.668809997
 20
-15029.9175347863
 10
-13413.668809997
 20
-15029.9175347863
 10
-13541.2501716235
 20
-14844.6472096418
 10
-13541.2501716235
 20
-14844.6472096418
 10
-13851.8830521054
 20
-14844.6472096418
 10
-13851.8830521054
 20
-14844.6472096418
 10
-13861.3129788343
 20
-14836.6040368436
 10
-13861.3129788343
 20
-14836.6040368436
 10
-14026.8913981627
 20
-14587.5430308857
 10
-14026.8913981627
 20
-14587.5430308857
 10
-14028.8328536657
 20
-14579.4998580876
 10
-14029.6649060241
 20
-14567.5737742833
 10
-14029.6649060241
 20
-14567.5737742833
 10
-14029.387555238
 20
-14558.9758999129
 10
-14028.2781520934
 20
-14553.42888419
 10
-14028.2781520934
 20
-14553.42888419
 10
-14020.2349792952
 20
-14539.2839940966
 10
-14020.2349792952
 20
-14539.2839940966
 10
-13859.3715233313
 20
-14298.2661609369
 10
-13859.3715233313
 20
-14298.2661609369
 10
-13851.3283505331
 20
-14294.3832499309
 10
-13851.3283505331
 20
-14294.3832499309
 10
-13369.8473857861
 20
-14296.0473546478
  0
LWPOLYLINE
  5
AA
330
1F
100
AcDbEntity
  8
0
  6
Continuous
 62
     7
100
AcDbPolyline
 90
       83
 70
   128
 43
0.0
 10
-12723.8922119141
 20
-13827.0471752773
 10
-12720.5691954217
 20
-13834.8129972894
 10
-12718.0730383464
 20
-13845.9070287351
 10
-12716.6862844157
 20
-13861.1613219731
 10
-12716.1315828434
 20
-13879.7438246448
 10
-12716.1315828434
 20
-13879.7438246448
 10
-12716.1315828434
 20
-14312.1337002442
 10
-12716.1315828434
 20
-14312.1337002442
 10
-12422.4171003163
 20
-14312.1337002442
 10
-12422.4171003163
 20
-14312.1337002442
 10
-12415.2059798765
 20
-14316.5713128225
 10
-12409.6589641536
 20
-14322.9503809038
 10
-12405.7760531476
 20
-14331.2709044882
 10
-12403.5572468584
 20
-14341.5328835755
 10
-12403.5572468584
 20
-14341.5328835755
 10
-12405.4987023614
 20
-14356.5098260273
 10
-12411.8777704428
 20
-14370.1000145484
 10
-12416.8700845934
 20
-14375.9243810574
 10
-12424.3585558193
 20
-14379.8072920635
 10
-12433.7884825482
 20
-14382.3034491388
 10
-12445.4372155663
 20
-14383.1355014972
 10
-12445.4372155663
 20
-14383.1355014972
 10
-12716.1315828434
 20
-14383.1355014972
 10
-12716.1315828434
 20
-14383.1355014972
 10
-12716.1315828434
 20
-15021.3196604159
 10
-12716.1315828434
 20
-15021.3196604159
 10
-12588.2728704307
 20
-15212.1370012833
 10
-12588.2728704307
 20
-15212.1370012833
 10
-12445.4372155663
 20
-14999.6862990966
 10
-12445.4372155663
 20
-14999.6862990966
 10
-12439.3354982711
 20
-14994.9713357321
 10
-12431.8470270452
 20
-14993.5845818014
 10
-12431.8470270452
 20
-14993.5845818014
 10
-12422.4171003163
 20
-14996.3580896629
 10
-12412.9871735873
 20
-15004.9559640333
 10
-12405.7760531476
 20
-15017.9914509821
 10
-12403.5572468584
 20
-15034.6324981508
 10
-12403.5572468584
 20
-15034.6324981508
 10
-12406.3307547199
 20
-15053.2150008225
 10
-12406.3307547199
 20
-15053.2150008225
 10
-12572.4638756205
 20
-15284.8029072532
 10
-12572.4638756205
 20
-15284.8029072532
 10
-12578.0108913434
 20
-15287.5764151147
 10
-12587.1634672861
 20
-15288.4084674731
 10
-12587.1634672861
 20
-15288.4084674731
 10
-12597.9801479458
 20
-15288.4084674731
 10
-12597.9801479458
 20
-15288.4084674731
 10
-12607.1327238886
 20
-15276.759734455
 10
-12607.1327238886
 20
-15276.759734455
 10
-12767.9961798524
 20
-15040.1795138737
 10
-12767.9961798524
 20
-15040.1795138737
 10
-12769.3829337831
 20
-15020.4876080574
 10
-12769.3829337831
 20
-15020.4876080574
 10
-12769.3829337831
 20
-14383.1355014972
 10
-12769.3829337831
 20
-14383.1355014972
 10
-13065.5935733855
 20
-14383.1355014972
 10
-13065.5935733855
 20
-14383.1355014972
 10
-13071.4179398946
 20
-14381.7487475665
 10
-13076.4102540452
 20
-14377.8658365604
 10
-13080.8478666235
 20
-14371.209417693
 10
-13084.7307776295
 20
-14362.0568417502
 10
-13084.7307776295
 20
-14362.0568417502
 10
-13087.7816362771
 20
-14349.8534071598
 10
-13088.8910394217
 20
-14338.7593757141
 10
-13088.8910394217
 20
-14338.7593757141
 10
-13086.9495839187
 20
-14322.6730301177
 10
-13081.4025681958
 20
-14308.2507892382
 10
-13076.132903259
 20
-14302.149071943
 10
-13067.5350288886
 20
-14297.7114593647
 10
-13056.4409974428
 20
-14295.2153022894
 10
-13042.0187565633
 20
-14294.3832499309
 10
-13042.0187565633
 20
-14294.3832499309
 10
-12769.3829337831
 20
-14294.3832499309
 10
-12769.3829337831
 20
-14294.3832499309
 10
-12769.3829337831
 20
-13844.2429240183
 10
-12769.3829337831
 20
-13844.2429240183
 10
-12766.6094259217
 20
-13833.1488925725
 10
-12762.1718133434
 20
-13824.551018202
 10
-12756.3474468343
 20
-13818.4493009068
 10
-12748.5816248223
 20
-13815.1210914731
 10
-12748.5816248223
 20
-13815.1210914731
 10
-12733.8820331566
 20
-13818.1719501207
 10
-12723.8974048554
 20
-13827.0471752773
  0
LWPOLYLINE
  5
AB
330
1F
100
AcDbEntity
  8
0
  6
Continuous
 62
     7
100
AcDbPolyline
 90
       59
 70
   128
 43
0.0
 10
-11630.5770874023
 20
-14304.3678782321
 10
-11465.5568881175
 20
-14551.2100779008
 10
-11465.5568881175
 20
-14551.2100779008
 10
-11463.3380818283
 20
-14561.7494077743
 10
-11462.783380256
 20
-14569.2378790002
 10
-11462.783380256
 20
-14569.2378790002
 10
-11463.0607310422
 20
-14577.8357533707
 10
-11464.1701341867
 20
-14583.3827690936
 10
-11464.1701341867
 20
-14583.3827690936
 10
-11468.3303959789
 20
-14594.1994497532
 10
-11474.154762488
 20
-14602.5199733376
 10
-11481.3658829277
 20
-14608.0669890604
 10
-11489.9637572982
 20
-14611.3951984942
 10
-11489.9637572982
 20
-14611.3951984942
 10
-11502.7218934608
 20
-14607.5122874882
 10
-11513.2612233343
 20
-14596.4182560424
 10
-11513.2612233343
 20
-14596.4182560424
 10
-11660.8118415633
 20
-14365.3850511839
 10
-11660.8118415633
 20
-14365.3850511839
 10
-11795.8816744157
 20
-14365.3850511839
 10
-11795.8816744157
 20
-14365.3850511839
 10
-12094.8658218795
 20
-14801.9351885755
 10
-12094.8658218795
 20
-14801.9351885755
 10
-12094.8658218795
 20
-15256.5131270665
 10
-12094.8658218795
 20
-15256.5131270665
 10
-12099.0260836717
 20
-15271.4900695183
 10
-12108.7333611867
 20
-15284.5255564671
 10
-12108.7333611867
 20
-15284.5255564671
 10
-12113.7256753374
 20
-15287.2990643285
 10
-12121.4914973494
 20
-15288.4084674731
 10
-12121.4914973494
 20
-15288.4084674731
 10
-12132.8628795813
 20
-15286.1896611839
 10
-12141.1834031657
 20
-15279.5332423165
 10
-12144.2342618133
 20
-15273.9862265936
 10
-12146.4530681024
 20
-15266.4977553677
 10
-12147.562471247
 20
-15256.7904778526
 10
-12148.1171728193
 20
-15245.1417448345
 10
-12148.1171728193
 20
-15245.1417448345
 10
-12148.1171728193
 20
-14322.1183285454
 10
-12148.1171728193
 20
-14322.1183285454
 10
-12145.3436649578
 20
-14311.3016478857
 10
-12140.3513508072
 20
-14303.2584750876
 10
-12133.9722827259
 20
-14297.4341085785
 10
-12125.3744083554
 20
-14294.3832499309
 10
-12125.3744083554
 20
-14294.3832499309
 10
-12113.4483245512
 20
-14296.8794070062
 10
-12103.7410470361
 20
-14304.6452290183
 10
-12099.8581360301
 20
-14311.3016478857
 10
-12097.0846281687
 20
-14321.5636269731
 10
-12095.4205234518
 20
-14335.4311662803
 10
-12094.8658218795
 20
-14352.9042658074
 10
-12094.8658218795
 20
-14352.9042658074
 10
-12094.8658218795
 20
-14696.2645390544
 10
-12094.8658218795
 20
-14696.2645390544
 10
-11812.2453707982
 20
-14294.3832499309
 10
-11812.2453707982
 20
-14294.3832499309
 10
-11640.2878833886
 20
-14296.3247054339
 10
-11640.2878833886
 20
-14296.3247054339
 10
-11630.5806058735
 20
-14304.3678782321
  0
LWPOLYLINE
  5
AC
330
1F
100
AcDbEntity
  8
0
  6
Continuous
 62
     7
100
AcDbPolyline
 90
       64
 70
   128
 43
0.0
 10
-11162.6892089844
 20
-14305.4772813767
 10
-11158.8069186416
 20
-14312.6884018165
 10
-11156.3107615663
 20
-14322.9503809038
 10
-11154.6466568494
 20
-14337.0952709972
 10
-11154.0919552771
 20
-14354.2910197382
 10
-11154.0919552771
 20
-14354.2910197382
 10
-11154.0919552771
 20
-15012.1670844731
 10
-11154.0919552771
 20
-15012.1670844731
 10
-11015.1392114187
 20
-15217.4066662201
 10
-11015.1392114187
 20
-15217.4066662201
 10
-10881.456132497
 20
-15217.4066662201
 10
-10881.456132497
 20
-15217.4066662201
 10
-10586.077545253
 20
-14778.9150733255
 10
-10586.077545253
 20
-14778.9150733255
 10
-10586.077545253
 20
-14324.3371348345
 10
-10586.077545253
 20
-14324.3371348345
 10
-10583.3040373916
 20
-14314.3525065333
 10
-10578.5890740271
 20
-14305.7546321629
 10
-10572.4873567319
 20
-14299.3755640815
 10
-10564.4441839337
 20
-14294.3832499309
 10
-10564.4441839337
 20
-14294.3832499309
 10
-10552.7954509157
 20
-14296.8794070062
 10
-10540.3146655392
 20
-14304.090527446
 10
-10540.3146655392
 20
-14304.090527446
 10
-10536.9864561054
 20
-14311.5789986719
 10
-10534.7676498163
 20
-14322.3956793315
 10
-10533.3808958855
 20
-14336.2632186388
 10
-10532.8261943133
 20
-14353.4589673797
 10
-10532.8261943133
 20
-14353.4589673797
 10
-10532.8261943133
 20
-15256.7904778526
 10
-10532.8261943133
 20
-15256.7904778526
 10
-10535.8770529608
 20
-15270.6580171598
 10
-10541.4240686837
 20
-15280.3652946749
 10
-10549.1898906958
 20
-15286.4670119701
 10
-10559.4518697831
 20
-15288.4084674731
 10
-10559.4518697831
 20
-15288.4084674731
 10
-10569.9911996566
 20
-15285.9123103978
 10
-10578.5890740271
 20
-15278.9785407442
 10
-10584.13608975
 20
-15266.2204045815
 10
-10586.077545253
 20
-15246.5284987653
 10
-10586.077545253
 20
-15246.5284987653
 10
-10586.077545253
 20
-14906.7737857382
 10
-10586.077545253
 20
-14906.7737857382
 10
-10855.6625093855
 20
-15286.4670119701
 10
-10855.6625093855
 20
-15286.4670119701
 10
-10865.0924361145
 20
-15288.4084674731
 10
-10865.0924361145
 20
-15288.4084674731
 10
-11034.2764156627
 20
-15288.4084674731
 10
-11034.2764156627
 20
-15288.4084674731
 10
-11042.3195884608
 20
-15280.642645461
 10
-11042.3195884608
 20
-15280.642645461
 10
-11204.5697983554
 20
-15038.5154091568
 10
-11204.5697983554
 20
-15038.5154091568
 10
-11207.3433062169
 20
-15018.8235033406
 10
-11207.3433062169
 20
-15018.8235033406
 10
-11207.3433062169
 20
-14319.8995222562
 10
-11207.3433062169
 20
-14319.8995222562
 10
-11204.5697983554
 20
-14311.5789986719
 10
-11200.1321857771
 20
-14304.6452290183
 10
-11194.3078192681
 20
-14298.8208625092
 10
-11186.541997256
 20
-14294.3832499309
 10
-11186.541997256
 20
-14294.3832499309
 10
-11172.6744579488
 20
-14297.1567577924
 10
-11162.6898296476
 20
-14305.4772813767
  0
LWPOLYLINE
  5
AD
330
1F
100
AcDbEntity
  8
0
  6
Continuous
 62
     7
100
AcDbPolyline
 90
       54
 70
   128
 43
0.0
 10
-9598.9837646484
 20
-14296.0473546478
 10
-9588.7241182771
 20
-14303.5358258737
 10
-9582.6224009819
 20
-14316.2939620363
 10
-9582.6224009819
 20
-14316.2939620363
 10
-9583.7318041265
 20
-14337.0952709972
 10
-9586.7826627741
 20
-14351.7948626629
 10
-9586.7826627741
 20
-14351.7948626629
 10
-9592.0523277108
 20
-14357.6192291719
 10
-9598.7087465783
 20
-14362.0568417502
 10
-9606.4745685904
 20
-14364.5529988255
 10
-9615.349793747
 20
-14365.3850511839
 10
-9615.349793747
 20
-14365.3850511839
 10
-10072.7012400994
 20
-14365.3850511839
 10
-10072.7012400994
 20
-14365.3850511839
 10
-10213.3180886747
 20
-14573.9528423647
 10
-10213.3180886747
 20
-14573.9528423647
 10
-10213.3180886747
 20
-15008.8388750394
 10
-10213.3180886747
 20
-15008.8388750394
 10
-10072.7012400994
 20
-15217.4066662201
 10
-10072.7012400994
 20
-15217.4066662201
 10
-9604.5331130874
 20
-15217.4066662201
 10
-9604.5331130874
 20
-15217.4066662201
 10
-9598.154045006
 20
-15219.0707709369
 10
-9592.8843800693
 20
-15222.953681943
 10
-9588.446767491
 20
-15228.5006976659
 10
-9585.3959088434
 20
-15235.9891688918
 10
-9585.3959088434
 20
-15235.9891688918
 10
-9582.3450501958
 20
-15244.5870432623
 10
-9581.2356470512
 20
-15252.9075668466
 10
-9581.2356470512
 20
-15252.9075668466
 10
-9582.6224009819
 20
-15264.8336506508
 10
-9587.3373643464
 20
-15276.759734455
 10
-9591.2202753524
 20
-15281.7520486056
 10
-9596.7672910753
 20
-15285.3576088255
 10
-9603.7010607289
 20
-15287.5764151147
 10
-9612.5762858855
 20
-15288.4084674731
 10
-9612.5762858855
 20
-15288.4084674731
 10
-10092.3931459157
 20
-15288.4084674731
 10
-10092.3931459157
 20
-15288.4084674731
 10
-10100.7136695
 20
-15280.642645461
 10
-10100.7136695
 20
-15280.642645461
 10
-10266.5694396145
 20
-15038.5154091568
 10
-10266.5694396145
 20
-15038.5154091568
 10
-10266.5694396145
 20
-15018.8235033406
 10
-10266.5694396145
 20
-15018.8235033406
 10
-10265.1826856837
 20
-14550.3780255424
 10
-10265.1826856837
 20
-14550.3780255424
 10
-10259.913020747
 20
-14536.5104862351
 10
-10259.913020747
 20
-14536.5104862351
 10
-10094.3346014187
 20
-14298.2661609369
 10
-10094.3346014187
 20
-14298.2661609369
 10
-10086.0140778343
 20
-14294.3832499309
 10
-10086.0140778343
 20
-14294.3832499309
 10
-9598.9860973645
 20
-14296.0473546478
  0
LWPOLYLINE
  5
AE
330
1F
100
AcDbEntity
  8
0
  6
Continuous
 62
     7
100
AcDbPolyline
 90
       83
 70
   128
 43
0.0
 10
-8960.8001708984
 20
-13827.0471752773
 10
-8957.473729012
 20
-13834.8129972894
 10
-8954.9775719367
 20
-13845.9070287351
 10
-8953.590818006
 20
-13861.1613219731
 10
-8953.0361164337
 20
-13879.7438246448
 10
-8953.0361164337
 20
-13879.7438246448
 10
-8953.0361164337
 20
-14312.1337002442
 10
-8953.0361164337
 20
-14312.1337002442
 10
-8659.3216339066
 20
-14312.1337002442
 10
-8659.3216339066
 20
-14312.1337002442
 10
-8652.1105134669
 20
-14316.5713128225
 10
-8646.563497744
 20
-14322.9503809038
 10
-8642.680586738
 20
-14331.2709044882
 10
-8640.4617804488
 20
-14341.5328835755
 10
-8640.4617804488
 20
-14341.5328835755
 10
-8642.4032359518
 20
-14356.5098260273
 10
-8648.7823040331
 20
-14370.1000145484
 10
-8653.7746181837
 20
-14375.9243810574
 10
-8661.2630894096
 20
-14379.8072920635
 10
-8670.6930161386
 20
-14382.3034491388
 10
-8682.3417491566
 20
-14383.1355014972
 10
-8682.3417491566
 20
-14383.1355014972
 10
-8953.0361164337
 20
-14383.1355014972
 10
-8953.0361164337
 20
-14383.1355014972
 10
-8953.0361164337
 20
-15021.3196604159
 10
-8953.0361164337
 20
-15021.3196604159
 10
-8825.1774040211
 20
-15212.1370012833
 10
-8825.1774040211
 20
-15212.1370012833
 10
-8682.3417491566
 20
-14999.6862990966
 10
-8682.3417491566
 20
-14999.6862990966
 10
-8676.2400318614
 20
-14994.9713357321
 10
-8668.7515606355
 20
-14993.5845818014
 10
-8668.7515606355
 20
-14993.5845818014
 10
-8659.3216339066
 20
-14996.3580896629
 10
-8649.8917071777
 20
-15004.9559640333
 10
-8642.680586738
 20
-15017.9914509821
 10
-8640.4617804488
 20
-15034.6324981508
 10
-8640.4617804488
 20
-15034.6324981508
 10
-8643.2352883102
 20
-15053.2150008225
 10
-8643.2352883102
 20
-15053.2150008225
 10
-8809.3684092108
 20
-15284.8029072532
 10
-8809.3684092108
 20
-15284.8029072532
 10
-8814.9154249337
 20
-15287.5764151147
 10
-8824.0680008765
 20
-15288.4084674731
 10
-8824.0680008765
 20
-15288.4084674731
 10
-8834.8846815361
 20
-15288.4084674731
 10
-8834.8846815361
 20
-15288.4084674731
 10
-8844.0372574789
 20
-15276.759734455
 10
-8844.0372574789
 20
-15276.759734455
 10
-9004.9007134428
 20
-15040.1795138737
 10
-9004.9007134428
 20
-15040.1795138737
 10
-9006.2874673735
 20
-15020.4876080574
 10
-9006.2874673735
 20
-15020.4876080574
 10
-9006.2874673735
 20
-14383.1355014972
 10
-9006.2874673735
 20
-14383.1355014972
 10
-9302.4981069759
 20
-14383.1355014972
 10
-9302.4981069759
 20
-14383.1355014972
 10
-9308.3224734849
 20
-14381.7487475665
 10
-9313.3147876355
 20
-14377.8658365604
 10
-9317.7524002139
 20
-14371.209417693
 10
-9321.6353112199
 20
-14362.0568417502
 10
-9321.6353112199
 20
-14362.0568417502
 10
-9324.6861698675
 20
-14349.8534071598
 10
-9325.7955730121
 20
-14338.7593757141
 10
-9325.7955730121
 20
-14338.7593757141
 10
-9323.854117509
 20
-14322.6730301177
 10
-9318.3071017861
 20
-14308.2507892382
 10
-9313.0374368494
 20
-14302.149071943
 10
-9304.4395624789
 20
-14297.7114593647
 10
-9293.3455310331
 20
-14295.2153022894
 10
-9278.9232901536
 20
-14294.3832499309
 10
-9278.9232901536
 20
-14294.3832499309
 10
-9006.2874673735
 20
-14294.3832499309
 10
-9006.2874673735
 20
-14294.3832499309
 10
-9006.2874673735
 20
-13844.2429240183
 10
-9006.2874673735
 20
-13844.2429240183
 10
-9003.5139595121
 20
-13833.1488925725
 10
-8999.0763469337
 20
-13824.551018202
 10
-8993.2519804247
 20
-13818.4493009068
 10
-8985.4861584127
 20
-13815.1210914731
 10
-8985.4861584127
 20
-13815.1210914731
 10
-8970.786566747
 20
-13818.1719501207
 10
-8960.8019384458
 20
-13827.0471752773
  0
LWPOLYLINE
  5
AF
330
1F
100
AcDbEntity
  8
0
  6
Continuous
 62
     7
100
AcDbPolyline
 90
       27
 70
   128
 43
0.0
 10
-8339.5309448242
 20
-13826.7698244912
 10
-8336.2079680482
 20
-13834.2582957171
 10
-8333.7118109729
 20
-13845.0749763767
 10
-8332.3250570422
 20
-13859.4972172562
 10
-8331.7703554699
 20
-13877.5250183556
 10
-8331.7703554699
 20
-13877.5250183556
 10
-8331.7703554699
 20
-14109.1129247863
 10
-8331.7703554699
 20
-14109.1129247863
 10
-8336.7626696205
 20
-14126.3086735273
 10
-8344.5284916325
 20
-14136.2933018285
 10
-8352.2943136446
 20
-14140.7309144068
 10
-8358.3960309398
 20
-14142.3950191237
 10
-8358.3960309398
 20
-14142.3950191237
 10
-8370.0447639578
 20
-14140.1762128345
 10
-8378.3652875422
 20
-14133.5197939671
 10
-8383.3576016928
 20
-14122.4257625213
 10
-8385.0217064096
 20
-14106.8941184972
 10
-8385.0217064096
 20
-14106.8941184972
 10
-8385.0217064096
 20
-13844.2429240183
 10
-8385.0217064096
 20
-13844.2429240183
 10
-8381.6934969759
 20
-13833.1488925725
 10
-8376.9785336114
 20
-13824.551018202
 10
-8370.8768163163
 20
-13818.4493009068
 10
-8363.3883450904
 20
-13815.1210914731
 10
-8363.3883450904
 20
-13815.1210914731
 10
-8349.243454997
 20
-13817.8945993345
 10
-8339.5361774819
 20
-13826.7698244912
  0
LWPOLYLINE
  5
B0
330
1F
100
AcDbEntity
  8
0
  6
Continuous
 62
     7
100
AcDbPolyline
 90
       30
 70
   128
 43
0.0
 10
-8340.087890625
 20
-14305.1999305906
 10
-8336.4853188343
 20
-14312.1337002442
 10
-8333.7118109729
 20
-14322.6730301177
 10
-8332.3250570422
 20
-14336.2632186388
 10
-8331.7703554699
 20
-14353.4589673797
 10
-8331.7703554699
 20
-14353.4589673797
 10
-8331.7703554699
 20
-15256.7904778526
 10
-8331.7703554699
 20
-15256.7904778526
 10
-8335.930617262
 20
-15271.4900695183
 10
-8345.6378947771
 20
-15284.5255564671
 10
-8345.6378947771
 20
-15284.5255564671
 10
-8350.6302089277
 20
-15287.2990643285
 10
-8358.3960309398
 20
-15288.4084674731
 10
-8358.3960309398
 20
-15288.4084674731
 10
-8369.7674131717
 20
-15286.1896611839
 10
-8378.087936756
 20
-15279.5332423165
 10
-8381.1387954036
 20
-15273.9862265936
 10
-8383.3576016928
 20
-15266.4977553677
 10
-8384.4670048374
 20
-15256.7904778526
 10
-8385.0217064096
 20
-15245.1417448345
 10
-8385.0217064096
 20
-15245.1417448345
 10
-8385.0217064096
 20
-14323.7824332623
 10
-8385.0217064096
 20
-14323.7824332623
 10
-8382.2481985482
 20
-14313.797804961
 10
-8377.5332351837
 20
-14305.4772813767
 10
-8371.4315178886
 20
-14299.0982132954
 10
-8363.3883450904
 20
-14294.3832499309
 10
-8363.3883450904
 20
-14294.3832499309
 10
-8349.7981565693
 20
-14297.1567577924
 10
-8340.0908790542
 20
-14305.1999305906
  0
LWPOLYLINE
  5
B1
330
1F
100
AcDbEntity
  8
0
  6
Continuous
 62
     7
100
AcDbPolyline
 90
       32
 70
   128
 43
0.0
 10
-7555.1872253418
 20
-14304.090527446
 10
-7393.7699967289
 20
-14546.2177637502
 10
-7393.7699967289
 20
-14546.2177637502
 10
-7390.9964888675
 20
-14563.9682140635
 10
-7390.9964888675
 20
-14563.9682140635
 10
-7390.9964888675
 20
-15030.4722363586
 10
-7390.9964888675
 20
-15030.4722363586
 10
-7396.2661538042
 20
-15046.2812311689
 10
-7396.2661538042
 20
-15046.2812311689
 10
-7560.735169988
 20
-15286.4670119701
 10
-7560.735169988
 20
-15286.4670119701
 10
-7574.0480077229
 20
-15288.4084674731
 10
-7574.0480077229
 20
-15288.4084674731
 10
-7893.2787625753
 20
-15288.4084674731
 10
-7893.2787625753
 20
-15288.4084674731
 10
-7901.3219353735
 20
-15280.642645461
 10
-7901.3219353735
 20
-15280.642645461
 10
-8064.1268468404
 20
-15038.5154091568
 10
-8064.1268468404
 20
-15038.5154091568
 10
-8065.5136007711
 20
-15018.8235033406
 10
-8065.5136007711
 20
-15018.8235033406
 10
-8065.5136007711
 20
-14550.3780255424
 10
-8065.5136007711
 20
-14550.3780255424
 10
-8060.2439358343
 20
-14536.5104862351
 10
-8060.2439358343
 20
-14536.5104862351
 10
-7895.7749196506
 20
-14298.2661609369
 10
-7895.7749196506
 20
-14298.2661609369
 10
-7887.7317468524
 20
-14294.3832499309
 10
-7887.7317468524
 20
-14294.3832499309
 10
-7564.618080994
 20
-14296.3247054339
 10
-7564.618080994
 20
-14296.3247054339
 10
-7555.1881542651
 20
-14304.090527446
  0
LWPOLYLINE
  5
B2
330
1F
100
AcDbEntity
  8
0
  6
Continuous
 62
     7
100
AcDbPolyline
 90
       16
 70
   128
 43
0.0
 10
-7444.2443847656
 20
-14574.2301931508
 10
-7583.2005836657
 20
-14365.3850511839
 10
-7583.2005836657
 20
-14365.3850511839
 10
-7873.3095059729
 20
-14365.3850511839
 10
-7873.3095059729
 20
-14365.3850511839
 10
-8012.2622498313
 20
-14572.2887376478
 10
-8012.2622498313
 20
-14572.2887376478
 10
-8012.2622498313
 20
-15008.5615242532
 10
-8012.2622498313
 20
-15008.5615242532
 10
-7873.3095059729
 20
-15217.4066662201
 10
-7873.3095059729
 20
-15217.4066662201
 10
-7583.2005836657
 20
-15217.4066662201
 10
-7583.2005836657
 20
-15217.4066662201
 10
-7444.2478398072
 20
-15006.3427179641
 10
-7444.2478398072
 20
-15006.3427179641
 10
-7444.2478398072
 20
-14574.2301931508
  0
LWPOLYLINE
  5
B3
330
1F
100
AcDbEntity
  8
0
  6
Continuous
 62
     7
100
AcDbPolyline
 90
       61
 70
   128
 43
0.0
 10
-6615.2458190918
 20
-14304.090527446
 10
-6452.9961301265
 20
-14546.2177637502
 10
-6452.9961301265
 20
-14546.2177637502
 10
-6450.2226222651
 20
-14563.9682140635
 10
-6450.2226222651
 20
-14563.9682140635
 10
-6450.2226222651
 20
-15256.7904778526
 10
-6450.2226222651
 20
-15256.7904778526
 10
-6453.2734809127
 20
-15270.6580171598
 10
-6458.8204966355
 20
-15280.3652946749
 10
-6466.5863186476
 20
-15286.4670119701
 10
-6476.8482977349
 20
-15288.4084674731
 10
-6476.8482977349
 20
-15288.4084674731
 10
-6487.3876276084
 20
-15285.9123103978
 10
-6495.9855019789
 20
-15278.4238391719
 10
-6501.5325177018
 20
-15264.8336506508
 10
-6503.4739732048
 20
-15244.5870432623
 10
-6503.4739732048
 20
-15244.5870432623
 10
-6503.4739732048
 20
-14572.8434392201
 10
-6503.4739732048
 20
-14572.8434392201
 10
-6642.4267170633
 20
-14365.3850511839
 10
-6642.4267170633
 20
-14365.3850511839
 10
-6776.1097959849
 20
-14365.3850511839
 10
-6776.1097959849
 20
-14365.3850511839
 10
-7071.4883832289
 20
-14801.9351885755
 10
-7071.4883832289
 20
-14801.9351885755
 10
-7071.4883832289
 20
-15256.5131270665
 10
-7071.4883832289
 20
-15256.5131270665
 10
-7075.6486450211
 20
-15271.4900695183
 10
-7085.3559225361
 20
-15284.5255564671
 10
-7085.3559225361
 20
-15284.5255564671
 10
-7090.3482366867
 20
-15287.2990643285
 10
-7098.1140586988
 20
-15288.4084674731
 10
-7098.1140586988
 20
-15288.4084674731
 10
-7109.4854409307
 20
-15286.1896611839
 10
-7117.8059645151
 20
-15279.5332423165
 10
-7120.8568231627
 20
-15273.9862265936
 10
-7123.0756294518
 20
-15266.4977553677
 10
-7124.1850325964
 20
-15256.7904778526
 10
-7124.7397341687
 20
-15245.1417448345
 10
-7124.7397341687
 20
-15245.1417448345
 10
-7124.7397341687
 20
-14322.1183285454
 10
-7124.7397341687
 20
-14322.1183285454
 10
-7121.9662263072
 20
-14311.3016478857
 10
-7116.9739121566
 20
-14303.2584750876
 10
-7110.5948440753
 20
-14297.4341085785
 10
-7101.9969697048
 20
-14294.3832499309
 10
-7101.9969697048
 20
-14294.3832499309
 10
-7090.0708859006
 20
-14296.8794070062
 10
-7080.3636083855
 20
-14304.6452290183
 10
-7076.4806973795
 20
-14311.3016478857
 10
-7073.7071895181
 20
-14321.5636269731
 10
-7072.0430848012
 20
-14335.4311662803
 10
-7071.4883832289
 20
-14352.9042658074
 10
-7071.4883832289
 20
-14352.9042658074
 10
-7071.4883832289
 20
-14696.2645390544
 10
-7071.4883832289
 20
-14696.2645390544
 10
-6793.8602462982
 20
-14294.3832499309
 10
-6793.8602462982
 20
-14294.3832499309
 10
-6624.67626675
 20
-14296.3247054339
 10
-6624.67626675
 20
-14296.3247054339
 10
-6615.2463400211
 20
-14304.090527446
  0
LWPOLYLINE
  5
B4
330
1F
100
AcDbEntity
  8
0
  6
Continuous
 62
     7
100
AcDbPolyline
 90
       48
 70
   128
 43
0.0
 10
-5821.1898803711
 20
-14302.149071943
 10
-5654.2258660301
 20
-14544.2763082472
 10
-5654.2258660301
 20
-14544.2763082472
 10
-5651.4523581687
 20
-14556.2023920514
 10
-5651.4523581687
 20
-14556.2023920514
 10
-5651.4523581687
 20
-15001.0730530273
 10
-5651.4523581687
 20
-15001.0730530273
 10
-5502.514986009
 20
-15227.3912945213
 10
-5502.514986009
 20
-15227.3912945213
 10
-5499.4641273614
 20
-15241.5361846147
 10
-5498.632075003
 20
-15249.0246558406
 10
-5498.632075003
 20
-15249.0246558406
 10
-5498.9094257892
 20
-15255.9584254942
 10
-5500.0188289337
 20
-15260.9507396448
 10
-5500.0188289337
 20
-15260.9507396448
 10
-5503.0696875813
 20
-15270.6580171598
 10
-5506.9525985874
 20
-15278.701189958
 10
-5511.944912738
 20
-15284.5255564671
 10
-5517.769279247
 20
-15288.4084674731
 10
-5517.769279247
 20
-15288.4084674731
 10
-5534.1329756295
 20
-15287.5764151147
 10
-5543.2855515723
 20
-15284.8029072532
 10
-5543.2855515723
 20
-15284.8029072532
 10
-5684.4571017199
 20
-15098.7005297502
 10
-5684.4571017199
 20
-15098.7005297502
 10
-5828.4021597289
 20
-15286.7443627562
 10
-5828.4021597289
 20
-15286.7443627562
 10
-5837.8320864578
 20
-15288.4084674731
 10
-5837.8320864578
 20
-15288.4084674731
 10
-6008.957521509
 20
-15288.4084674731
 10
-6008.957521509
 20
-15288.4084674731
 10
-6017.0006943072
 20
-15280.642645461
 10
-6017.0006943072
 20
-15280.642645461
 10
-6182.5791136355
 20
-15038.5154091568
 10
-6182.5791136355
 20
-15038.5154091568
 10
-6183.9658675663
 20
-15018.8235033406
 10
-6183.9658675663
 20
-15018.8235033406
 10
-6183.9658675663
 20
-14550.3780255424
 10
-6183.9658675663
 20
-14550.3780255424
 10
-6178.4188518434
 20
-14536.5104862351
 10
-6178.4188518434
 20
-14536.5104862351
 10
-6010.0669246536
 20
-14298.2661609369
 10
-6010.0669246536
 20
-14298.2661609369
 10
-6002.0237518554
 20
-14294.3832499309
 10
-6002.0237518554
 20
-14294.3832499309
 10
-5832.2850707349
 20
-14296.3247054339
 10
-5832.2850707349
 20
-14296.3247054339
 10
-5821.1910392892
 20
-14302.149071943
  0
LWPOLYLINE
  5
B5
330
1F
100
AcDbEntity
  8
0
  6
Continuous
 62
     7
100
AcDbPolyline
 90
       16
 70
   128
 43
0.0
 10
-5704.7004699707
 20
-14574.2301931508
 10
-5848.6487671175
 20
-14365.3850511839
 10
-5848.6487671175
 20
-14365.3850511839
 10
-5986.7694586175
 20
-14365.3850511839
 10
-5986.7694586175
 20
-14365.3850511839
 10
-6130.7145166265
 20
-14572.2887376478
 10
-6130.7145166265
 20
-14572.2887376478
 10
-6130.7145166265
 20
-15008.5615242532
 10
-6130.7145166265
 20
-15008.5615242532
 10
-5986.7694586175
 20
-15217.4066662201
 10
-5986.7694586175
 20
-15217.4066662201
 10
-5848.6487671175
 20
-15217.4066662201
 10
-5848.6487671175
 20
-15217.4066662201
 10
-5704.7037091084
 20
-15006.3427179641
 10
-5704.7037091084
 20
-15006.3427179641
 10
-5704.7037091084
 20
-14574.2301931508
  0
LWPOLYLINE
  5
B6
330
1F
100
AcDbEntity
  8
0
  6
Continuous
 62
     7
100
AcDbPolyline
 90
       33
 70
   128
 43
0.0
 10
-5197.7043151855
 20
-13826.2151229189
 10
-5194.3782626024
 20
-13833.4262433586
 10
-5191.8821055271
 20
-13843.9655732321
 10
-5190.4953515964
 20
-13857.8331125394
 10
-5189.9406500241
 20
-13875.3062120665
 10
-5189.9406500241
 20
-13875.3062120665
 10
-5189.9406500241
 20
-14998.0221943797
 10
-5189.9406500241
 20
-14998.0221943797
 10
-5032.9601050663
 20
-15226.2818913767
 10
-5032.9601050663
 20
-15226.2818913767
 10
-5029.9092464187
 20
-15236.2665196779
 10
-5028.7998432741
 20
-15246.2511479791
 10
-5028.7998432741
 20
-15246.2511479791
 10
-5030.7412987771
 20
-15261.5054412171
 10
-5036.2883145
 20
-15275.3729805243
 10
-5045.7182412289
 20
-15285.0802580394
 10
-5058.7537281777
 20
-15288.4084674731
 10
-5058.7537281777
 20
-15288.4084674731
 10
-5070.9571627681
 20
-15286.4670119701
 10
-5070.9571627681
 20
-15286.4670119701
 10
-5239.0317391717
 20
-15038.2380583707
 10
-5239.0317391717
 20
-15038.2380583707
 10
-5243.1920009639
 20
-15022.1517127743
 10
-5243.1920009639
 20
-15022.1517127743
 10
-5243.1920009639
 20
-13843.1335208737
 10
-5243.1920009639
 20
-13843.1335208737
 10
-5239.8637915301
 20
-13832.3168402141
 10
-5235.1488281657
 20
-13823.9963166297
 10
-5229.0471108705
 20
-13818.4493009068
 10
-5221.5586396446
 20
-13815.1210914731
 10
-5221.5586396446
 20
-13815.1210914731
 10
-5207.4137495512
 20
-13817.8945993345
 10
-5197.7064720361
 20
-13826.2151229189
  0
LWPOLYLINE
  5
B7
330
1F
100
AcDbEntity
  8
0
  6
Continuous
 62
     7
100
AcDbPolyline
 90
       51
 70
   128
 43
0.0
 10
-3777.6699066162
 20
-13826.2151229189
 10
-3774.3422375422
 20
-13833.4262433586
 10
-3771.8460804669
 20
-13844.2429240183
 10
-3770.4593265361
 20
-13858.3878141116
 10
-3769.9046249639
 20
-13875.8609136388
 10
-3769.9046249639
 20
-13875.8609136388
 10
-3769.9046249639
 20
-15009.3935766116
 10
-3769.9046249639
 20
-15009.3935766116
 10
-3630.9518811054
 20
-15217.4066662201
 10
-3630.9518811054
 20
-15217.4066662201
 10
-3340.8429587982
 20
-15217.4066662201
 10
-3340.8429587982
 20
-15217.4066662201
 10
-3201.8902149398
 20
-15007.1747703225
 10
-3201.8902149398
 20
-15007.1747703225
 10
-3201.8902149398
 20
-13843.4108716598
 10
-3201.8902149398
 20
-13843.4108716598
 10
-3198.0073039337
 20
-13832.5941910002
 10
-3193.2923405693
 20
-13824.2736674159
 10
-3187.1906232741
 20
-13818.4493009068
 10
-3180.2568536205
 20
-13815.1210914731
 10
-3180.2568536205
 20
-13815.1210914731
 10
-3167.4987174578
 20
-13817.8945993345
 10
-3157.5140891566
 20
-13826.2151229189
 10
-3153.6311781506
 20
-13833.4262433586
 10
-3150.8576702892
 20
-13843.9655732321
 10
-3149.1935655723
 20
-13857.8331125394
 10
-3148.638864
 20
-13875.3062120665
 10
-3148.638864
 20
-13875.3062120665
 10
-3153.9085289367
 20
-15042.1209693767
 10
-3153.9085289367
 20
-15042.1209693767
 10
-3318.3775451205
 20
-15286.4670119701
 10
-3318.3775451205
 20
-15286.4670119701
 10
-3331.6903828554
 20
-15288.4084674731
 10
-3331.6903828554
 20
-15288.4084674731
 10
-3650.9211377078
 20
-15288.4084674731
 10
-3650.9211377078
 20
-15288.4084674731
 10
-3658.964310506
 20
-15280.3652946749
 10
-3658.964310506
 20
-15280.3652946749
 10
-3820.3824680422
 20
-15034.0777965785
 10
-3820.3824680422
 20
-15034.0777965785
 10
-3823.1559759036
 20
-15014.1085399761
 10
-3823.1559759036
 20
-15014.1085399761
 10
-3823.1559759036
 20
-13843.1335208737
 10
-3823.1559759036
 20
-13843.1335208737
 10
-3819.8277664699
 20
-13832.3168402141
 10
-3815.1128031054
 20
-13823.9963166297
 10
-3809.0110858102
 20
-13818.4493009068
 10
-3801.5226145843
 20
-13815.1210914731
 10
-3801.5226145843
 20
-13815.1210914731
 10
-3787.377724491
 20
-13817.8945993345
 10
-3777.6704469759
 20
-13826.2151229189
  0
LWPOLYLINE
  5
B8
330
1F
100
AcDbEntity
  8
0
  6
Continuous
 62
     7
100
AcDbPolyline
 90
       78
 70
   128
 43
0.0
 10
-2222.562789917
 20
-14296.0473546478
 10
-2214.2440654789
 20
-14303.5358258737
 10
-2207.8649973976
 20
-14316.2939620363
 10
-2207.8649973976
 20
-14316.2939620363
 10
-2208.1423481837
 20
-14328.7747474129
 10
-2208.697049756
 20
-14338.7593757141
 10
-2210.0838036867
 20
-14346.5251977261
 10
-2211.7479084036
 20
-14351.7948626629
 10
-2211.7479084036
 20
-14351.7948626629
 10
-2215.9081701958
 20
-14357.6192291719
 10
-2222.009887491
 20
-14362.0568417502
 10
-2229.4983587169
 20
-14364.5529988255
 10
-2238.6509346596
 20
-14365.3850511839
 10
-2238.6509346596
 20
-14365.3850511839
 10
-2687.1271558554
 20
-14365.3850511839
 10
-2687.1271558554
 20
-14365.3850511839
 10
-2813.0444127651
 20
-14569.5152297863
 10
-2813.0444127651
 20
-14569.5152297863
 10
-2686.295103497
 20
-14773.6454083888
 10
-2686.295103497
 20
-14773.6454083888
 10
-2381.209238738
 20
-14773.6454083888
 10
-2381.209238738
 20
-14773.6454083888
 10
-2371.779312009
 20
-14781.1338796147
 10
-2371.779312009
 20
-14781.1338796147
 10
-2210.638505259
 20
-15012.9991368315
 10
-2210.638505259
 20
-15012.9991368315
 10
-2208.4196989699
 20
-15023.2611159189
 10
-2207.8649973976
 20
-15031.8589902894
 10
-2207.8649973976
 20
-15031.8589902894
 10
-2208.4196989699
 20
-15037.6833567984
 10
-2210.638505259
 20
-15047.1132835273
 10
-2210.638505259
 20
-15047.1132835273
 10
-2217.2949241265
 20
-15060.1487704761
 10
-2217.2949241265
 20
-15060.1487704761
 10
-2377.8810293042
 20
-15286.4670119701
 10
-2377.8810293042
 20
-15286.4670119701
 10
-2391.1938670392
 20
-15288.4084674731
 10
-2391.1938670392
 20
-15288.4084674731
 10
-2866.2957637048
 20
-15288.4084674731
 10
-2866.2957637048
 20
-15288.4084674731
 10
-2875.7256904337
 20
-15280.3652946749
 10
-2882.3821093012
 20
-15266.4977553677
 10
-2882.3821093012
 20
-15266.4977553677
 10
-2878.221847509
 20
-15259.5639857141
 10
-2882.3821093012
 20
-15252.9075668466
 10
-2882.3821093012
 20
-15252.9075668466
 10
-2880.4406537982
 20
-15236.8212212502
 10
-2874.338936503
 20
-15226.0045405906
 10
-2869.0692715663
 20
-15222.1216295845
 10
-2861.8581511265
 20
-15219.6254725092
 10
-2852.7055751837
 20
-15217.9613677924
 10
-2841.611543738
 20
-15217.4066662201
 10
-2841.611543738
 20
-15217.4066662201
 10
-2394.2447256868
 20
-15217.4066662201
 10
-2394.2447256868
 20
-15217.4066662201
 10
-2266.3860132741
 20
-15029.9175347863
 10
-2266.3860132741
 20
-15029.9175347863
 10
-2393.9673749006
 20
-14844.6472096418
 10
-2393.9673749006
 20
-14844.6472096418
 10
-2704.6002553825
 20
-14844.6472096418
 10
-2704.6002553825
 20
-14844.6472096418
 10
-2714.0301821114
 20
-14836.6040368436
 10
-2714.0301821114
 20
-14836.6040368436
 10
-2879.6086014398
 20
-14587.5430308857
 10
-2879.6086014398
 20
-14587.5430308857
 10
-2881.5500569428
 20
-14579.4998580876
 10
-2882.3821093012
 20
-14567.5737742833
 10
-2882.3821093012
 20
-14567.5737742833
 10
-2882.1047585151
 20
-14558.9758999129
 10
-2880.9953553705
 20
-14553.42888419
 10
-2880.9953553705
 20
-14553.42888419
 10
-2872.9521825723
 20
-14539.2839940966
 10
-2872.9521825723
 20
-14539.2839940966
 10
-2712.0887266084
 20
-14298.2661609369
 10
-2712.0887266084
 20
-14298.2661609369
 10
-2704.0455538102
 20
-14294.3832499309
 10
-2704.0455538102
 20
-14294.3832499309
 10
-2222.5645890633
 20
-14296.0473546478
  0
LWPOLYLINE
  5
B9
330
1F
100
AcDbEntity
  8
0
  6
Continuous
 62
     7
100
AcDbPolyline
 90
       52
 70
   128
 43
0.0
 10
-1423.2387542725
 20
-14304.3678782321
 10
-1259.047957997
 20
-14551.4874286869
 10
-1259.047957997
 20
-14551.4874286869
 10
-1256.8291517078
 20
-14557.8664967683
 10
-1256.2744501355
 20
-14569.5152297863
 10
-1256.2744501355
 20
-14569.5152297863
 10
-1256.5518009217
 20
-14579.4998580876
 10
-1257.6612040663
 20
-14585.6015753827
 10
-1257.6612040663
 20
-14585.6015753827
 10
-1264.5949737199
 20
-14599.7464654761
 10
-1264.5949737199
 20
-14599.7464654761
 10
-1431.0054454066
 20
-14840.7642986357
 10
-1431.0054454066
 20
-14840.7642986357
 10
-1444.5956339277
 20
-14844.6472096418
 10
-1444.5956339277
 20
-14844.6472096418
 10
-1888.356891759
 20
-14844.6472096418
 10
-1888.356891759
 20
-14844.6472096418
 10
-1888.356891759
 20
-15014.3858907623
 10
-1888.356891759
 20
-15014.3858907623
 10
-1747.4626923976
 20
-15217.4066662201
 10
-1747.4626923976
 20
-15217.4066662201
 10
-1435.7204087711
 20
-15217.4066662201
 10
-1435.7204087711
 20
-15217.4066662201
 10
-1423.5169741807
 20
-15225.1724882321
 10
-1417.4152568855
 20
-15235.1571165333
 10
-1414.6417490241
 20
-15245.1417448345
 10
-1413.8096966657
 20
-15252.9075668466
 10
-1413.8096966657
 20
-15252.9075668466
 10
-1415.1964505964
 20
-15268.4392108707
 10
-1419.0793616024
 20
-15279.5332423165
 10
-1426.013131256
 20
-15286.1896611839
 10
-1435.4430579849
 20
-15288.4084674731
 10
-1435.4430579849
 20
-15288.4084674731
 10
-1766.5998966416
 20
-15288.4084674731
 10
-1766.5998966416
 20
-15288.4084674731
 10
-1774.6430694398
 20
-15280.642645461
 10
-1774.6430694398
 20
-15280.642645461
 10
-1940.2214887681
 20
-15038.5154091568
 10
-1940.2214887681
 20
-15038.5154091568
 10
-1941.6082426988
 20
-15018.8235033406
 10
-1941.6082426988
 20
-15018.8235033406
 10
-1941.6082426988
 20
-14550.3780255424
 10
-1941.6082426988
 20
-14550.3780255424
 10
-1936.0612269759
 20
-14536.5104862351
 10
-1936.0612269759
 20
-14536.5104862351
 10
-1769.373404503
 20
-14298.2661609369
 10
-1769.373404503
 20
-14298.2661609369
 10
-1761.0528809187
 20
-14294.3832499309
 10
-1761.0528809187
 20
-14294.3832499309
 10
-1432.6695501235
 20
-14296.3247054339
 10
-1432.6695501235
 20
-14296.3247054339
 10
-1423.2396233946
 20
-14304.3678782321
  0
LWPOLYLINE
  5
BA
330
1F
100
AcDbEntity
  8
0
  6
Continuous
 62
     7
100
AcDbPolyline
 90
       12
 70
   128
 43
0.0
 10
-1325.6120681763
 20
-14568.4058266418
 10
-1454.0255606566
 20
-14365.3850511839
 10
-1454.0255606566
 20
-14365.3850511839
 10
-1747.7400431837
 20
-14365.3850511839
 10
-1747.7400431837
 20
-14365.3850511839
 10
-1888.356891759
 20
-14585.6015753827
 10
-1888.356891759
 20
-14585.6015753827
 10
-1888.356891759
 20
-14773.6454083888
 10
-1888.356891759
 20
-14773.6454083888
 10
-1455.4123145874
 20
-14773.6454083888
 10
-1455.4123145874
 20
-14773.6454083888
 10
-1325.6121466717
 20
-14568.4058266418
  0
LWPOLYLINE
  5
BB
330
1F
100
AcDbEntity
  8
0
  6
Continuous
 62
     7
100
AcDbPolyline
 90
       30
 70
   128
 43
0.0
 10
596.9834327698
 20
-13817.0625469761
 10
603.0852201777
 20
-13820.1134056237
 10
608.0775343283
 20
-13825.1057197743
 10
611.9604453343
 20
-13832.3168402141
 10
614.4566024096
 20
-13841.1920653707
 10
614.4566024096
 20
-13841.1920653707
 10
614.4566024096
 20
-13875.3062120665
 10
614.4566024096
 20
-13875.3062120665
 10
614.4566024096
 20
-15256.5131270665
 10
614.4566024096
 20
-15256.5131270665
 10
609.464288259
 20
-15273.9862265936
 10
599.757010744
 20
-15286.4670119701
 10
599.757010744
 20
-15286.4670119701
 10
590.3270840151
 20
-15288.4084674731
 10
590.3270840151
 20
-15288.4084674731
 10
-42.5874099669
 20
-15288.4084674731
 10
-42.5874099669
 20
-15288.4084674731
 10
-53.6814414127
 20
-15277.8691375996
 10
-60.060509494
 20
-15262.3374935755
 10
-60.060509494
 20
-15262.3374935755
 10
-60.060509494
 20
-15222.3989803707
 10
-60.060509494
 20
-15222.3989803707
 10
-60.060509494
 20
-13843.1335208737
 10
-60.060509494
 20
-13843.1335208737
 10
-57.2870016325
 20
-13833.9809449309
 10
-52.2946874819
 20
-13826.2151229189
 10
-45.9156194006
 20
-13819.8360548376
 10
-37.3177450301
 20
-13815.1210914731
 10
-37.3177450301
 20
-13815.1210914731
 10
596.9835028825
 20
-13817.0625469761
  0
LWPOLYLINE
  5
BC
330
1F
100
AcDbEntity
  8
0
  6
Continuous
 62
     7
100
AcDbPolyline
 90
        8
 70
   128
 43
0.0
 10
561.2049102783
 20
-15217.4066662201
 10
561.2052514699
 20
-13886.1228927261
 10
561.2052514699
 20
-13886.1228927261
 10
-6.8091585542
 20
-13886.1228927261
 10
-6.8091585542
 20
-13886.1228927261
 10
-6.8091585542
 20
-15217.4066662201
 10
-6.8091585542
 20
-15217.4066662201
 10
561.2052514699
 20
-15217.4066662201
  0
LWPOLYLINE
  5
BD
330
1F
100
AcDbEntity
  8
0
  6
Continuous
 62
     7
100
AcDbPolyline
 90
       61
 70
   128
 43
0.0
 10
1390.2063369751
 20
-14304.090527446
 10
1552.4569611506
 20
-14546.2177637502
 10
1552.4569611506
 20
-14546.2177637502
 10
1555.230469012
 20
-14563.9682140635
 10
1555.230469012
 20
-14563.9682140635
 10
1555.230469012
 20
-15256.7904778526
 10
1555.230469012
 20
-15256.7904778526
 10
1552.1796103645
 20
-15270.6580171598
 10
1546.6325946416
 20
-15280.3652946749
 10
1538.8667726295
 20
-15286.4670119701
 10
1528.6047935422
 20
-15288.4084674731
 10
1528.6047935422
 20
-15288.4084674731
 10
1518.0654636687
 20
-15285.9123103978
 10
1509.4675892982
 20
-15278.4238391719
 10
1503.9205735753
 20
-15264.8336506508
 10
1501.9791180723
 20
-15244.5870432623
 10
1501.9791180723
 20
-15244.5870432623
 10
1501.9791180723
 20
-14572.8434392201
 10
1501.9791180723
 20
-14572.8434392201
 10
1363.0263742139
 20
-14365.3850511839
 10
1363.0263742139
 20
-14365.3850511839
 10
1229.3432952922
 20
-14365.3850511839
 10
1229.3432952922
 20
-14365.3850511839
 10
933.9647080482
 20
-14801.9351885755
 10
933.9647080482
 20
-14801.9351885755
 10
933.9647080482
 20
-15256.5131270665
 10
933.9647080482
 20
-15256.5131270665
 10
929.804446256
 20
-15271.4900695183
 10
920.097168741
 20
-15284.5255564671
 10
920.097168741
 20
-15284.5255564671
 10
915.1048545904
 20
-15287.2990643285
 10
907.3390325783
 20
-15288.4084674731
 10
907.3390325783
 20
-15288.4084674731
 10
895.9676503464
 20
-15286.1896611839
 10
887.647126762
 20
-15279.5332423165
 10
884.5962681145
 20
-15273.9862265936
 10
882.3774618253
 20
-15266.4977553677
 10
881.2680586807
 20
-15256.7904778526
 10
880.7133571084
 20
-15245.1417448345
 10
880.7133571084
 20
-15245.1417448345
 10
880.7133571084
 20
-14322.1183285454
 10
880.7133571084
 20
-14322.1183285454
 10
883.4868649699
 20
-14311.3016478857
 10
888.4791791205
 20
-14303.2584750876
 10
894.8582472018
 20
-14297.4341085785
 10
903.4561215723
 20
-14294.3832499309
 10
903.4561215723
 20
-14294.3832499309
 10
915.3822053765
 20
-14296.8794070062
 10
925.0894828916
 20
-14304.6452290183
 10
928.9723938976
 20
-14311.3016478857
 10
931.745901759
 20
-14321.5636269731
 10
933.4100064759
 20
-14335.4311662803
 10
933.9647080482
 20
-14352.9042658074
 10
933.9647080482
 20
-14352.9042658074
 10
933.9647080482
 20
-14696.2645390544
 10
933.9647080482
 20
-14696.2645390544
 10
1211.5928449789
 20
-14294.3832499309
 10
1211.5928449789
 20
-14294.3832499309
 10
1380.7768245271
 20
-14296.3247054339
 10
1380.7768245271
 20
-14296.3247054339
 10
1390.206751256
 20
-14304.090527446
  0
LWPOLYLINE
  5
BE
330
1F
100
AcDbEntity
  8
0
  6
Continuous
 62
     7
100
AcDbPolyline
 90
       33
 70
   128
 43
0.0
 10
1866.9719696045
 20
-13826.2151229189
 10
1870.3009620723
 20
-13833.4262433586
 10
1872.7971191476
 20
-13843.9655732321
 10
1874.1838730783
 20
-13857.8331125394
 10
1874.7385746506
 20
-13875.3062120665
 10
1874.7385746506
 20
-13875.3062120665
 10
1874.7385746506
 20
-14998.0221943797
 10
1874.7385746506
 20
-14998.0221943797
 10
2031.7191196084
 20
-15226.2818913767
 10
2031.7191196084
 20
-15226.2818913767
 10
2034.769978256
 20
-15236.2665196779
 10
2035.8793814006
 20
-15246.2511479791
 10
2035.8793814006
 20
-15246.2511479791
 10
2033.9379258976
 20
-15261.5054412171
 10
2028.3909101747
 20
-15275.3729805243
 10
2018.9609834458
 20
-15285.0802580394
 10
2005.925496497
 20
-15288.4084674731
 10
2005.925496497
 20
-15288.4084674731
 10
1993.7220619066
 20
-15286.4670119701
 10
1993.7220619066
 20
-15286.4670119701
 10
1825.647485503
 20
-15038.2380583707
 10
1825.647485503
 20
-15038.2380583707
 10
1821.4872237108
 20
-15022.1517127743
 10
1821.4872237108
 20
-15022.1517127743
 10
1821.4872237108
 20
-13843.1335208737
 10
1821.4872237108
 20
-13843.1335208737
 10
1824.8154331446
 20
-13832.3168402141
 10
1829.530396509
 20
-13823.9963166297
 10
1835.6321138042
 20
-13818.4493009068
 10
1843.1205850301
 20
-13815.1210914731
 10
1843.1205850301
 20
-13815.1210914731
 10
1857.2654751235
 20
-13817.8945993345
 10
1866.9727526386
 20
-13826.2151229189
  0
LWPOLYLINE
  5
BF
330
1F
100
AcDbEntity
  8
0
  6
Continuous
 62
     7
100
AcDbPolyline
 90
       61
 70
   128
 43
0.0
 10
2347.620010376
 20
-14304.3678782321
 10
2355.6648378253
 20
-14322.6730301177
 10
2355.6648378253
 20
-14322.6730301177
 10
2639.3946920512
 20
-15175.5266975123
 10
2639.3946920512
 20
-15175.5266975123
 10
2925.6207033524
 20
-14312.4110510303
 10
2925.6207033524
 20
-14312.4110510303
 10
2934.2185777229
 20
-14301.0396687984
 10
2945.867310741
 20
-14294.3832499309
 10
2945.867310741
 20
-14294.3832499309
 10
2956.1292898283
 20
-14296.0473546478
 10
2964.7271641988
 20
-14301.3170195845
 10
2970.828881494
 20
-14310.1922447412
 10
2975.2664940723
 20
-14322.3956793315
 10
2975.2664940723
 20
-14322.3956793315
 10
2979.4267558645
 20
-14323.5050824761
 10
2980.8135097952
 20
-14325.4465379791
 10
2979.4267558645
 20
-14327.6653442683
 10
2975.2664940723
 20
-14330.4388521297
 10
2975.2664940723
 20
-14330.4388521297
 10
2975.2664940723
 20
-14333.7670615635
 10
2975.2664940723
 20
-14336.2632186388
 10
2975.2664940723
 20
-14336.2632186388
 10
2974.7117925
 20
-14342.0875851478
 10
2973.3250385693
 20
-14349.8534071598
 10
2970.828881494
 20
-14359.2833338888
 10
2967.2233212741
 20
-14370.3773653345
 10
2967.2233212741
 20
-14370.3773653345
 10
2505.1569115572
 20
-15753.8030866237
 10
2505.1569115572
 20
-15753.8030866237
 10
2496.8363879729
 20
-15762.123610208
 10
2485.1876549548
 20
-15767.6706259309
 10
2485.1876549548
 20
-15767.6706259309
 10
2318.2224816958
 20
-15785.4210762442
 10
2318.2224816958
 20
-15785.4210762442
 10
2308.2378533946
 20
-15777.1005526598
 10
2302.1361360994
 20
-15765.1744688556
 10
2302.1361360994
 20
-15765.1744688556
 10
2301.0267329548
 20
-15759.3501023466
 10
2300.7493821687
 20
-15751.5842803345
 10
2300.7493821687
 20
-15751.5842803345
 10
2302.9681884578
 20
-15735.220583952
 10
2309.6246073253
 20
-15723.8492017201
 10
2314.894272262
 20
-15719.6889399279
 10
2322.1053927018
 20
-15716.6380812803
 10
2330.9806178584
 20
-15714.9739765635
 10
2341.5199477319
 20
-15714.4192749912
 10
2341.5199477319
 20
-15714.4192749912
 10
2469.1013093584
 20
-15714.4192749912
 10
2469.1013093584
 20
-15714.4192749912
 10
2611.6596134367
 20
-15284.8029072532
 10
2611.6596134367
 20
-15284.8029072532
 10
2300.7493821687
 20
-14347.6346008707
 10
2300.7493821687
 20
-14347.6346008707
 10
2302.6908376717
 20
-14325.4465379791
 10
2308.7925549669
 20
-14308.8054908104
 10
2318.2224816958
 20
-14297.9888101508
 10
2330.1485655
 20
-14294.3832499309
 10
2330.1485655
 20
-14294.3832499309
 10
2338.4690890843
 20
-14296.8794070062
 10
2347.6216650271
 20
-14304.3678782321
  0
LWPOLYLINE
  5
C0
330
1F
100
AcDbEntity
  8
0
  6
Continuous
 62
     7
100
AcDbPolyline
 90
       30
 70
   128
 43
0.0
 10
3287.0082855225
 20
-14997.1901420213
 10
3290.3369871325
 20
-15004.1239116749
 10
3292.8331442078
 20
-15014.1085399761
 10
3294.2198981386
 20
-15027.6987284972
 10
3294.7745997108
 20
-15044.3397756659
 10
3294.7745997108
 20
-15044.3397756659
 10
3294.7745997108
 20
-15257.622530211
 10
3294.7745997108
 20
-15257.622530211
 10
3290.6143379187
 20
-15272.0447710906
 10
3280.9070604036
 20
-15284.5255564671
 10
3280.9070604036
 20
-15284.5255564671
 10
3275.914746253
 20
-15287.2990643285
 10
3268.148924241
 20
-15288.4084674731
 10
3268.148924241
 20
-15288.4084674731
 10
3256.777542009
 20
-15286.1896611839
 10
3248.4570184247
 20
-15279.8105931026
 10
3245.4061597771
 20
-15274.5409281659
 10
3243.187353488
 20
-15267.05245694
 10
3242.0779503434
 20
-15257.622530211
 10
3241.5232487711
 20
-15246.2511479791
 10
3241.5232487711
 20
-15246.2511479791
 10
3241.5232487711
 20
-15013.5538384038
 10
3241.5232487711
 20
-15013.5538384038
 10
3244.8514582048
 20
-15001.9051053857
 10
3249.8437723554
 20
-14993.3072310153
 10
3256.2228404367
 20
-14988.3149168647
 10
3264.2660132349
 20
-14986.6508121478
 10
3264.2660132349
 20
-14986.6508121478
 10
3277.5788509699
 20
-14989.1469692231
 10
3287.0087776988
 20
-14997.1901420213
  0
MTEXT
  5
C2
330
1F
100
AcDbEntity
  8
0
  6
Continuous
 62
     7
100
AcDbMText
 10
-19354.8
 20
-15789.0089859892
 30
0.0
 40
17.009772432
 41
0.0
 71
     1
 72
     1
  1
SOLIDWORKS Educational Product.
  7
SLDTEXTSTYLE0
 73
     1
 44
1.0
  0
MTEXT
  5
C3
330
1F
100
AcDbEntity
  8
0
  6
Continuous
 62
     7
100
AcDbMText
 10
-19354.8
 20
-15814.5236446372
 30
0.0
 40
17.009772432
 41
0.0
 71
     1
 72
     1
  1
For Instructional Use Only.
  7
SLDTEXTSTYLE0
 73
     1
 44
1.0
  0
ENDSEC
  0
SECTION
  2
OBJECTS
  0
DICTIONARY
  5
C
330
0
100
AcDbDictionary
281
     1
  3
ACAD_GROUP
350
D
  3
ACAD_LAYOUT
350
1A
  3
ACAD_MLINESTYLE
350
17
  3
ACAD_PLOTSETTINGS
350
19
  3
ACAD_PLOTSTYLENAME
350
E
  3
ACAD_SCALELIST
350
47
  0
DICTIONARY
  5
D
102
{ACAD_REACTORS
330
C
102
}
330
C
100
AcDbDictionary
281
     1
  0
DICTIONARY
  5
1A
102
{ACAD_REACTORS
330
C
102
}
330
C
100
AcDbDictionary
281
     1
  3
Layout1
350
1E
  3
Layout2
350
26
  3
Model
350
22
  0
DICTIONARY
  5
17
102
{ACAD_REACTORS
330
C
102
}
330
C
100
AcDbDictionary
281
     1
  3
Standard
350
18
  0
DICTIONARY
  5
19
102
{ACAD_REACTORS
330
C
102
}
330
C
100
AcDbDictionary
281
     1
  0
ACDBDICTIONARYWDFLT
  5
E
102
{ACAD_REACTORS
330
C
102
}
330
C
100
AcDbDictionary
281
     1
  3
Normal
350
F
100
AcDbDictionaryWithDefault
340
F
  0
DICTIONARY
  5
47
102
{ACAD_REACTORS
330
C
102
}
330
C
100
AcDbDictionary
281
     1
  3
A0
350
48
  3
A1
350
49
  3
A2
350
4A
  3
A3
350
4B
  3
A4
350
4C
  3
A5
350
4D
  3
A6
350
4E
  3
A7
350
4F
  3
A8
350
50
  3
A9
350
51
  3
B0
350
52
  3
B1
350
53
  3
B2
350
54
  3
B3
350
55
  3
B4
350
56
  3
B5
350
57
  3
B6
350
58
  3
B7
350
59
  3
B8
350
5A
  3
B9
350
5B
  3
C0
350
5C
  3
C1
350
5D
  3
C2
350
5E
  3
C3
350
5F
  3
C4
350
60
  3
C5
350
61
  3
C6
350
62
  3
C7
350
63
  3
C8
350
64
  3
C9
350
65
  3
D0
350
66
  3
D1
350
67
  3
D2
350
68
  0
LAYOUT
  5
1E
102
{ACAD_REACTORS
330
1A
102
}
330
1A
100
AcDbPlotSettings
  1

  2
none_device
  4

  6

 40
0.0
 41
0.0
 42
0.0
 43
0.0
 44
0.0
 45
0.0
 46
0.0
 47
0.0
 48
0.0
 49
0.0
140
0.0
141
0.0
142
1.0
143
1.0
 70
   688
 72
     1
 73
     0
 74
     5
  7

 75
    16
147
1.0
148
0.0
149
0.0
100
AcDbLayout
  1
Layout1
 70
     1
 71
     1
 10
0.0
 20
0.0
 11
420.0
 21
297.0
 12
0.0
 22
0.0
 32
0.0
 14
1.0000000000E+20
 24
1.0000000000E+20
 34
1.0000000000E+20
 15
-1.0000000000E+20
 25
-1.0000000000E+20
 35
-1.0000000000E+20
146
0.0
 13
0.0
 23
0.0
 33
0.0
 16
1.0
 26
0.0
 36
0.0
 17
0.0
 27
1.0
 37
0.0
 76
     0
330
1B
  0
LAYOUT
  5
26
102
{ACAD_REACTORS
330
1A
102
}
330
1A
100
AcDbPlotSettings
  1

  2
none_device
  4

  6

 40
0.0
 41
0.0
 42
0.0
 43
0.0
 44
0.0
 45
0.0
 46
0.0
 47
0.0
 48
0.0
 49
0.0
140
0.0
141
0.0
142
1.0
143
1.0
 70
   688
 72
     1
 73
     0
 74
     5
  7

 75
    16
147
1.0
148
0.0
149
0.0
100
AcDbLayout
  1
Layout2
 70
     1
 71
     2
 10
0.0
 20
0.0
 11
0.0
 21
0.0
 12
0.0
 22
0.0
 32
0.0
 14
0.0
 24
0.0
 34
0.0
 15
0.0
 25
0.0
 35
0.0
146
0.0
 13
0.0
 23
0.0
 33
0.0
 16
1.0
 26
0.0
 36
0.0
 17
0.0
 27
1.0
 37
0.0
 76
     0
330
23
  0
LAYOUT
  5
22
102
{ACAD_REACTORS
330
1A
102
}
330
1A
100
AcDbPlotSettings
  1

  2
none_device
  4
ANSI_A_(11.00_x_8.50_Inches)
  6

 40
6.35
 41
19.05
 42
6.35000508
 43
19.05000254
 44
279.4
 45
215.9
 46
133.34999746
 47
103.8077980477
 48
0.0
 49
0.0
140
0.0
141
0.0
142
0.0002813256
143
1.0
 70
  1696
 72
     0
 73
     0
 74
     0
  7

 75
     0
147
0.0179189148
148
-1300.4909072572
149
0.0
100
AcDbLayout
  1
Model
 70
     1
 71
     0
 10
0.0
 20
0.0
 11
420.0
 21
297.0
 12
0.0
 22
0.0
 32
0.0
 14
-19354.8
 24
-15785.4210762442
 34
0.0
 15
19354.7999999936
 25
11612.8799999854
 35
0.0
146
0.0
 13
0.0
 23
0.0
 33
0.0
 16
1.0
 26
0.0
 36
0.0
 17
0.0
 27
1.0
 37
0.0
 76
     0
330
1F
331
29
  0
MLINESTYLE
  5
18
102
{ACAD_REACTORS
330
17
102
}
330
17
100
AcDbMlineStyle
  2
Standard
 70
     0
  3

 62
   256
 51
90.0
 52
90.0
 71
     2
 49
0.5
 62
   256
  6
BYLAYER
 49
-0.5
 62
   256
  6
BYLAYER
  0
ACDBPLACEHOLDER
  5
F
102
{ACAD_REACTORS
330
E
102
}
330
E
  0
SCALE
  5
48
102
{ACAD_REACTORS
330
47
102
}
330
47
100
AcDbScale
 70
     0
300
1:1
140
1.0
141
1.0
290
     1
  0
SCALE
  5
49
102
{ACAD_REACTORS
330
47
102
}
330
47
100
AcDbScale
 70
     0
300
1:2
140
1.0
141
2.0
290
     0
  0
SCALE
  5
4A
102
{ACAD_REACTORS
330
47
102
}
330
47
100
AcDbScale
 70
     0
300
1:4
140
1.0
141
4.0
290
     0
  0
SCALE
  5
4B
102
{ACAD_REACTORS
330
47
102
}
330
47
100
AcDbScale
 70
     0
300
1:5
140
1.0
141
5.0
290
     0
  0
SCALE
  5
4C
102
{ACAD_REACTORS
330
47
102
}
330
47
100
AcDbScale
 70
     0
300
1:8
140
1.0
141
8.0
290
     0
  0
SCALE
  5
4D
102
{ACAD_REACTORS
330
47
102
}
330
47
100
AcDbScale
 70
     0
300
1:10
140
1.0
141
10.0
290
     0
  0
SCALE
  5
4E
102
{ACAD_REACTORS
330
47
102
}
330
47
100
AcDbScale
 70
     0
300
1:16
140
1.0
141
16.0
290
     0
  0
SCALE
  5
4F
102
{ACAD_REACTORS
330
47
102
}
330
47
100
AcDbScale
 70
     0
300
1:20
140
1.0
141
20.0
290
     0
  0
SCALE
  5
50
102
{ACAD_REACTORS
330
47
102
}
330
47
100
AcDbScale
 70
     0
300
1:30
140
1.0
141
30.0
290
     0
  0
SCALE
  5
51
102
{ACAD_REACTORS
330
47
102
}
330
47
100
AcDbScale
 70
     0
300
1:40
140
1.0
141
40.0
290
     0
  0
SCALE
  5
52
102
{ACAD_REACTORS
330
47
102
}
330
47
100
AcDbScale
 70
     0
300
1:50
140
1.0
141
50.0
290
     0
  0
SCALE
  5
53
102
{ACAD_REACTORS
330
47
102
}
330
47
100
AcDbScale
 70
     0
300
1:100
140
1.0
141
100.0
290
     0
  0
SCALE
  5
54
102
{ACAD_REACTORS
330
47
102
}
330
47
100
AcDbScale
 70
     0
300
2:1
140
2.0
141
1.0
290
     0
  0
SCALE
  5
55
102
{ACAD_REACTORS
330
47
102
}
330
47
100
AcDbScale
 70
     0
300
4:1
140
4.0
141
1.0
290
     0
  0
SCALE
  5
56
102
{ACAD_REACTORS
330
47
102
}
330
47
100
AcDbScale
 70
     0
300
8:1
140
8.0
141
1.0
290
     0
  0
SCALE
  5
57
102
{ACAD_REACTORS
330
47
102
}
330
47
100
AcDbScale
 70
     0
300
10:1
140
10.0
141
1.0
290
     0
  0
SCALE
  5
58
102
{ACAD_REACTORS
330
47
102
}
330
47
100
AcDbScale
 70
     0
300
100:1
140
100.0
141
1.0
290
     0
  0
SCALE
  5
59
102
{ACAD_REACTORS
330
47
102
}
330
47
100
AcDbScale
 70
     0
300
1/128" = 1'-0"
140
0.0078125
141
12.0
290
     0
  0
SCALE
  5
5A
102
{ACAD_REACTORS
330
47
102
}
330
47
100
AcDbScale
 70
     0
300
1/64" = 1'-0"
140
0.015625
141
12.0
290
     0
  0
SCALE
  5
5B
102
{ACAD_REACTORS
330
47
102
}
330
47
100
AcDbScale
 70
     0
300
1/32" = 1'-0"
140
0.03125
141
12.0
290
     0
  0
SCALE
  5
5C
102
{ACAD_REACTORS
330
47
102
}
330
47
100
AcDbScale
 70
     0
300
1/16" = 1'-0"
140
0.0625
141
12.0
290
     0
  0
SCALE
  5
5D
102
{ACAD_REACTORS
330
47
102
}
330
47
100
AcDbScale
 70
     0
300
3/32" = 1'-0"
140
0.09375
141
12.0
290
     0
  0
SCALE
  5
5E
102
{ACAD_REACTORS
330
47
102
}
330
47
100
AcDbScale
 70
     0
300
1/8" = 1'-0"
140
0.125
141
12.0
290
     0
  0
SCALE
  5
5F
102
{ACAD_REACTORS
330
47
102
}
330
47
100
AcDbScale
 70
     0
300
3/16" = 1'-0"
140
0.1875
141
12.0
290
     0
  0
SCALE
  5
60
102
{ACAD_REACTORS
330
47
102
}
330
47
100
AcDbScale
 70
     0
300
1/4" = 1'-0"
140
0.25
141
12.0
290
     0
  0
SCALE
  5
61
102
{ACAD_REACTORS
330
47
102
}
330
47
100
AcDbScale
 70
     0
300
3/8" = 1'-0"
140
0.375
141
12.0
290
     0
  0
SCALE
  5
62
102
{ACAD_REACTORS
330
47
102
}
330
47
100
AcDbScale
 70
     0
300
1/2" = 1'-0"
140
0.5
141
12.0
290
     0
  0
SCALE
  5
63
102
{ACAD_REACTORS
330
47
102
}
330
47
100
AcDbScale
 70
     0
300
3/4" = 1'-0"
140
0.75
141
12.0
290
     0
  0
SCALE
  5
64
102
{ACAD_REACTORS
330
47
102
}
330
47
100
AcDbScale
 70
     0
300
1" = 1'-0"
140
1.0
141
12.0
290
     0
  0
SCALE
  5
65
102
{ACAD_REACTORS
330
47
102
}
330
47
100
AcDbScale
 70
     0
300
1-1/2" = 1'-0"
140
1.5
141
12.0
290
     0
  0
SCALE
  5
66
102
{ACAD_REACTORS
330
47
102
}
330
47
100
AcDbScale
 70
     0
300
3" = 1'-0"
140
3.0
141
12.0
290
     0
  0
SCALE
  5
67
102
{ACAD_REACTORS
330
47
102
}
330
47
100
AcDbScale
 70
     0
300
6" = 1'-0"
140
6.0
141
12.0
290
     0
  0
SCALE
  5
68
102
{ACAD_REACTORS
330
47
102
}
330
47
100
AcDbScale
 70
     0
300
1'-0" = 1'-0"
140
12.0
141
12.0
290
     0
  0
ENDSEC
  0
EOF
