999
Dxf file generated by netDxf, Copyright(C) 2012 Daniel Carvajal, Licensed under LGPL
0
SECTION
2
HEADER
9
$ACADVER
1
AC1009
9
$HANDSEED
5
148
0
ENDSEC
0
SECTION
2
TABLES
0
TABLE
2
LTYPE
5
1
100
AcDbSymbolTable
0
LTYPE
5
67
100
AcDbSymbolTableRecord
100
AcDbLinetypeTableRecord
70
0
2
CONTINUOUS
3
Solid line
72
65
73
0
40
0
0
ENDTAB
0
TABLE
2
LAYER
5
2
100
AcDbSymbolTable
0
LAYER
5
66
100
AcDbSymbolTableRecord
100
AcDbLayerTableRecord
70
0
2
0
62
7
6
CONTINUOUS
0
ENDTAB
0
TABLE
2
STYLE
5
3
100
AcDbSymbolTable
0
STYLE
5
6a
100
AcDbSymbolTableRecord
100
AcDbTextStyleTableRecord
2
Standard
3
simplex
70
0
71
0
40
0
41
1
42
0
50
0
0
ENDTAB
0
TABLE
2
VIEW
5
4
100
AcDbSymbolTable
0
ENDTAB
0
TABLE
2
UCS
5
5
100
AcDbSymbolTable
0
ENDTAB
0
TABLE
2
APPID
5
6
100
AcDbSymbolTable
0
APPID
5
71
100
AcDbSymbolTableRecord
100
AcDbRegAppTableRecord
2
ACAD
70
0
0
ENDTAB
0
ENDSEC
0
SECTION
2
BLOCKS
0
ENDSEC
0
SECTION
2
ENTITIES
0
CIRCLE
5
145
100
AcDbEntity
8
0
62
7
6
CONTINUOUS
100
AcDbCircle
10
0
20
0
30
0
40
12.7
39
0
210
0
220
0
230
1
0
LINE
5
141
100
AcDbEntity
8
0
62
7
6
CONTINUOUS
100
AcDbLine
10
-63.0967221242
20
22.225
30
0
11
-50.8
21
-25.4
31
0
39
0
210
0
220
0
230
1
0
LINE
5
142
100
AcDbEntity
8
0
62
7
6
CONTINUOUS
100
AcDbLine
10
50.8
20
25.4
30
0
11
-49.2125
21
38.0003906189
31
0
39
0
210
0
220
0
230
1
0
LINE
5
143
100
AcDbEntity
8
0
62
7
6
CONTINUOUS
100
AcDbLine
10
63.0967221242
20
-22.225
30
0
11
50.8
21
25.4
31
0
39
0
210
0
220
0
230
1
0
LINE
5
144
100
AcDbEntity
8
0
62
7
6
CONTINUOUS
100
AcDbLine
10
-50.8
20
-25.4
30
0
11
49.2125
21
-38.0003906189
31
0
39
0
210
0
220
0
230
1
0
POLYLINE
5
d9
100
AcDbEntity
8
0
62
7
6
CONTINUOUS
100
AcDb2dPolyline
70
0
10
0
20
0
30
0
39
0
210
0
220
0
230
1
66
1
0
VERTEX
5
73
100
AcDbEntity
8
0
100
AcDbVertex
100
AcDb2dVertex 
70
0
10
-49.2124999999908
20
38.000390618944
40
0
41
0
42
0
0
VERTEX
5
74
100
AcDbEntity
8
0
100
AcDbVertex
100
AcDb2dVertex 
70
0
10
-49.4583428695423
20
38.0289332939996
40
0
41
0
42
0
0
VERTEX
5
75
100
AcDbEntity
8
0
100
AcDbVertex
100
AcDb2dVertex 
70
0
10
-49.7046952626971
20
38.0526798557634
40
0
41
0
42
0
0
VERTEX
5
76
100
AcDbEntity
8
0
100
AcDbVertex
100
AcDb2dVertex 
70
0
10
-49.9514636217522
20
38.0716212859598
40
0
41
0
42
0
0
VERTEX
5
77
100
AcDbEntity
8
0
100
AcDbVertex
100
AcDb2dVertex 
70
0
10
-50.1985542310329
20
38.0857503911669
40
0
41
0
42
0
0
VERTEX
5
78
100
AcDbEntity
8
0
100
AcDbVertex
100
AcDb2dVertex 
70
0
10
-50.4458732524827
20
38.0950618055484
40
0
41
0
42
0
0
VERTEX
5
79
100
AcDbEntity
8
0
100
AcDbVertex
100
AcDb2dVertex 
70
0
10
-50.6933267613006
20
38.0995519928911
40
0
41
0
42
0
0
VERTEX
5
7a
100
AcDbEntity
8
0
100
AcDbVertex
100
AcDb2dVertex 
70
0
10
-50.9408207816111
20
38.0992192479485
40
0
41
0
42
0
0
VERTEX
5
7b
100
AcDbEntity
8
0
100
AcDbVertex
100
AcDb2dVertex 
70
0
10
-51.1882613221537
20
38.0940636970877
40
0
41
0
42
0
0
VERTEX
5
7c
100
AcDbEntity
8
0
100
AcDbVertex
100
AcDb2dVertex 
70
0
10
-51.4355544119777
20
38.0840872982417
40
0
41
0
42
0
0
VERTEX
5
7d
100
AcDbEntity
8
0
100
AcDbVertex
100
AcDb2dVertex 
70
0
10
-51.6826061361304
20
38.0692938401659
40
0
41
0
42
0
0
VERTEX
5
7e
100
AcDbEntity
8
0
100
AcDbVertex
100
AcDb2dVertex 
70
0
10
-51.9293226713228
20
38.0496889409992
40
0
41
0
42
0
0
VERTEX
5
7f
100
AcDbEntity
8
0
100
AcDbVertex
100
AcDb2dVertex 
70
0
10
-52.1756103215612
20
38.0252800461302
40
0
41
0
42
0
0
VERTEX
5
80
100
AcDbEntity
8
0
100
AcDbVertex
100
AcDb2dVertex 
70
0
10
-52.4213755537303
20
37.9960764253701
40
0
41
0
42
0
0
VERTEX
5
81
100
AcDbEntity
8
0
100
AcDbVertex
100
AcDb2dVertex 
70
0
10
-52.6665250331147
20
37.9620891694318
40
0
41
0
42
0
0
VERTEX
5
82
100
AcDbEntity
8
0
100
AcDbVertex
100
AcDb2dVertex 
70
0
10
-52.9109656588444
20
37.9233311857181
40
0
41
0
42
0
0
VERTEX
5
83
100
AcDbEntity
8
0
100
AcDbVertex
100
AcDb2dVertex 
70
0
10
-53.154604599252
20
37.87981719342
40
0
41
0
42
0
0
VERTEX
5
84
100
AcDbEntity
8
0
100
AcDbVertex
100
AcDb2dVertex 
70
0
10
-53.3973493271278
20
37.8315637179266
40
0
41
0
42
0
0
VERTEX
5
85
100
AcDbEntity
8
0
100
AcDbVertex
100
AcDb2dVertex 
70
0
10
-53.6391076548586
20
37.7785890845493
40
0
41
0
42
0
0
VERTEX
5
86
100
AcDbEntity
8
0
100
AcDbVertex
100
AcDb2dVertex 
70
0
10
-53.8797877694384
20
37.7209134115624
40
0
41
0
42
0
0
VERTEX
5
87
100
AcDbEntity
8
0
100
AcDbVertex
100
AcDb2dVertex 
70
0
10
-54.1192982673362
20
37.6585586025625
40
0
41
0
42
0
0
VERTEX
5
88
100
AcDbEntity
8
0
100
AcDbVertex
100
AcDb2dVertex 
70
0
10
-54.3575481892084
20
37.5915483381505
40
0
41
0
42
0
0
VERTEX
5
89
100
AcDbEntity
8
0
100
AcDbVertex
100
AcDb2dVertex 
70
0
10
-54.5944470544426
20
37.5199080669381
40
0
41
0
42
0
0
VERTEX
5
8a
100
AcDbEntity
8
0
100
AcDbVertex
100
AcDb2dVertex 
70
0
10
-54.82990489552
20
37.4436649958833
40
0
41
0
42
0
0
VERTEX
5
8b
100
AcDbEntity
8
0
100
AcDbVertex
100
AcDb2dVertex 
70
0
10
-55.0638322921817
20
37.3628480799577
40
0
41
0
42
0
0
VERTEX
5
8c
100
AcDbEntity
8
0
100
AcDbVertex
100
AcDb2dVertex 
70
0
10
-55.296140405389
20
37.2774880111507
40
0
41
0
42
0
0
VERTEX
5
8d
100
AcDbEntity
8
0
100
AcDbVertex
100
AcDb2dVertex 
70
0
10
-55.5267410110611
20
37.187617206813
40
0
41
0
42
0
0
VERTEX
5
8e
100
AcDbEntity
8
0
100
AcDbVertex
100
AcDb2dVertex 
70
0
10
-55.7555465335807
20
37.0932697973457
40
0
41
0
42
0
0
VERTEX
5
8f
100
AcDbEntity
8
0
100
AcDbVertex
100
AcDb2dVertex 
70
0
10
-55.9824700790525
20
36.9944816132385
40
0
41
0
42
0
0
VERTEX
5
90
100
AcDbEntity
8
0
100
AcDbVertex
100
AcDb2dVertex 
70
0
10
-56.2074254683029
20
36.8912901714624
40
0
41
0
42
0
0
VERTEX
5
91
100
AcDbEntity
8
0
100
AcDbVertex
100
AcDb2dVertex 
70
0
10
-56.430327269609
20
36.7837346612216
40
0
41
0
42
0
0
VERTEX
5
92
100
AcDbEntity
8
0
100
AcDbVertex
100
AcDb2dVertex 
70
0
10
-56.6510908311424
20
36.6718559290705
40
0
41
0
42
0
0
VERTEX
5
93
100
AcDbEntity
8
0
100
AcDbVertex
100
AcDb2dVertex 
70
0
10
-56.8696323131183
20
36.5556964634016
40
0
41
0
42
0
0
VERTEX
5
94
100
AcDbEntity
8
0
100
AcDbVertex
100
AcDb2dVertex 
70
0
10
-57.0858687196347
20
36.4353003783095
40
0
41
0
42
0
0
VERTEX
5
95
100
AcDbEntity
8
0
100
AcDbVertex
100
AcDb2dVertex 
70
0
10
-57.2997179301929
20
36.3107133968375
40
0
41
0
42
0
0
VERTEX
5
96
100
AcDbEntity
8
0
100
AcDbVertex
100
AcDb2dVertex 
70
0
10
-57.5110987308836
20
36.1819828336133
40
0
41
0
42
0
0
VERTEX
5
97
100
AcDbEntity
8
0
100
AcDbVertex
100
AcDb2dVertex 
70
0
10
-57.7199308452303
20
36.0491575768804
40
0
41
0
42
0
0
VERTEX
5
98
100
AcDbEntity
8
0
100
AcDbVertex
100
AcDb2dVertex 
70
0
10
-57.9261349646757
20
35.9122880699316
40
0
41
0
42
0
0
VERTEX
5
99
100
AcDbEntity
8
0
100
AcDbVertex
100
AcDb2dVertex 
70
0
10
-58.129632778701
20
35.7714262919519
40
0
41
0
42
0
0
VERTEX
5
9a
100
AcDbEntity
8
0
100
AcDbVertex
100
AcDb2dVertex 
70
0
10
-58.330347004566
20
35.6266257382787
40
0
41
0
42
0
0
VERTEX
5
9b
100
AcDbEntity
8
0
100
AcDbVertex
100
AcDb2dVertex 
70
0
10
-58.5282014166589
20
35.4779414000852
40
0
41
0
42
0
0
VERTEX
5
9c
100
AcDbEntity
8
0
100
AcDbVertex
100
AcDb2dVertex 
70
0
10
-58.7231208754447
20
35.3254297434969
40
0
41
0
42
0
0
VERTEX
5
9d
100
AcDbEntity
8
0
100
AcDbVertex
100
AcDb2dVertex 
70
0
10
-58.915031356001
20
35.1691486881468
40
0
41
0
42
0
0
VERTEX
5
9e
100
AcDbEntity
8
0
100
AcDbVertex
100
AcDb2dVertex 
70
0
10
-59.1038599761305
20
35.0091575851798
40
0
41
0
42
0
0
VERTEX
5
9f
100
AcDbEntity
8
0
100
AcDbVertex
100
AcDb2dVertex 
70
0
10
-59.28953502404
20
34.8455171947119
40
0
41
0
42
0
0
VERTEX
5
a0
100
AcDbEntity
8
0
100
AcDbVertex
100
AcDb2dVertex 
70
0
10
-59.471985985574
20
34.6782896627562
40
0
41
0
42
0
0
VERTEX
5
a1
100
AcDbEntity
8
0
100
AcDbVertex
100
AcDb2dVertex 
70
0
10
-59.6511435709942
20
34.5075384976209
40
0
41
0
42
0
0
VERTEX
5
a2
100
AcDbEntity
8
0
100
AcDbVertex
100
AcDb2dVertex 
70
0
10
-59.8269397412941
20
34.3333285457911
40
0
41
0
42
0
0
VERTEX
5
a3
100
AcDbEntity
8
0
100
AcDbVertex
100
AcDb2dVertex 
70
0
10
-59.9993077340377
20
34.1557259673013
40
0
41
0
42
0
0
VERTEX
5
a4
100
AcDbEntity
8
0
100
AcDbVertex
100
AcDb2dVertex 
70
0
10
-60.1681820887144
20
33.9747982106105
40
0
41
0
42
0
0
VERTEX
5
a5
100
AcDbEntity
8
0
100
AcDbVertex
100
AcDb2dVertex 
70
0
10
-60.3334986715993
20
33.7906139869866
40
0
41
0
42
0
0
VERTEX
5
a6
100
AcDbEntity
8
0
100
AcDbVertex
100
AcDb2dVertex 
70
0
10
-60.4951947001085
20
33.6032432444119
40
0
41
0
42
0
0
VERTEX
5
a7
100
AcDbEntity
8
0
100
AcDbVertex
100
AcDb2dVertex 
70
0
10
-60.6532087666431
20
33.4127571410188
40
0
41
0
42
0
0
VERTEX
5
a8
100
AcDbEntity
8
0
100
AcDbVertex
100
AcDb2dVertex 
70
0
10
-60.8074808619096
20
33.2192280180664
40
0
41
0
42
0
0
VERTEX
5
a9
100
AcDbEntity
8
0
100
AcDbVertex
100
AcDb2dVertex 
70
0
10
-60.9579523977097
20
33.0227293724665
40
0
41
0
42
0
0
VERTEX
5
aa
100
AcDbEntity
8
0
100
AcDbVertex
100
AcDb2dVertex 
70
0
10
-61.1045662291909
20
32.8233358288722
40
0
41
0
42
0
0
VERTEX
5
ab
100
AcDbEntity
8
0
100
AcDbVertex
100
AcDb2dVertex 
70
0
10
-61.2472666765479
20
32.6211231113375
40
0
41
0
42
0
0
VERTEX
5
ac
100
AcDbEntity
8
0
100
AcDbVertex
100
AcDb2dVertex 
70
0
10
-61.3859995461685
20
32.416168014559
40
0
41
0
42
0
0
VERTEX
5
ad
100
AcDbEntity
8
0
100
AcDbVertex
100
AcDb2dVertex 
70
0
10
-61.520712151215
20
32.2085483747118
40
0
41
0
42
0
0
VERTEX
5
ae
100
AcDbEntity
8
0
100
AcDbVertex
100
AcDb2dVertex 
70
0
10
-61.6513533316328
20
31.9983430398897
40
0
41
0
42
0
0
VERTEX
5
af
100
AcDbEntity
8
0
100
AcDbVertex
100
AcDb2dVertex 
70
0
10
-61.77787347358
20
31.7856318401603
40
0
41
0
42
0
0
VERTEX
5
b0
100
AcDbEntity
8
0
100
AcDbVertex
100
AcDb2dVertex 
70
0
10
-61.9002245282688
20
31.5704955572482
40
0
41
0
42
0
0
VERTEX
5
b1
100
AcDbEntity
8
0
100
AcDbVertex
100
AcDb2dVertex 
70
0
10
-62.0183600302135
20
31.3530158938566
40
0
41
0
42
0
0
VERTEX
5
b2
100
AcDbEntity
8
0
100
AcDbVertex
100
AcDb2dVertex 
70
0
10
-62.1322351148765
20
31.1332754426383
40
0
41
0
42
0
0
VERTEX
5
b3
100
AcDbEntity
8
0
100
AcDbVertex
100
AcDb2dVertex 
70
0
10
-62.2418065357071
20
30.9113576548297
40
0
41
0
42
0
0
VERTEX
5
b4
100
AcDbEntity
8
0
100
AcDbVertex
100
AcDb2dVertex 
70
0
10
-62.3470326805645
20
30.6873468085586
40
0
41
0
42
0
0
VERTEX
5
b5
100
AcDbEntity
8
0
100
AcDbVertex
100
AcDb2dVertex 
70
0
10
-62.4478735875217
20
30.4613279768372
40
0
41
0
42
0
0
VERTEX
5
b6
100
AcDbEntity
8
0
100
AcDbVertex
100
AcDb2dVertex 
70
0
10
-62.5442909600413
20
30.2333869952541
40
0
41
0
42
0
0
VERTEX
5
b7
100
AcDbEntity
8
0
100
AcDbVertex
100
AcDb2dVertex 
70
0
10
-62.6362481815201
20
30.0036104293763
40
0
41
0
42
0
0
VERTEX
5
b8
100
AcDbEntity
8
0
100
AcDbVertex
100
AcDb2dVertex 
70
0
10
-62.7237103291943
20
29.7720855418742
40
0
41
0
42
0
0
VERTEX
5
b9
100
AcDbEntity
8
0
100
AcDbVertex
100
AcDb2dVertex 
70
0
10
-62.8066441874028
20
29.5389002593812
40
0
41
0
42
0
0
VERTEX
5
ba
100
AcDbEntity
8
0
100
AcDbVertex
100
AcDb2dVertex 
70
0
10
-62.8850182602013
20
29.3041431391024
40
0
41
0
42
0
0
VERTEX
5
bb
100
AcDbEntity
8
0
100
AcDbVertex
100
AcDb2dVertex 
70
0
10
-62.9588027833237
20
29.0679033351821
40
0
41
0
42
0
0
VERTEX
5
bc
100
AcDbEntity
8
0
100
AcDbVertex
100
AcDb2dVertex 
70
0
10
-63.0279697354854
20
28.8302705648466
40
0
41
0
42
0
0
VERTEX
5
bd
100
AcDbEntity
8
0
100
AcDbVertex
100
AcDb2dVertex 
70
0
10
-63.0924928490255
20
28.5913350743314
40
0
41
0
42
0
0
VERTEX
5
be
100
AcDbEntity
8
0
100
AcDbVertex
100
AcDb2dVertex 
70
0
10
-63.1523476198821
20
28.3511876046084
40
0
41
0
42
0
0
VERTEX
5
bf
100
AcDbEntity
8
0
100
AcDbVertex
100
AcDb2dVertex 
70
0
10
-63.2075113168984
20
28.1099193569251
40
0
41
0
42
0
0
VERTEX
5
c0
100
AcDbEntity
8
0
100
AcDbVertex
100
AcDb2dVertex 
70
0
10
-63.2579629904556
20
27.8676219581691
40
0
41
0
42
0
0
VERTEX
5
c1
100
AcDbEntity
8
0
100
AcDbVertex
100
AcDb2dVertex 
70
0
10
-63.3036834804285
20
27.6243874260703
40
0
41
0
42
0
0
VERTEX
5
c2
100
AcDbEntity
8
0
100
AcDbVertex
100
AcDb2dVertex 
70
0
10
-63.3446554234622
20
27.3803081342558
40
0
41
0
42
0
0
VERTEX
5
c3
100
AcDbEntity
8
0
100
AcDbVertex
100
AcDb2dVertex 
70
0
10
-63.3808632595665
20
27.1354767771682
40
0
41
0
42
0
0
VERTEX
5
c4
100
AcDbEntity
8
0
100
AcDbVertex
100
AcDb2dVertex 
70
0
10
-63.4122932380245
20
26.8899863348639
40
0
41
0
42
0
0
VERTEX
5
c5
100
AcDbEntity
8
0
100
AcDbVertex
100
AcDb2dVertex 
70
0
10
-63.4389334226154
20
26.6439300377008
40
0
41
0
42
0
0
VERTEX
5
c6
100
AcDbEntity
8
0
100
AcDbVertex
100
AcDb2dVertex 
70
0
10
-63.4607736961472
20
26.3974013309327
40
0
41
0
42
0
0
VERTEX
5
c7
100
AcDbEntity
8
0
100
AcDbVertex
100
AcDb2dVertex 
70
0
10
-63.4778057642989
20
26.1504938392215
40
0
41
0
42
0
0
VERTEX
5
c8
100
AcDbEntity
8
0
100
AcDbVertex
100
AcDb2dVertex 
70
0
10
-63.4900231587705
20
25.9033013310806
40
0
41
0
42
0
0
VERTEX
5
c9
100
AcDbEntity
8
0
100
AcDbVertex
100
AcDb2dVertex 
70
0
10
-63.4974212397397
20
25.6559176832648
40
0
41
0
42
0
0
VERTEX
5
ca
100
AcDbEntity
8
0
100
AcDbVertex
100
AcDb2dVertex 
70
0
10
-63.4999971976235
20
25.4084368451184
40
0
41
0
42
0
0
VERTEX
5
cb
100
AcDbEntity
8
0
100
AcDbVertex
100
AcDb2dVertex 
70
0
10
-63.4977500541457
20
25.1609528028958
40
0
41
0
42
0
0
VERTEX
5
cc
100
AcDbEntity
8
0
100
AcDbVertex
100
AcDb2dVertex 
70
0
10
-63.4906806627081
20
24.9135595440682
40
0
41
0
42
0
0
VERTEX
5
cd
100
AcDbEntity
8
0
100
AcDbVertex
100
AcDb2dVertex 
70
0
10
-63.4787917080665
20
24.6663510216297
40
0
41
0
42
0
0
VERTEX
5
ce
100
AcDbEntity
8
0
100
AcDbVertex
100
AcDb2dVertex 
70
0
10
-63.4620877053112
20
24.4194211184171
40
0
41
0
42
0
0
VERTEX
5
cf
100
AcDbEntity
8
0
100
AcDbVertex
100
AcDb2dVertex 
70
0
10
-63.4405749981521
20
24.172863611455
40
0
41
0
42
0
0
VERTEX
5
d0
100
AcDbEntity
8
0
100
AcDbVertex
100
AcDb2dVertex 
70
0
10
-63.4142617565097
20
23.9267721363427
40
0
41
0
42
0
0
VERTEX
5
d1
100
AcDbEntity
8
0
100
AcDbVertex
100
AcDb2dVertex 
70
0
10
-63.3831579734123
20
23.6812401516937
40
0
41
0
42
0
0
VERTEX
5
d2
100
AcDbEntity
8
0
100
AcDbVertex
100
AcDb2dVertex 
70
0
10
-63.347275461201
20
23.4363609036426
40
0
41
0
42
0
0
VERTEX
5
d3
100
AcDbEntity
8
0
100
AcDbVertex
100
AcDb2dVertex 
70
0
10
-63.3066278470436
20
23.1922273904332
40
0
41
0
42
0
0
VERTEX
5
d4
100
AcDbEntity
8
0
100
AcDbVertex
100
AcDb2dVertex 
70
0
10
-63.2612305677595
20
22.9489323271001
40
0
41
0
42
0
0
VERTEX
5
d5
100
AcDbEntity
8
0
100
AcDbVertex
100
AcDb2dVertex 
70
0
10
-63.2111008639573
20
22.7065681102582
40
0
41
0
42
0
0
VERTEX
5
d6
100
AcDbEntity
8
0
100
AcDbVertex
100
AcDb2dVertex 
70
0
10
-63.156257773487
20
22.4652267830133
40
0
41
0
42
0
0
VERTEX
5
d7
100
AcDbEntity
8
0
100
AcDbVertex
100
AcDb2dVertex 
70
0
10
-63.0967221242102
20
22.2250000000064
40
0
41
0
42
0
0
SEQEND
5
d8
100
AcDbEntity
8
0
0
POLYLINE
5
140
100
AcDbEntity
8
0
62
7
6
CONTINUOUS
100
AcDb2dPolyline
70
0
10
0
20
0
30
0
39
0
210
0
220
0
230
1
66
1
0
VERTEX
5
da
100
AcDbEntity
8
0
100
AcDbVertex
100
AcDb2dVertex 
70
0
10
49.2124999999908
20
-38.000390618944
40
0
41
0
42
0
0
VERTEX
5
db
100
AcDbEntity
8
0
100
AcDbVertex
100
AcDb2dVertex 
70
0
10
48.6680130407856
20
-37.9197696306977
40
0
41
0
42
0
0
VERTEX
5
dc
100
AcDbEntity
8
0
100
AcDbVertex
100
AcDb2dVertex 
70
0
10
48.1275307881256
20
-37.815631611464
40
0
41
0
42
0
0
VERTEX
5
dd
100
AcDbEntity
8
0
100
AcDbVertex
100
AcDb2dVertex 
70
0
10
47.5920684793721
20
-37.6881721732307
40
0
41
0
42
0
0
VERTEX
5
de
100
AcDbEntity
8
0
100
AcDbVertex
100
AcDb2dVertex 
70
0
10
47.0626319224656
20
-37.537630734745
40
0
41
0
42
0
0
VERTEX
5
df
100
AcDbEntity
8
0
100
AcDbVertex
100
AcDb2dVertex 
70
0
10
46.5402156066245
20
-37.3642900717909
40
0
41
0
42
0
0
VERTEX
5
e0
100
AcDbEntity
8
0
100
AcDbVertex
100
AcDb2dVertex 
70
0
10
46.0258008343049
20
-37.1684757860258
40
0
41
0
42
0
0
VERTEX
5
e1
100
AcDbEntity
8
0
100
AcDbVertex
100
AcDb2dVertex 
70
0
10
45.5203538779301
20
-36.950555693373
40
0
41
0
42
0
0
VERTEX
5
e2
100
AcDbEntity
8
0
100
AcDbVertex
100
AcDb2dVertex 
70
0
10
45.0248241648527
20
-36.7109391331194
40
0
41
0
42
0
0
VERTEX
5
e3
100
AcDbEntity
8
0
100
AcDbVertex
100
AcDb2dVertex 
70
0
10
44.5401424939582
20
-36.4500761990156
40
0
41
0
42
0
0
VERTEX
5
e4
100
AcDbEntity
8
0
100
AcDbVertex
100
AcDb2dVertex 
70
0
10
44.0672192872597
20
-36.1684568938243
40
0
41
0
42
0
0
VERTEX
5
e5
100
AcDbEntity
8
0
100
AcDbVertex
100
AcDb2dVertex 
70
0
10
43.6069428797696
20
-35.8666102089025
40
0
41
0
42
0
0
VERTEX
5
e6
100
AcDbEntity
8
0
100
AcDbVertex
100
AcDb2dVertex 
70
0
10
43.1601778508575
20
-35.5451031305488
40
0
41
0
42
0
0
VERTEX
5
e7
100
AcDbEntity
8
0
100
AcDbVertex
100
AcDb2dVertex 
70
0
10
42.7277634002323
20
-35.2045395749811
40
0
41
0
42
0
0
VERTEX
5
e8
100
AcDbEntity
8
0
100
AcDbVertex
100
AcDb2dVertex 
70
0
10
42.3105117715963
20
-34.8455592539455
40
0
41
0
42
0
0
VERTEX
5
e9
100
AcDbEntity
8
0
100
AcDbVertex
100
AcDb2dVertex 
70
0
10
41.9092067269329
20
-34.4688364730865
40
0
41
0
42
0
0
VERTEX
5
ea
100
AcDbEntity
8
0
100
AcDbVertex
100
AcDb2dVertex 
70
0
10
41.5246020742953
20
-34.075078865338
40
0
41
0
42
0
0
VERTEX
5
eb
100
AcDbEntity
8
0
100
AcDbVertex
100
AcDb2dVertex 
70
0
10
41.1574202518594
20
-33.6650260617102
40
0
41
0
42
0
0
VERTEX
5
ec
100
AcDbEntity
8
0
100
AcDbVertex
100
AcDb2dVertex 
70
0
10
40.8083509709019
20
-33.2394483019739
40
0
41
0
42
0
0
VERTEX
5
ed
100
AcDbEntity
8
0
100
AcDbVertex
100
AcDb2dVertex 
70
0
10
40.4780499202524
20
-32.7991449878481
40
0
41
0
42
0
0
VERTEX
5
ee
100
AcDbEntity
8
0
100
AcDbVertex
100
AcDb2dVertex 
70
0
10
40.1671375346531
20
-32.3449431814103
40
0
41
0
42
0
0
VERTEX
5
ef
100
AcDbEntity
8
0
100
AcDbVertex
100
AcDb2dVertex 
70
0
10
39.8761978293394
20
-31.8776960515504
40
0
41
0
42
0
0
VERTEX
5
f0
100
AcDbEntity
8
0
100
AcDbVertex
100
AcDb2dVertex 
70
0
10
39.6057773030303
20
-31.398281271385
40
0
41
0
42
0
0
VERTEX
5
f1
100
AcDbEntity
8
0
100
AcDbVertex
100
AcDb2dVertex 
70
0
10
39.3563839113898
20
-30.9075993696438
40
0
41
0
42
0
0
VERTEX
5
f2
100
AcDbEntity
8
0
100
AcDbVertex
100
AcDb2dVertex 
70
0
10
39.1284861128873
20
-30.4065720391237
40
0
41
0
42
0
0
VERTEX
5
f3
100
AcDbEntity
8
0
100
AcDbVertex
100
AcDb2dVertex 
70
0
10
38.9225119888493
20
-29.896140405389
40
0
41
0
42
0
0
VERTEX
5
f4
100
AcDbEntity
8
0
100
AcDbVertex
100
AcDb2dVertex 
70
0
10
38.7388484393546
20
-29.3772632589686
40
0
41
0
42
0
0
VERTEX
5
f5
100
AcDbEntity
8
0
100
AcDbVertex
100
AcDb2dVertex 
70
0
10
38.5778404564848
20
-28.8509152543723
40
0
41
0
42
0
0
VERTEX
5
f6
100
AcDbEntity
8
0
100
AcDbVertex
100
AcDb2dVertex 
70
0
10
38.4397904762936
20
-28.3180850793075
40
0
41
0
42
0
0
VERTEX
5
f7
100
AcDbEntity
8
0
100
AcDbVertex
100
AcDb2dVertex 
70
0
10
38.3249578107139
20
-27.7797735975367
40
0
41
0
42
0
0
VERTEX
5
f8
100
AcDbEntity
8
0
100
AcDbVertex
100
AcDb2dVertex 
70
0
10
38.2335581604683
20
-27.2369919688634
40
0
41
0
42
0
0
VERTEX
5
f9
100
AcDbEntity
8
0
100
AcDbVertex
100
AcDb2dVertex 
70
0
10
38.1657632098985
20
-26.6907597497774
40
0
41
0
42
0
0
VERTEX
5
fa
100
AcDbEntity
8
0
100
AcDbVertex
100
AcDb2dVertex 
70
0
10
38.1217003044748
20
-26.1421029783292
40
0
41
0
42
0
0
VERTEX
5
fb
100
AcDbEntity
8
0
100
AcDbVertex
100
AcDb2dVertex 
70
0
10
38.1014522115917
20
-25.592052246828
40
0
41
0
42
0
0
VERTEX
5
fc
100
AcDbEntity
8
0
100
AcDbVertex
100
AcDb2dVertex 
70
0
10
38.1050569650984
20
-25.0416407659862
40
0
41
0
42
0
0
VERTEX
5
fd
100
AcDbEntity
8
0
100
AcDbVertex
100
AcDb2dVertex 
70
0
10
38.1325077938558
20
-24.4919024241445
40
0
41
0
42
0
0
VERTEX
5
fe
100
AcDbEntity
8
0
100
AcDbVertex
100
AcDb2dVertex 
70
0
10
38.1837531344558
20
-23.943869845225
40
0
41
0
42
0
0
VERTEX
5
ff
100
AcDbEntity
8
0
100
AcDbVertex
100
AcDb2dVertex 
70
0
10
38.2586967280775
20
-23.398572449059
40
0
41
0
42
0
0
VERTEX
5
100
100
AcDbEntity
8
0
100
AcDbVertex
100
AcDb2dVertex 
70
0
10
38.3571978012989
20
-22.8570345177333
40
0
41
0
42
0
0
VERTEX
5
101
100
AcDbEntity
8
0
100
AcDbVertex
100
AcDb2dVertex 
70
0
10
38.4790713305247
20
-22.3202732715871
40
0
41
0
42
0
0
VERTEX
5
102
100
AcDbEntity
8
0
100
AcDbVertex
100
AcDb2dVertex 
70
0
10
38.6240883895326
20
-21.7892969584741
40
0
41
0
42
0
0
VERTEX
5
103
100
AcDbEntity
8
0
100
AcDbVertex
100
AcDb2dVertex 
70
0
10
38.7919765794869
20
-21.265102959878
40
0
41
0
42
0
0
VERTEX
5
104
100
AcDbEntity
8
0
100
AcDbVertex
100
AcDb2dVertex 
70
0
10
38.9824205406102
20
-20.7486759174393
40
0
41
0
42
0
0
VERTEX
5
105
100
AcDbEntity
8
0
100
AcDbVertex
100
AcDb2dVertex 
70
0
10
39.1950625445523
20
-20.2409858834127
40
0
41
0
42
0
0
VERTEX
5
106
100
AcDbEntity
8
0
100
AcDbVertex
100
AcDb2dVertex 
70
0
10
39.4295031663441
20
-19.7429864985293
40
0
41
0
42
0
0
VERTEX
5
107
100
AcDbEntity
8
0
100
AcDbVertex
100
AcDb2dVertex 
70
0
10
39.6853020346746
20
-19.2556132006855
40
0
41
0
42
0
0
VERTEX
5
108
100
AcDbEntity
8
0
100
AcDbVertex
100
AcDb2dVertex 
70
0
10
39.9619786590801
20
-18.7797814678241
40
0
41
0
42
0
0
VERTEX
5
109
100
AcDbEntity
8
0
100
AcDbVertex
100
AcDb2dVertex 
70
0
10
40.2590133324942
20
-18.3163850983086
40
0
41
0
42
0
0
VERTEX
5
10a
100
AcDbEntity
8
0
100
AcDbVertex
100
AcDb2dVertex 
70
0
10
40.5758481074604
20
-17.8662945320195
40
0
41
0
42
0
0
VERTEX
5
10b
100
AcDbEntity
8
0
100
AcDbVertex
100
AcDb2dVertex 
70
0
10
40.9118878441767
20
-17.4303552153274
40
0
41
0
42
0
0
VERTEX
5
10c
100
AcDbEntity
8
0
100
AcDbVertex
100
AcDb2dVertex 
70
0
10
41.2665013284007
20
-17.0093860130134
40
0
41
0
42
0
0
VERTEX
5
10d
100
AcDbEntity
8
0
100
AcDbVertex
100
AcDb2dVertex 
70
0
10
41.6390224571176
20
-16.6041776701207
40
0
41
0
42
0
0
VERTEX
5
10e
100
AcDbEntity
8
0
100
AcDbVertex
100
AcDb2dVertex 
70
0
10
42.0287514897421
20
-16.2154913266251
40
0
41
0
42
0
0
VERTEX
5
10f
100
AcDbEntity
8
0
100
AcDbVertex
100
AcDb2dVertex 
70
0
10
42.4349563625057
20
-15.8440570877168
40
0
41
0
42
0
0
VERTEX
5
110
100
AcDbEntity
8
0
100
AcDbVertex
100
AcDb2dVertex 
70
0
10
42.856874063559
20
-15.490572652376
40
0
41
0
42
0
0
VERTEX
5
111
100
AcDbEntity
8
0
100
AcDbVertex
100
AcDb2dVertex 
70
0
10
43.2937120662069
20
-15.1557020028216
40
0
41
0
42
0
0
VERTEX
5
112
100
AcDbEntity
8
0
100
AcDbVertex
100
AcDb2dVertex 
70
0
10
43.744649817584
20
-14.8400741572925
40
0
41
0
42
0
0
VERTEX
5
113
100
AcDbEntity
8
0
100
AcDbVertex
100
AcDb2dVertex 
70
0
10
44.2088402799742
20
-14.5442819885044
40
0
41
0
42
0
0
VERTEX
5
114
100
AcDbEntity
8
0
100
AcDbVertex
100
AcDb2dVertex 
70
0
10
44.6854115218796
20
-14.2688811100035
40
0
41
0
42
0
0
VERTEX
5
115
100
AcDbEntity
8
0
100
AcDbVertex
100
AcDb2dVertex 
70
0
10
45.1734683558491
20
-14.0143888325058
40
0
41
0
42
0
0
VERTEX
5
116
100
AcDbEntity
8
0
100
AcDbVertex
100
AcDb2dVertex 
70
0
10
45.6720940199913
20
-13.7812831921855
40
0
41
0
42
0
0
VERTEX
5
117
100
AcDbEntity
8
0
100
AcDbVertex
100
AcDb2dVertex 
70
0
10
46.180351900012
20
-13.5700020527357
40
0
41
0
42
0
0
VERTEX
5
118
100
AcDbEntity
8
0
100
AcDbVertex
100
AcDb2dVertex 
70
0
10
46.6972872885431
20
-13.3809422828888
40
0
41
0
42
0
0
VERTEX
5
119
100
AcDbEntity
8
0
100
AcDbVertex
100
AcDb2dVertex 
70
0
10
47.2219291784567
20
-13.2144590109417
40
0
41
0
42
0
0
VERTEX
5
11a
100
AcDbEntity
8
0
100
AcDbVertex
100
AcDb2dVertex 
70
0
10
47.753292086797
20
-13.0708649576856
40
0
41
0
42
0
0
VERTEX
5
11b
100
AcDbEntity
8
0
100
AcDbVertex
100
AcDb2dVertex 
70
0
10
48.290377905903
20
-12.950429848994
40
0
41
0
42
0
0
VERTEX
5
11c
100
AcDbEntity
8
0
100
AcDbVertex
100
AcDb2dVertex 
70
0
10
48.832177778246
20
-12.8533799091719
40
0
41
0
42
0
0
VERTEX
5
11d
100
AcDbEntity
8
0
100
AcDbVertex
100
AcDb2dVertex 
70
0
10
49.3776739914588
20
-12.7798974360179
40
0
41
0
42
0
0
VERTEX
5
11e
100
AcDbEntity
8
0
100
AcDbVertex
100
AcDb2dVertex 
70
0
10
49.9258418899984
20
-12.7301204583975
40
0
41
0
42
0
0
VERTEX
5
11f
100
AcDbEntity
8
0
100
AcDbVertex
100
AcDb2dVertex 
70
0
10
50.4756517998503
20
-12.7041424769707
40
0
41
0
42
0
0
VERTEX
5
120
100
AcDbEntity
8
0
100
AcDbVertex
100
AcDb2dVertex 
70
0
10
51.0260709626596
20
-12.7020122885615
40
0
41
0
42
0
0
VERTEX
5
121
100
AcDbEntity
8
0
100
AcDbVertex
100
AcDb2dVertex 
70
0
10
51.5760654756557
20
-12.7237338944981
40
0
41
0
42
0
0
VERTEX
5
122
100
AcDbEntity
8
0
100
AcDbVertex
100
AcDb2dVertex 
70
0
10
52.1246022337269
20
-12.7692664930969
40
0
41
0
42
0
0
VERTEX
5
123
100
AcDbEntity
8
0
100
AcDbVertex
100
AcDb2dVertex 
70
0
10
52.6706508699958
20
-12.8385245563037
40
0
41
0
42
0
0
VERTEX
5
124
100
AcDbEntity
8
0
100
AcDbVertex
100
AcDb2dVertex 
70
0
10
53.2131856912527
20
-12.9313779903498
40
0
41
0
42
0
0
VERTEX
5
125
100
AcDbEntity
8
0
100
AcDbVertex
100
AcDb2dVertex 
70
0
10
53.7511876046084
20
-13.0476523801179
40
0
41
0
42
0
0
VERTEX
5
126
100
AcDbEntity
8
0
100
AcDbVertex
100
AcDb2dVertex 
70
0
10
54.2836460317503
20
-13.187129316763
40
0
41
0
42
0
0
VERTEX
5
127
100
AcDbEntity
8
0
100
AcDbVertex
100
AcDb2dVertex 
70
0
10
54.8095608072042
20
-13.3495468079689
40
0
41
0
42
0
0
VERTEX
5
128
100
AcDbEntity
8
0
100
AcDbVertex
100
AcDb2dVertex 
70
0
10
55.3279440570366
20
-13.5345997700732
40
0
41
0
42
0
0
VERTEX
5
129
100
AcDbEntity
8
0
100
AcDbVertex
100
AcDb2dVertex 
70
0
10
55.837822054469
20
-13.7419406011332
40
0
41
0
42
0
0
VERTEX
5
12a
100
AcDbEntity
8
0
100
AcDbVertex
100
AcDb2dVertex 
70
0
10
56.3382370489182
20
-13.9711798338591
40
0
41
0
42
0
0
VERTEX
5
12b
100
AcDbEntity
8
0
100
AcDbVertex
100
AcDb2dVertex 
70
0
10
56.828249065027
20
-14.2218868671855
40
0
41
0
42
0
0
VERTEX
5
12c
100
AcDbEntity
8
0
100
AcDbVertex
100
AcDb2dVertex 
70
0
10
57.3069376683061
20
-14.4935907751094
40
0
41
0
42
0
0
VERTEX
5
12d
100
AcDbEntity
8
0
100
AcDbVertex
100
AcDb2dVertex 
70
0
10
57.7734036940703
20
-14.7857811912733
40
0
41
0
42
0
0
VERTEX
5
12e
100
AcDbEntity
8
0
100
AcDbVertex
100
AcDb2dVertex 
70
0
10
58.2267709364225
20
-15.0979092676336
40
0
41
0
42
0
0
VERTEX
5
12f
100
AcDbEntity
8
0
100
AcDbVertex
100
AcDb2dVertex 
70
0
10
58.666187794111
20
-15.4293887054113
40
0
41
0
42
0
0
VERTEX
5
130
100
AcDbEntity
8
0
100
AcDbVertex
100
AcDb2dVertex 
70
0
10
59.0908288701707
20
-15.7795968563919
40
0
41
0
42
0
0
VERTEX
5
131
100
AcDbEntity
8
0
100
AcDbVertex
100
AcDb2dVertex 
70
0
10
59.4998965223414
20
-16.1478758925016
40
0
41
0
42
0
0
VERTEX
5
132
100
AcDbEntity
8
0
100
AcDbVertex
100
AcDb2dVertex 
70
0
10
59.8926223613527
20
-16.5335340414667
40
0
41
0
42
0
0
VERTEX
5
133
100
AcDbEntity
8
0
100
AcDbVertex
100
AcDb2dVertex 
70
0
10
60.26826869426
20
-16.9358468862327
40
0
41
0
42
0
0
VERTEX
5
134
100
AcDbEntity
8
0
100
AcDbVertex
100
AcDb2dVertex 
70
0
10
60.6261299101205
20
-17.354058725703
40
0
41
0
42
0
0
VERTEX
5
135
100
AcDbEntity
8
0
100
AcDbVertex
100
AcDb2dVertex 
70
0
10
60.9655338054073
20
-17.7873839942421
40
0
41
0
42
0
0
VERTEX
5
136
100
AcDbEntity
8
0
100
AcDbVertex
100
AcDb2dVertex 
70
0
10
61.2858428466707
20
-18.235008737275
40
0
41
0
42
0
0
VERTEX
5
137
100
AcDbEntity
8
0
100
AcDbVertex
100
AcDb2dVertex 
70
0
10
61.5864553680756
20
-18.6960921402131
40
0
41
0
42
0
0
VERTEX
5
138
100
AcDbEntity
8
0
100
AcDbVertex
100
AcDb2dVertex 
70
0
10
61.8668067015659
20
-19.1697681078329
40
0
41
0
42
0
0
VERTEX
5
139
100
AcDbEntity
8
0
100
AcDbVertex
100
AcDb2dVertex 
70
0
10
62.126370237532
20
-19.6551468911425
40
0
41
0
42
0
0
VERTEX
5
13a
100
AcDbEntity
8
0
100
AcDbVertex
100
AcDb2dVertex 
70
0
10
62.36465841399
20
-20.1513167586785
40
0
41
0
42
0
0
VERTEX
5
13b
100
AcDbEntity
8
0
100
AcDbVertex
100
AcDb2dVertex 
70
0
10
62.5812236324143
20
-20.6573457090946
40
0
41
0
42
0
0
VERTEX
5
13c
100
AcDbEntity
8
0
100
AcDbVertex
100
AcDb2dVertex 
70
0
10
62.7756590985023
20
-21.1722832218255
40
0
41
0
42
0
0
VERTEX
5
13d
100
AcDbEntity
8
0
100
AcDbVertex
100
AcDb2dVertex 
70
0
10
62.9475995862943
20
-21.6951620425365
40
0
41
0
42
0
0
VERTEX
5
13e
100
AcDbEntity
8
0
100
AcDbVertex
100
AcDb2dVertex 
70
0
10
63.0967221242102
20
-22.2250000000064
40
0
41
0
42
0
0
SEQEND
5
13f
100
AcDbEntity
8
0
0
TEXT
5
146
100
AcDbEntity
8
0
62
7
6
CONTINUOUS
100
AcDbText
1
SOLIDWORKS Educational Product.
10
-63.5
20
-45.35043
30
0
40
4.83362
41
0.6774193548
50
0
51
0
7
Standard
11
-63.5
21
-45.35043
31
0
210
0
220
0
230
1
72
0
100
AcDbText
73
1
0
TEXT
5
147
100
AcDbEntity
8
0
62
7
6
CONTINUOUS
100
AcDbText
1
For Instructional Use Only.
10
-63.5
20
-52.60086
30
0
40
4.83362
41
0.6611111111
50
0
51
0
7
Standard
11
-63.5
21
-52.60086
31
0
210
0
220
0
230
1
72
0
100
AcDbText
73
1
0
ENDSEC
0
SECTION
2
OBJECTS
0
DICTIONARY
5
7
100
AcDbDictionary
281
1
3
ACAD_GROUP
350
b
0
DICTIONARY
5
8
100
AcDbDictionary
281
1
0
ENDSEC
0
EOF
